<svg width="239" height="84" viewBox="0 0 239 84" fill="none" xmlns="http://www.w3.org/2000/svg">
<rect opacity="0.6" width="239" height="84" rx="38" fill="#E0E0E0"/>
<circle cx="42" cy="42" r="24" fill="white"/>
<path d="M39 43C41.2091 43 43 41.2091 43 39C43 36.7909 41.2091 35 39 35C36.7909 35 35 36.7909 35 39C35 41.2091 36.7909 43 39 43Z" fill="#212529"/>
<path d="M39 45C36.33 45 31 46.34 31 49V51H47V49C47 46.34 41.67 45 39 45ZM46.76 35.36L45.08 37.05C45.92 38.23 45.92 39.76 45.08 40.94L46.76 42.63C48.78 40.61 48.78 37.56 46.76 35.36ZM50.07 32L48.44 33.63C51.21 36.65 51.21 41.19 48.44 44.37L50.07 46C53.97 42.11 53.98 36.05 50.07 32Z" fill="#212529"/>
<path d="M86.688 48.096C85.8453 48.096 85.0667 47.9573 84.352 47.68C83.6373 47.392 83.0187 46.992 82.496 46.48C81.9733 45.968 81.5627 45.3653 81.264 44.672C80.976 43.9787 80.832 43.2213 80.832 42.4C80.832 41.5787 80.976 40.8213 81.264 40.128C81.5627 39.4347 81.9733 38.832 82.496 38.32C83.0293 37.808 83.6533 37.4133 84.368 37.136C85.0827 36.848 85.8613 36.704 86.704 36.704C87.5147 36.704 88.2773 36.8427 88.992 37.12C89.7067 37.3867 90.3093 37.792 90.8 38.336L90.048 39.088C89.5893 38.6187 89.0827 38.2827 88.528 38.08C87.9733 37.8667 87.376 37.76 86.736 37.76C86.064 37.76 85.44 37.8773 84.864 38.112C84.288 38.336 83.7867 38.6613 83.36 39.088C82.9333 39.504 82.5973 39.9947 82.352 40.56C82.1173 41.1147 82 41.728 82 42.4C82 43.072 82.1173 43.6907 82.352 44.256C82.5973 44.8107 82.9333 45.3013 83.36 45.728C83.7867 46.144 84.288 46.4693 84.864 46.704C85.44 46.928 86.064 47.04 86.736 47.04C87.376 47.04 87.9733 46.9333 88.528 46.72C89.0827 46.5067 89.5893 46.1653 90.048 45.696L90.8 46.448C90.3093 46.992 89.7067 47.4027 88.992 47.68C88.2773 47.9573 87.5093 48.096 86.688 48.096ZM96.2748 48.08C95.5601 48.08 94.9361 47.9467 94.4028 47.68C93.8694 47.4133 93.4534 47.0133 93.1548 46.48C92.8668 45.9467 92.7228 45.28 92.7228 44.48V39.6H93.8588V44.352C93.8588 45.248 94.0774 45.9253 94.5148 46.384C94.9628 46.832 95.5868 47.056 96.3868 47.056C96.9734 47.056 97.4801 46.9387 97.9068 46.704C98.3441 46.4587 98.6748 46.1067 98.8988 45.648C99.1334 45.1893 99.2508 44.64 99.2508 44V39.6H100.387V48H99.2987V45.696L99.4748 46.112C99.2081 46.7307 98.7921 47.216 98.2268 47.568C97.6721 47.9093 97.0214 48.08 96.2748 48.08ZM105.809 48.08C105.115 48.08 104.459 47.984 103.841 47.792C103.222 47.5893 102.737 47.3387 102.385 47.04L102.897 46.144C103.238 46.4 103.675 46.624 104.209 46.816C104.742 46.9973 105.302 47.088 105.889 47.088C106.689 47.088 107.265 46.9653 107.617 46.72C107.969 46.464 108.145 46.128 108.145 45.712C108.145 45.4027 108.043 45.1627 107.841 44.992C107.649 44.8107 107.393 44.6773 107.073 44.592C106.753 44.496 106.395 44.416 106.001 44.352C105.606 44.288 105.211 44.2133 104.817 44.128C104.433 44.0427 104.081 43.92 103.761 43.76C103.441 43.5893 103.179 43.36 102.977 43.072C102.785 42.784 102.689 42.4 102.689 41.92C102.689 41.4613 102.817 41.0507 103.073 40.688C103.329 40.3253 103.702 40.0427 104.193 39.84C104.694 39.6267 105.302 39.52 106.017 39.52C106.561 39.52 107.105 39.5947 107.649 39.744C108.193 39.8827 108.641 40.0693 108.993 40.304L108.497 41.216C108.123 40.96 107.723 40.7787 107.297 40.672C106.87 40.5547 106.443 40.496 106.017 40.496C105.259 40.496 104.699 40.6293 104.337 40.896C103.985 41.152 103.809 41.4827 103.809 41.888C103.809 42.208 103.905 42.4587 104.097 42.64C104.299 42.8213 104.561 42.9653 104.881 43.072C105.211 43.168 105.569 43.248 105.953 43.312C106.347 43.376 106.737 43.456 107.121 43.552C107.515 43.6373 107.873 43.76 108.193 43.92C108.523 44.0693 108.785 44.288 108.977 44.576C109.179 44.8533 109.281 45.2213 109.281 45.68C109.281 46.1707 109.142 46.5973 108.865 46.96C108.598 47.312 108.203 47.5893 107.681 47.792C107.169 47.984 106.545 48.08 105.809 48.08ZM114.021 48.08C113.232 48.08 112.624 47.8667 112.197 47.44C111.771 47.0133 111.557 46.4107 111.557 45.632V37.744H112.693V45.568C112.693 46.0587 112.816 46.4373 113.061 46.704C113.317 46.9707 113.68 47.104 114.149 47.104C114.651 47.104 115.067 46.96 115.397 46.672L115.797 47.488C115.573 47.6907 115.301 47.84 114.981 47.936C114.672 48.032 114.352 48.08 114.021 48.08ZM110.053 40.544V39.6H115.253V40.544H110.053ZM120.992 48.08C120.182 48.08 119.451 47.8987 118.8 47.536C118.16 47.1627 117.654 46.656 117.28 46.016C116.907 45.3653 116.72 44.624 116.72 43.792C116.72 42.9493 116.907 42.208 117.28 41.568C117.654 40.928 118.16 40.4267 118.8 40.064C119.44 39.7013 120.171 39.52 120.992 39.52C121.824 39.52 122.56 39.7013 123.2 40.064C123.851 40.4267 124.358 40.928 124.72 41.568C125.094 42.208 125.28 42.9493 125.28 43.792C125.28 44.624 125.094 45.3653 124.72 46.016C124.358 46.656 123.851 47.1627 123.2 47.536C122.55 47.8987 121.814 48.08 120.992 48.08ZM120.992 47.072C121.6 47.072 122.139 46.9387 122.608 46.672C123.078 46.3947 123.446 46.0107 123.712 45.52C123.99 45.0187 124.128 44.4427 124.128 43.792C124.128 43.1307 123.99 42.5547 123.712 42.064C123.446 41.5733 123.078 41.1947 122.608 40.928C122.139 40.6507 121.606 40.512 121.008 40.512C120.411 40.512 119.878 40.6507 119.408 40.928C118.939 41.1947 118.566 41.5733 118.288 42.064C118.011 42.5547 117.872 43.1307 117.872 43.792C117.872 44.4427 118.011 45.0187 118.288 45.52C118.566 46.0107 118.939 46.3947 119.408 46.672C119.878 46.9387 120.406 47.072 120.992 47.072ZM138.096 39.52C138.778 39.52 139.37 39.6533 139.872 39.92C140.384 40.176 140.778 40.5707 141.056 41.104C141.344 41.6373 141.488 42.3093 141.488 43.12V48H140.352V43.232C140.352 42.3467 140.138 41.68 139.712 41.232C139.296 40.7733 138.704 40.544 137.936 40.544C137.36 40.544 136.858 40.6667 136.432 40.912C136.016 41.1467 135.69 41.4933 135.456 41.952C135.232 42.4 135.12 42.944 135.12 43.584V48H133.984V43.232C133.984 42.3467 133.77 41.68 133.344 41.232C132.917 40.7733 132.32 40.544 131.552 40.544C130.986 40.544 130.49 40.6667 130.064 40.912C129.637 41.1467 129.306 41.4933 129.072 41.952C128.848 42.4 128.736 42.944 128.736 43.584V48H127.6V39.6H128.688V41.872L128.512 41.472C128.768 40.864 129.178 40.3893 129.744 40.048C130.32 39.696 130.997 39.52 131.776 39.52C132.597 39.52 133.296 39.728 133.872 40.144C134.448 40.5493 134.821 41.1627 134.992 41.984L134.544 41.808C134.789 41.1253 135.221 40.576 135.84 40.16C136.469 39.7333 137.221 39.52 138.096 39.52ZM148.136 48.08C147.262 48.08 146.494 47.8987 145.832 47.536C145.171 47.1627 144.654 46.656 144.28 46.016C143.907 45.3653 143.72 44.624 143.72 43.792C143.72 42.96 143.896 42.224 144.248 41.584C144.611 40.944 145.102 40.4427 145.72 40.08C146.35 39.7067 147.054 39.52 147.832 39.52C148.622 39.52 149.32 39.7013 149.928 40.064C150.547 40.416 151.032 40.9173 151.384 41.568C151.736 42.208 151.912 42.9493 151.912 43.792C151.912 43.8453 151.907 43.904 151.896 43.968C151.896 44.0213 151.896 44.08 151.896 44.144H144.584V43.296H151.288L150.84 43.632C150.84 43.024 150.707 42.4853 150.44 42.016C150.184 41.536 149.832 41.1627 149.384 40.896C148.936 40.6293 148.419 40.496 147.832 40.496C147.256 40.496 146.739 40.6293 146.28 40.896C145.822 41.1627 145.464 41.536 145.208 42.016C144.952 42.496 144.824 43.0453 144.824 43.664V43.84C144.824 44.48 144.963 45.0453 145.24 45.536C145.528 46.016 145.923 46.3947 146.424 46.672C146.936 46.9387 147.518 47.072 148.168 47.072C148.68 47.072 149.155 46.9813 149.592 46.8C150.04 46.6187 150.424 46.3413 150.744 45.968L151.384 46.704C151.011 47.152 150.542 47.4933 149.976 47.728C149.422 47.9627 148.808 48.08 148.136 48.08ZM154.225 48V39.6H155.313V41.888L155.201 41.488C155.435 40.848 155.83 40.3627 156.385 40.032C156.939 39.6907 157.627 39.52 158.449 39.52V40.624C158.406 40.624 158.363 40.624 158.321 40.624C158.278 40.6133 158.235 40.608 158.193 40.608C157.307 40.608 156.614 40.88 156.113 41.424C155.611 41.9573 155.361 42.72 155.361 43.712V48H154.225ZM168.162 48.096C167.33 48.096 166.53 47.9627 165.762 47.696C165.005 47.4187 164.418 47.0667 164.002 46.64L164.466 45.728C164.861 46.112 165.389 46.4373 166.05 46.704C166.722 46.96 167.426 47.088 168.162 47.088C168.866 47.088 169.437 47.0027 169.874 46.832C170.322 46.6507 170.647 46.4107 170.85 46.112C171.063 45.8133 171.17 45.4827 171.17 45.12C171.17 44.6827 171.042 44.3307 170.786 44.064C170.541 43.7973 170.215 43.5893 169.81 43.44C169.405 43.28 168.957 43.1413 168.466 43.024C167.975 42.9067 167.485 42.784 166.994 42.656C166.503 42.5173 166.05 42.336 165.634 42.112C165.229 41.888 164.898 41.5947 164.642 41.232C164.397 40.8587 164.274 40.3733 164.274 39.776C164.274 39.2213 164.418 38.7147 164.706 38.256C165.005 37.7867 165.458 37.4133 166.066 37.136C166.674 36.848 167.453 36.704 168.402 36.704C169.031 36.704 169.655 36.7947 170.274 36.976C170.893 37.1467 171.426 37.3867 171.874 37.696L171.474 38.64C170.994 38.32 170.482 38.0853 169.938 37.936C169.405 37.7867 168.887 37.712 168.386 37.712C167.714 37.712 167.159 37.8027 166.722 37.984C166.285 38.1653 165.959 38.4107 165.746 38.72C165.543 39.0187 165.442 39.36 165.442 39.744C165.442 40.1813 165.565 40.5333 165.81 40.8C166.066 41.0667 166.397 41.2747 166.802 41.424C167.218 41.5733 167.671 41.7067 168.162 41.824C168.653 41.9413 169.138 42.0693 169.618 42.208C170.109 42.3467 170.557 42.528 170.962 42.752C171.378 42.9653 171.709 43.2533 171.954 43.616C172.21 43.9787 172.338 44.4533 172.338 45.04C172.338 45.584 172.189 46.0907 171.89 46.56C171.591 47.0187 171.133 47.392 170.514 47.68C169.906 47.9573 169.122 48.096 168.162 48.096ZM178.246 48.08C177.371 48.08 176.603 47.8987 175.942 47.536C175.28 47.1627 174.763 46.656 174.39 46.016C174.016 45.3653 173.83 44.624 173.83 43.792C173.83 42.96 174.006 42.224 174.358 41.584C174.72 40.944 175.211 40.4427 175.83 40.08C176.459 39.7067 177.163 39.52 177.942 39.52C178.731 39.52 179.43 39.7013 180.038 40.064C180.656 40.416 181.142 40.9173 181.494 41.568C181.846 42.208 182.022 42.9493 182.022 43.792C182.022 43.8453 182.016 43.904 182.006 43.968C182.006 44.0213 182.006 44.08 182.006 44.144H174.694V43.296H181.398L180.95 43.632C180.95 43.024 180.816 42.4853 180.55 42.016C180.294 41.536 179.942 41.1627 179.494 40.896C179.046 40.6293 178.528 40.496 177.942 40.496C177.366 40.496 176.848 40.6293 176.39 40.896C175.931 41.1627 175.574 41.536 175.318 42.016C175.062 42.496 174.934 43.0453 174.934 43.664V43.84C174.934 44.48 175.072 45.0453 175.35 45.536C175.638 46.016 176.032 46.3947 176.534 46.672C177.046 46.9387 177.627 47.072 178.278 47.072C178.79 47.072 179.264 46.9813 179.702 46.8C180.15 46.6187 180.534 46.3413 180.854 45.968L181.494 46.704C181.12 47.152 180.651 47.4933 180.086 47.728C179.531 47.9627 178.918 48.08 178.246 48.08ZM184.334 48V39.6H185.422V41.888L185.31 41.488C185.545 40.848 185.939 40.3627 186.494 40.032C187.049 39.6907 187.737 39.52 188.558 39.52V40.624C188.515 40.624 188.473 40.624 188.43 40.624C188.387 40.6133 188.345 40.608 188.302 40.608C187.417 40.608 186.723 40.88 186.222 41.424C185.721 41.9573 185.47 42.72 185.47 43.712V48H184.334ZM193.15 48L189.422 39.6H190.606L194.03 47.392H193.47L196.942 39.6H198.062L194.318 48H193.15ZM199.662 48V39.6H200.798V48H199.662ZM200.238 37.744C200.003 37.744 199.806 37.664 199.646 37.504C199.486 37.344 199.406 37.152 199.406 36.928C199.406 36.704 199.486 36.5173 199.646 36.368C199.806 36.208 200.003 36.128 200.238 36.128C200.473 36.128 200.67 36.2027 200.83 36.352C200.99 36.5013 201.07 36.688 201.07 36.912C201.07 37.1467 200.99 37.344 200.83 37.504C200.681 37.664 200.483 37.744 200.238 37.744ZM207.447 48.08C206.615 48.08 205.868 47.8987 205.207 47.536C204.556 47.1627 204.044 46.656 203.671 46.016C203.298 45.3653 203.111 44.624 203.111 43.792C203.111 42.9493 203.298 42.208 203.671 41.568C204.044 40.928 204.556 40.4267 205.207 40.064C205.868 39.7013 206.615 39.52 207.447 39.52C208.162 39.52 208.807 39.6587 209.383 39.936C209.959 40.2133 210.412 40.6293 210.743 41.184L209.895 41.76C209.607 41.3333 209.25 41.0187 208.823 40.816C208.396 40.6133 207.932 40.512 207.431 40.512C206.834 40.512 206.295 40.6507 205.815 40.928C205.335 41.1947 204.956 41.5733 204.679 42.064C204.402 42.5547 204.263 43.1307 204.263 43.792C204.263 44.4533 204.402 45.0293 204.679 45.52C204.956 46.0107 205.335 46.3947 205.815 46.672C206.295 46.9387 206.834 47.072 207.431 47.072C207.932 47.072 208.396 46.9707 208.823 46.768C209.25 46.5653 209.607 46.256 209.895 45.84L210.743 46.416C210.412 46.96 209.959 47.376 209.383 47.664C208.807 47.9413 208.162 48.08 207.447 48.08ZM216.402 48.08C215.527 48.08 214.759 47.8987 214.098 47.536C213.437 47.1627 212.919 46.656 212.546 46.016C212.173 45.3653 211.986 44.624 211.986 43.792C211.986 42.96 212.162 42.224 212.514 41.584C212.877 40.944 213.367 40.4427 213.986 40.08C214.615 39.7067 215.319 39.52 216.098 39.52C216.887 39.52 217.586 39.7013 218.194 40.064C218.813 40.416 219.298 40.9173 219.65 41.568C220.002 42.208 220.178 42.9493 220.178 43.792C220.178 43.8453 220.173 43.904 220.162 43.968C220.162 44.0213 220.162 44.08 220.162 44.144H212.85V43.296H219.554L219.106 43.632C219.106 43.024 218.973 42.4853 218.706 42.016C218.45 41.536 218.098 41.1627 217.65 40.896C217.202 40.6293 216.685 40.496 216.098 40.496C215.522 40.496 215.005 40.6293 214.546 40.896C214.087 41.1627 213.73 41.536 213.474 42.016C213.218 42.496 213.09 43.0453 213.09 43.664V43.84C213.09 44.48 213.229 45.0453 213.506 45.536C213.794 46.016 214.189 46.3947 214.69 46.672C215.202 46.9387 215.783 47.072 216.434 47.072C216.946 47.072 217.421 46.9813 217.858 46.8C218.306 46.6187 218.69 46.3413 219.01 45.968L219.65 46.704C219.277 47.152 218.807 47.4933 218.242 47.728C217.687 47.9627 217.074 48.08 216.402 48.08Z" fill="#222124"/>
</svg>
