<svg width="168" height="84" viewBox="0 0 168 84" fill="none" xmlns="http://www.w3.org/2000/svg">
<rect opacity="0.6" width="168" height="84" rx="38" fill="#E0E0E0"/>
<circle cx="42" cy="42" r="24" fill="white"/>
<path d="M48 41V43H52V41H48ZM46 47.61C46.96 48.32 48.21 49.26 49.2 50C49.6 49.47 50 48.93 50.4 48.4C49.41 47.66 48.16 46.72 47.2 46C46.8 46.54 46.4 47.08 46 47.61ZM50.4 35.6C50 35.07 49.6 34.53 49.2 34C48.21 34.74 46.96 35.68 46 36.4C46.4 36.93 46.8 37.47 47.2 38C48.16 37.28 49.41 36.35 50.4 35.6ZM34 39C32.9 39 32 39.9 32 41V43C32 44.1 32.9 45 34 45H35V49H37V45H38L43 48V36L38 39H34ZM45.5 42C45.5 40.67 44.92 39.47 44 38.65V45.34C44.92 44.53 45.5 43.33 45.5 42Z" fill="#212529"/>
<path d="M85.736 48.096C84.8827 48.096 84.0933 47.9573 83.368 47.68C82.6533 47.392 82.0293 46.992 81.496 46.48C80.9733 45.968 80.5627 45.3653 80.264 44.672C79.976 43.9787 79.832 43.2213 79.832 42.4C79.832 41.5787 79.976 40.8213 80.264 40.128C80.5627 39.4347 80.9787 38.832 81.512 38.32C82.0453 37.808 82.6693 37.4133 83.384 37.136C84.1093 36.848 84.8987 36.704 85.752 36.704C86.6053 36.704 87.384 36.8373 88.088 37.104C88.8027 37.3707 89.4107 37.776 89.912 38.32L89.176 39.072C88.7067 38.6027 88.1893 38.2667 87.624 38.064C87.0587 37.8613 86.4507 37.76 85.8 37.76C85.1067 37.76 84.4667 37.8773 83.88 38.112C83.304 38.336 82.7973 38.6613 82.36 39.088C81.9333 39.504 81.5973 39.9947 81.352 40.56C81.1173 41.1147 81 41.728 81 42.4C81 43.0613 81.1173 43.6747 81.352 44.24C81.5973 44.8053 81.9333 45.3013 82.36 45.728C82.7973 46.144 83.304 46.4693 83.88 46.704C84.4667 46.928 85.1013 47.04 85.784 47.04C86.424 47.04 87.0267 46.944 87.592 46.752C88.168 46.56 88.696 46.2347 89.176 45.776L89.848 46.672C89.3147 47.1413 88.6907 47.4987 87.976 47.744C87.2613 47.9787 86.5147 48.096 85.736 48.096ZM88.712 46.528V42.4H89.848V46.672L88.712 46.528ZM92.959 48V39.6H94.047V41.888L93.935 41.488C94.1697 40.848 94.5643 40.3627 95.119 40.032C95.6737 39.6907 96.3617 39.52 97.183 39.52V40.624C97.1403 40.624 97.0977 40.624 97.055 40.624C97.0123 40.6133 96.9697 40.608 96.927 40.608C96.0417 40.608 95.3483 40.88 94.847 41.424C94.3457 41.9573 94.095 42.72 94.095 43.712V48H92.959ZM103.895 48V46.144L103.847 45.84V42.736C103.847 42.0213 103.644 41.472 103.239 41.088C102.844 40.704 102.252 40.512 101.463 40.512C100.919 40.512 100.402 40.6027 99.9109 40.784C99.4202 40.9653 99.0042 41.2053 98.6629 41.504L98.1509 40.656C98.5775 40.2933 99.0895 40.016 99.6869 39.824C100.284 39.6213 100.914 39.52 101.575 39.52C102.663 39.52 103.5 39.792 104.087 40.336C104.684 40.8693 104.983 41.6853 104.983 42.784V48H103.895ZM100.999 48.08C100.37 48.08 99.8202 47.9787 99.3509 47.776C98.8922 47.5627 98.5402 47.2747 98.2949 46.912C98.0495 46.5387 97.9269 46.112 97.9269 45.632C97.9269 45.1947 98.0282 44.8 98.2309 44.448C98.4442 44.0853 98.7855 43.7973 99.2549 43.584C99.7349 43.36 100.375 43.248 101.175 43.248H104.071V44.096H101.207C100.396 44.096 99.8309 44.24 99.5109 44.528C99.2015 44.816 99.0469 45.1733 99.0469 45.6C99.0469 46.08 99.2335 46.464 99.6069 46.752C99.9802 47.04 100.503 47.184 101.175 47.184C101.815 47.184 102.364 47.04 102.823 46.752C103.292 46.4533 103.634 46.0267 103.847 45.472L104.103 46.256C103.89 46.8107 103.516 47.2533 102.983 47.584C102.46 47.9147 101.799 48.08 100.999 48.08ZM112.404 48.08C111.679 48.08 111.023 47.9147 110.436 47.584C109.85 47.2427 109.38 46.7573 109.028 46.128C108.687 45.488 108.516 44.7093 108.516 43.792C108.516 42.8747 108.687 42.1013 109.028 41.472C109.37 40.832 109.834 40.3467 110.42 40.016C111.007 39.6853 111.668 39.52 112.404 39.52C113.204 39.52 113.919 39.7013 114.548 40.064C115.188 40.416 115.69 40.9173 116.052 41.568C116.415 42.208 116.596 42.9493 116.596 43.792C116.596 44.6453 116.415 45.392 116.052 46.032C115.69 46.672 115.188 47.1733 114.548 47.536C113.919 47.8987 113.204 48.08 112.404 48.08ZM108.068 51.104V39.6H109.156V42.128L109.044 43.808L109.204 45.504V51.104H108.068ZM112.324 47.072C112.922 47.072 113.455 46.9387 113.924 46.672C114.394 46.3947 114.767 46.0107 115.044 45.52C115.322 45.0187 115.46 44.4427 115.46 43.792C115.46 43.1413 115.322 42.5707 115.044 42.08C114.767 41.5893 114.394 41.2053 113.924 40.928C113.455 40.6507 112.922 40.512 112.324 40.512C111.727 40.512 111.188 40.6507 110.708 40.928C110.239 41.2053 109.866 41.5893 109.588 42.08C109.322 42.5707 109.188 43.1413 109.188 43.792C109.188 44.4427 109.322 45.0187 109.588 45.52C109.866 46.0107 110.239 46.3947 110.708 46.672C111.188 46.9387 111.727 47.072 112.324 47.072ZM123.2 39.52C123.883 39.52 124.48 39.6533 124.992 39.92C125.515 40.176 125.92 40.5707 126.208 41.104C126.507 41.6373 126.656 42.3093 126.656 43.12V48H125.52V43.232C125.52 42.3467 125.296 41.68 124.848 41.232C124.411 40.7733 123.792 40.544 122.992 40.544C122.395 40.544 121.872 40.6667 121.424 40.912C120.987 41.1467 120.645 41.4933 120.4 41.952C120.165 42.4 120.048 42.944 120.048 43.584V48H118.912V36.128H120.048V41.904L119.824 41.472C120.091 40.864 120.517 40.3893 121.104 40.048C121.691 39.696 122.389 39.52 123.2 39.52ZM129.725 48V39.6H130.861V48H129.725ZM130.301 37.744C130.066 37.744 129.869 37.664 129.709 37.504C129.549 37.344 129.469 37.152 129.469 36.928C129.469 36.704 129.549 36.5173 129.709 36.368C129.869 36.208 130.066 36.128 130.301 36.128C130.535 36.128 130.733 36.2027 130.893 36.352C131.053 36.5013 131.133 36.688 131.133 36.912C131.133 37.1467 131.053 37.344 130.893 37.504C130.743 37.664 130.546 37.744 130.301 37.744ZM137.51 48.08C136.678 48.08 135.931 47.8987 135.27 47.536C134.619 47.1627 134.107 46.656 133.734 46.016C133.36 45.3653 133.174 44.624 133.174 43.792C133.174 42.9493 133.36 42.208 133.734 41.568C134.107 40.928 134.619 40.4267 135.27 40.064C135.931 39.7013 136.678 39.52 137.51 39.52C138.224 39.52 138.87 39.6587 139.446 39.936C140.022 40.2133 140.475 40.6293 140.806 41.184L139.958 41.76C139.67 41.3333 139.312 41.0187 138.886 40.816C138.459 40.6133 137.995 40.512 137.494 40.512C136.896 40.512 136.358 40.6507 135.878 40.928C135.398 41.1947 135.019 41.5733 134.742 42.064C134.464 42.5547 134.326 43.1307 134.326 43.792C134.326 44.4533 134.464 45.0293 134.742 45.52C135.019 46.0107 135.398 46.3947 135.878 46.672C136.358 46.9387 136.896 47.072 137.494 47.072C137.995 47.072 138.459 46.9707 138.886 46.768C139.312 46.5653 139.67 46.256 139.958 45.84L140.806 46.416C140.475 46.96 140.022 47.376 139.446 47.664C138.87 47.9413 138.224 48.08 137.51 48.08ZM145.293 48.08C144.6 48.08 143.944 47.984 143.325 47.792C142.706 47.5893 142.221 47.3387 141.869 47.04L142.381 46.144C142.722 46.4 143.16 46.624 143.693 46.816C144.226 46.9973 144.786 47.088 145.373 47.088C146.173 47.088 146.749 46.9653 147.101 46.72C147.453 46.464 147.629 46.128 147.629 45.712C147.629 45.4027 147.528 45.1627 147.325 44.992C147.133 44.8107 146.877 44.6773 146.557 44.592C146.237 44.496 145.88 44.416 145.485 44.352C145.09 44.288 144.696 44.2133 144.301 44.128C143.917 44.0427 143.565 43.92 143.245 43.76C142.925 43.5893 142.664 43.36 142.461 43.072C142.269 42.784 142.173 42.4 142.173 41.92C142.173 41.4613 142.301 41.0507 142.557 40.688C142.813 40.3253 143.186 40.0427 143.677 39.84C144.178 39.6267 144.786 39.52 145.501 39.52C146.045 39.52 146.589 39.5947 147.133 39.744C147.677 39.8827 148.125 40.0693 148.477 40.304L147.981 41.216C147.608 40.96 147.208 40.7787 146.781 40.672C146.354 40.5547 145.928 40.496 145.501 40.496C144.744 40.496 144.184 40.6293 143.821 40.896C143.469 41.152 143.293 41.4827 143.293 41.888C143.293 42.208 143.389 42.4587 143.581 42.64C143.784 42.8213 144.045 42.9653 144.365 43.072C144.696 43.168 145.053 43.248 145.437 43.312C145.832 43.376 146.221 43.456 146.605 43.552C147 43.6373 147.357 43.76 147.677 43.92C148.008 44.0693 148.269 44.288 148.461 44.576C148.664 44.8533 148.765 45.2213 148.765 45.68C148.765 46.1707 148.626 46.5973 148.349 46.96C148.082 47.312 147.688 47.5893 147.165 47.792C146.653 47.984 146.029 48.08 145.293 48.08Z" fill="#222124"/>
</svg>
