<svg width="158" height="262" viewBox="0 0 158 262" fill="none" xmlns="http://www.w3.org/2000/svg">
<rect width="158" height="262" rx="10" fill="black"/>
<path d="M19.8253 26.0696C19.7424 25.8011 19.6281 25.5608 19.4822 25.3487C19.3397 25.1333 19.1674 24.9493 18.9652 24.7969C18.7663 24.6444 18.5376 24.5301 18.2791 24.4538C18.0206 24.3743 17.7389 24.3345 17.4339 24.3345C16.8871 24.3345 16.3999 24.4721 15.9723 24.7472C15.5447 25.0223 15.2083 25.4266 14.9631 25.9602C14.7211 26.4905 14.6001 27.1368 14.6001 27.8991C14.6001 28.6681 14.7211 29.3194 14.9631 29.853C15.205 30.3866 15.5414 30.7926 15.9723 31.071C16.4032 31.3461 16.9036 31.4837 17.4737 31.4837C17.9908 31.4837 18.4382 31.3842 18.8161 31.1854C19.1972 30.9865 19.4905 30.7048 19.696 30.3402C19.9015 29.9723 20.0043 29.5414 20.0043 29.0476L20.4219 29.1122H17.6577V27.6705H21.7891V28.8935C21.7891 29.7652 21.6035 30.5192 21.2322 31.1555C20.861 31.7919 20.3506 32.2824 19.701 32.6271C19.0514 32.9685 18.3056 33.1392 17.4638 33.1392C16.5258 33.1392 15.7022 32.9287 14.9929 32.5078C14.2869 32.0836 13.7351 31.482 13.3374 30.7031C12.9429 29.9209 12.7457 28.9929 12.7457 27.919C12.7457 27.0971 12.8617 26.3629 13.0938 25.7166C13.3291 25.0703 13.6572 24.5218 14.0781 24.071C14.4991 23.617 14.9929 23.2723 15.5597 23.0369C16.1264 22.7983 16.7429 22.679 17.4091 22.679C17.9725 22.679 18.4979 22.7618 18.9851 22.9276C19.4723 23.09 19.9048 23.322 20.2827 23.6236C20.6638 23.9252 20.977 24.2831 21.2223 24.6974C21.4676 25.1117 21.6283 25.5691 21.7045 26.0696H19.8253ZM23.4931 33V25.3636H25.2381V26.6364H25.3176C25.4569 26.1955 25.6955 25.8558 26.0336 25.6172C26.3749 25.3752 26.7644 25.2543 27.2019 25.2543C27.3013 25.2543 27.4123 25.2592 27.535 25.2692C27.6609 25.2758 27.7653 25.2874 27.8482 25.304V26.9595C27.772 26.933 27.651 26.9098 27.4853 26.8899C27.3229 26.8667 27.1654 26.8551 27.013 26.8551C26.6848 26.8551 26.3899 26.9264 26.128 27.0689C25.8695 27.2081 25.6657 27.402 25.5165 27.6506C25.3674 27.8991 25.2928 28.1858 25.2928 28.5107V33H23.4931ZM32.0604 33.1491C31.3146 33.1491 30.6683 32.9851 30.1214 32.657C29.5746 32.3288 29.1503 31.8698 28.8487 31.2798C28.5504 30.6899 28.4013 30.0005 28.4013 29.2116C28.4013 28.4228 28.5504 27.7318 28.8487 27.1385C29.1503 26.5452 29.5746 26.0845 30.1214 25.7564C30.6683 25.4283 31.3146 25.2642 32.0604 25.2642C32.8061 25.2642 33.4524 25.4283 33.9993 25.7564C34.5462 26.0845 34.9688 26.5452 35.267 27.1385C35.5687 27.7318 35.7195 28.4228 35.7195 29.2116C35.7195 30.0005 35.5687 30.6899 35.267 31.2798C34.9688 31.8698 34.5462 32.3288 33.9993 32.657C33.4524 32.9851 32.8061 33.1491 32.0604 33.1491ZM32.0703 31.7074C32.4747 31.7074 32.8127 31.5964 33.0845 31.3743C33.3563 31.1489 33.5585 30.8473 33.6911 30.4695C33.8269 30.0916 33.8949 29.6707 33.8949 29.2067C33.8949 28.7393 33.8269 28.3168 33.6911 27.9389C33.5585 27.5578 33.3563 27.2545 33.0845 27.0291C32.8127 26.8037 32.4747 26.6911 32.0703 26.6911C31.656 26.6911 31.3113 26.8037 31.0362 27.0291C30.7644 27.2545 30.5606 27.5578 30.4247 27.9389C30.2921 28.3168 30.2259 28.7393 30.2259 29.2067C30.2259 29.6707 30.2921 30.0916 30.4247 30.4695C30.5606 30.8473 30.7644 31.1489 31.0362 31.3743C31.3113 31.5964 31.656 31.7074 32.0703 31.7074ZM38.6042 33L36.4466 25.3636H38.2811L39.6234 30.733H39.693L41.0652 25.3636H42.8798L44.252 30.7031H44.3265L45.649 25.3636H47.4885L45.3258 33H43.4515L42.0197 27.8395H41.9153L40.4835 33H38.6042ZM53.3363 35.8636C53.091 35.8636 52.864 35.8438 52.6552 35.804C52.4497 35.7675 52.2856 35.7244 52.163 35.6747L52.5806 34.2727C52.8424 34.349 53.0761 34.3854 53.2816 34.3821C53.4871 34.3788 53.6677 34.3142 53.8235 34.1882C53.9826 34.0656 54.1168 33.8601 54.2262 33.5717L54.3803 33.1591L51.6112 25.3636H53.5202L55.2802 31.1307H55.3597L57.1246 25.3636H59.0387L55.9812 33.9247C55.8387 34.3291 55.6497 34.6754 55.4144 34.9638C55.1791 35.2554 54.8907 35.4775 54.5494 35.63C54.2113 35.7857 53.8069 35.8636 53.3363 35.8636ZM63.3553 33.1491C62.6096 33.1491 61.9632 32.9851 61.4164 32.657C60.8695 32.3288 60.4453 31.8698 60.1436 31.2798C59.8453 30.6899 59.6962 30.0005 59.6962 29.2116C59.6962 28.4228 59.8453 27.7318 60.1436 27.1385C60.4453 26.5452 60.8695 26.0845 61.4164 25.7564C61.9632 25.4283 62.6096 25.2642 63.3553 25.2642C64.101 25.2642 64.7473 25.4283 65.2942 25.7564C65.8411 26.0845 66.2637 26.5452 66.562 27.1385C66.8636 27.7318 67.0144 28.4228 67.0144 29.2116C67.0144 30.0005 66.8636 30.6899 66.562 31.2798C66.2637 31.8698 65.8411 32.3288 65.2942 32.657C64.7473 32.9851 64.101 33.1491 63.3553 33.1491ZM63.3652 31.7074C63.7696 31.7074 64.1077 31.5964 64.3794 31.3743C64.6512 31.1489 64.8534 30.8473 64.986 30.4695C65.1219 30.0916 65.1898 29.6707 65.1898 29.2067C65.1898 28.7393 65.1219 28.3168 64.986 27.9389C64.8534 27.5578 64.6512 27.2545 64.3794 27.0291C64.1077 26.8037 63.7696 26.6911 63.3652 26.6911C62.9509 26.6911 62.6062 26.8037 62.3311 27.0291C62.0594 27.2545 61.8555 27.5578 61.7196 27.9389C61.5871 28.3168 61.5208 28.7393 61.5208 29.2067C61.5208 29.6707 61.5871 30.0916 61.7196 30.4695C61.8555 30.8473 62.0594 31.1489 62.3311 31.3743C62.6062 31.5964 62.9509 31.7074 63.3652 31.7074ZM73.4091 29.7884V25.3636H75.2088V33H73.4638V31.6428H73.3842C73.2119 32.0703 72.9285 32.42 72.5341 32.6918C72.143 32.9635 71.6607 33.0994 71.0874 33.0994C70.5869 33.0994 70.1444 32.9884 69.7599 32.7663C69.3788 32.541 69.0805 32.2145 68.8651 31.7869C68.6496 31.3561 68.5419 30.8357 68.5419 30.2259V25.3636H70.3416V29.9474C70.3416 30.4313 70.4742 30.8158 70.7393 31.1009C71.0045 31.3859 71.3525 31.5284 71.7834 31.5284C72.0485 31.5284 72.3054 31.4638 72.554 31.3345C72.8026 31.2053 73.0064 31.013 73.1655 30.7578C73.3279 30.4993 73.4091 30.1761 73.4091 29.7884ZM77.0595 33V25.3636H78.8045V26.6364H78.8841C79.0233 26.1955 79.2619 25.8558 79.6 25.6172C79.9413 25.3752 80.3308 25.2543 80.7683 25.2543C80.8677 25.2543 80.9788 25.2592 81.1014 25.2692C81.2273 25.2758 81.3317 25.2874 81.4146 25.304V26.9595C81.3384 26.933 81.2174 26.9098 81.0517 26.8899C80.8893 26.8667 80.7318 26.8551 80.5794 26.8551C80.2512 26.8551 79.9563 26.9264 79.6944 27.0689C79.4359 27.2081 79.2321 27.402 79.0829 27.6506C78.9338 27.8991 78.8592 28.1858 78.8592 28.5107V33H77.0595ZM13.0043 53V42.8182H14.804V46.6264H14.8786C14.9714 46.4408 15.1023 46.2436 15.2713 46.0348C15.4403 45.8227 15.669 45.642 15.9574 45.4929C16.2457 45.3404 16.6136 45.2642 17.0611 45.2642C17.651 45.2642 18.183 45.415 18.657 45.7166C19.1342 46.0149 19.5121 46.4574 19.7905 47.044C20.0722 47.6274 20.2131 48.3433 20.2131 49.1918C20.2131 50.0303 20.0755 50.7429 19.8004 51.3295C19.5253 51.9162 19.1508 52.3636 18.6768 52.6719C18.2029 52.9801 17.666 53.1342 17.0661 53.1342C16.6286 53.1342 16.2656 53.0613 15.9773 52.9155C15.6889 52.7696 15.4569 52.594 15.2812 52.3885C15.1089 52.1797 14.9747 51.9825 14.8786 51.7969H14.7741V53H13.0043ZM14.7692 49.1818C14.7692 49.6757 14.8388 50.1082 14.978 50.4794C15.1205 50.8506 15.3243 51.1406 15.5895 51.3494C15.858 51.5549 16.1828 51.6577 16.5639 51.6577C16.9616 51.6577 17.2947 51.5516 17.5632 51.3395C17.8317 51.1241 18.0339 50.8307 18.1697 50.4595C18.3089 50.085 18.3786 49.6591 18.3786 49.1818C18.3786 48.7079 18.3106 48.2869 18.1747 47.919C18.0388 47.5511 17.8366 47.2628 17.5682 47.054C17.2997 46.8452 16.965 46.7408 16.5639 46.7408C16.1795 46.7408 15.853 46.8419 15.5845 47.044C15.3161 47.2462 15.1122 47.5296 14.973 47.8942C14.8371 48.2588 14.7692 48.688 14.7692 49.1818ZM26.6103 49.7884V45.3636H28.41V53H26.665V51.6428H26.5854C26.4131 52.0703 26.1297 52.42 25.7353 52.6918C25.3442 52.9635 24.8619 53.0994 24.2885 53.0994C23.7881 53.0994 23.3456 52.9884 22.9611 52.7663C22.58 52.541 22.2817 52.2145 22.0662 51.7869C21.8508 51.3561 21.7431 50.8357 21.7431 50.2259V45.3636H23.5428V49.9474C23.5428 50.4313 23.6754 50.8158 23.9405 51.1009C24.2057 51.3859 24.5537 51.5284 24.9846 51.5284C25.2497 51.5284 25.5066 51.4638 25.7551 51.3345C26.0037 51.2053 26.2076 51.013 26.3667 50.7578C26.5291 50.4993 26.6103 50.1761 26.6103 49.7884ZM36.2962 47.3821L34.6555 47.5611C34.6091 47.3954 34.5279 47.2396 34.4119 47.0938C34.2992 46.9479 34.1468 46.8303 33.9545 46.7408C33.7623 46.6513 33.527 46.6065 33.2486 46.6065C32.8741 46.6065 32.5592 46.6877 32.304 46.8501C32.0521 47.0125 31.9278 47.223 31.9311 47.4815C31.9278 47.7036 32.009 47.8842 32.1747 48.0234C32.3438 48.1626 32.6222 48.277 33.0099 48.3665L34.3125 48.6449C35.035 48.8007 35.572 49.0476 35.9233 49.3857C36.2779 49.7237 36.4569 50.1662 36.4602 50.7131C36.4569 51.1937 36.3161 51.6179 36.0376 51.9858C35.7625 52.3504 35.3797 52.6354 34.8892 52.8409C34.3987 53.0464 33.8352 53.1491 33.1989 53.1491C32.2642 53.1491 31.5118 52.9536 30.9418 52.5625C30.3717 52.1681 30.032 51.6196 29.9226 50.9169L31.6776 50.7479C31.7571 51.0926 31.9261 51.3527 32.1847 51.5284C32.4432 51.7041 32.7796 51.7919 33.1939 51.7919C33.6214 51.7919 33.9645 51.7041 34.223 51.5284C34.4848 51.3527 34.6158 51.1357 34.6158 50.8771C34.6158 50.6584 34.5313 50.4777 34.3622 50.3352C34.1965 50.1927 33.938 50.0833 33.5866 50.0071L32.2841 49.7337C31.5516 49.5812 31.0097 49.3243 30.6584 48.9631C30.3071 48.5985 30.133 48.1378 30.1364 47.581C30.133 47.1103 30.2607 46.7027 30.5192 46.358C30.781 46.0099 31.1439 45.7415 31.608 45.5526C32.0753 45.3603 32.6139 45.2642 33.2237 45.2642C34.1186 45.2642 34.8229 45.4548 35.3366 45.8359C35.8537 46.2171 36.1735 46.7325 36.2962 47.3821ZM37.9442 53V45.3636H39.744V53H37.9442ZM38.8491 44.2798C38.564 44.2798 38.3188 44.1854 38.1133 43.9964C37.9078 43.8042 37.805 43.5739 37.805 43.3054C37.805 43.0336 37.9078 42.8033 38.1133 42.6143C38.3188 42.4221 38.564 42.326 38.8491 42.326C39.1374 42.326 39.3827 42.4221 39.5849 42.6143C39.7904 42.8033 39.8931 43.0336 39.8931 43.3054C39.8931 43.5739 39.7904 43.8042 39.5849 43.9964C39.3827 44.1854 39.1374 44.2798 38.8491 44.2798ZM43.3944 48.5256V53H41.5946V45.3636H43.3148V46.6612H43.4043C43.58 46.2337 43.86 45.8939 44.2445 45.642C44.6323 45.3902 45.1112 45.2642 45.6813 45.2642C46.2083 45.2642 46.6673 45.3769 47.0584 45.6023C47.4528 45.8277 47.7578 46.1541 47.9732 46.5817C48.1919 47.0092 48.2997 47.5279 48.2963 48.1378V53H46.4966V48.4162C46.4966 47.9058 46.3641 47.5064 46.0989 47.218C45.8371 46.9297 45.4741 46.7855 45.0101 46.7855C44.6953 46.7855 44.4152 46.8551 44.1699 46.9943C43.928 47.1302 43.7374 47.3274 43.5982 47.5859C43.4623 47.8445 43.3944 48.1577 43.3944 48.5256ZM53.5066 53.1491C52.7409 53.1491 52.0797 52.9901 51.5229 52.6719C50.9694 52.3504 50.5435 51.8963 50.2452 51.3097C49.9469 50.7197 49.7978 50.0253 49.7978 49.2266C49.7978 48.4411 49.9469 47.7517 50.2452 47.1584C50.5468 46.5618 50.9677 46.0978 51.508 45.7663C52.0482 45.4316 52.6829 45.2642 53.4121 45.2642C53.8828 45.2642 54.3269 45.3404 54.7445 45.4929C55.1654 45.642 55.5366 45.8741 55.8581 46.1889C56.1829 46.5038 56.4382 46.9048 56.6238 47.392C56.8094 47.8759 56.9022 48.4527 56.9022 49.1222V49.674H50.6429V48.4609H55.177C55.1737 48.1162 55.0991 47.8097 54.9533 47.5412C54.8075 47.2694 54.6036 47.0556 54.3418 46.8999C54.0833 46.7441 53.7817 46.6662 53.437 46.6662C53.0691 46.6662 52.7459 46.7557 52.4675 46.9347C52.1891 47.1103 51.972 47.3423 51.8162 47.6307C51.6638 47.9157 51.5859 48.2289 51.5826 48.5703V49.6293C51.5826 50.0734 51.6638 50.4545 51.8262 50.7727C51.9886 51.0876 52.2156 51.3295 52.5073 51.4986C52.7989 51.6643 53.1403 51.7472 53.5314 51.7472C53.7933 51.7472 54.0302 51.7107 54.2424 51.6378C54.4545 51.5616 54.6384 51.4505 54.7942 51.3047C54.95 51.1589 55.0676 50.9782 55.1472 50.7628L56.8276 50.9517C56.7215 51.3958 56.5194 51.7836 56.2211 52.1151C55.9261 52.4432 55.5482 52.6984 55.0875 52.8807C54.6268 53.0597 54.0998 53.1491 53.5066 53.1491ZM64.4602 47.3821L62.8196 47.5611C62.7732 47.3954 62.692 47.2396 62.576 47.0938C62.4633 46.9479 62.3108 46.8303 62.1186 46.7408C61.9264 46.6513 61.6911 46.6065 61.4126 46.6065C61.0381 46.6065 60.7232 46.6877 60.468 46.8501C60.2161 47.0125 60.0919 47.223 60.0952 47.4815C60.0919 47.7036 60.1731 47.8842 60.3388 48.0234C60.5078 48.1626 60.7862 48.277 61.174 48.3665L62.4766 48.6449C63.1991 48.8007 63.736 49.0476 64.0874 49.3857C64.442 49.7237 64.621 50.1662 64.6243 50.7131C64.621 51.1937 64.4801 51.6179 64.2017 51.9858C63.9266 52.3504 63.5438 52.6354 63.0533 52.8409C62.5627 53.0464 61.9993 53.1491 61.3629 53.1491C60.4283 53.1491 59.6759 52.9536 59.1058 52.5625C58.5357 52.1681 58.196 51.6196 58.0866 50.9169L59.8416 50.7479C59.9212 51.0926 60.0902 51.3527 60.3487 51.5284C60.6072 51.7041 60.9437 51.7919 61.358 51.7919C61.7855 51.7919 62.1286 51.7041 62.3871 51.5284C62.6489 51.3527 62.7798 51.1357 62.7798 50.8771C62.7798 50.6584 62.6953 50.4777 62.5263 50.3352C62.3606 50.1927 62.102 50.0833 61.7507 50.0071L60.4482 49.7337C59.7157 49.5812 59.1738 49.3243 58.8224 48.9631C58.4711 48.5985 58.2971 48.1378 58.3004 47.581C58.2971 47.1103 58.4247 46.7027 58.6832 46.358C58.9451 46.0099 59.308 45.7415 59.772 45.5526C60.2393 45.3603 60.7779 45.2642 61.3878 45.2642C62.2827 45.2642 62.987 45.4548 63.5007 45.8359C64.0178 46.2171 64.3376 46.7325 64.4602 47.3821ZM72.1438 47.3821L70.5032 47.5611C70.4568 47.3954 70.3756 47.2396 70.2596 47.0938C70.1469 46.9479 69.9944 46.8303 69.8022 46.7408C69.61 46.6513 69.3746 46.6065 69.0962 46.6065C68.7217 46.6065 68.4068 46.6877 68.1516 46.8501C67.8997 47.0125 67.7754 47.223 67.7788 47.4815C67.7754 47.7036 67.8567 47.8842 68.0224 48.0234C68.1914 48.1626 68.4698 48.277 68.8576 48.3665L70.1602 48.6449C70.8827 48.8007 71.4196 49.0476 71.771 49.3857C72.1256 49.7237 72.3046 50.1662 72.3079 50.7131C72.3046 51.1937 72.1637 51.6179 71.8853 51.9858C71.6102 52.3504 71.2274 52.6354 70.7369 52.8409C70.2463 53.0464 69.6829 53.1491 69.0465 53.1491C68.1119 53.1491 67.3595 52.9536 66.7894 52.5625C66.2193 52.1681 65.8796 51.6196 65.7702 50.9169L67.5252 50.7479C67.6048 51.0926 67.7738 51.3527 68.0323 51.5284C68.2908 51.7041 68.6272 51.7919 69.0415 51.7919C69.4691 51.7919 69.8121 51.7041 70.0707 51.5284C70.3325 51.3527 70.4634 51.1357 70.4634 50.8771C70.4634 50.6584 70.3789 50.4777 70.2099 50.3352C70.0442 50.1927 69.7856 50.0833 69.4343 50.0071L68.1317 49.7337C67.3993 49.5812 66.8574 49.3243 66.506 48.9631C66.1547 48.5985 65.9807 48.1378 65.984 47.581C65.9807 47.1103 66.1083 46.7027 66.3668 46.358C66.6287 46.0099 66.9916 45.7415 67.4556 45.5526C67.9229 45.3603 68.4615 45.2642 69.0714 45.2642C69.9663 45.2642 70.6706 45.4548 71.1843 45.8359C71.7013 46.2171 72.0212 46.7325 72.1438 47.3821ZM78.8406 53L76.6829 45.3636H78.5174L79.8597 50.733H79.9293L81.3015 45.3636H83.1161L84.4883 50.7031H84.5629L85.8853 45.3636H87.7248L85.5621 53H83.6879L82.256 47.8395H82.1516L80.7198 53H78.8406ZM88.9814 53V45.3636H90.7811V53H88.9814ZM89.8862 44.2798C89.6011 44.2798 89.3559 44.1854 89.1504 43.9964C88.9449 43.8042 88.8422 43.5739 88.8422 43.3054C88.8422 43.0336 88.9449 42.8033 89.1504 42.6143C89.3559 42.4221 89.6011 42.326 89.8862 42.326C90.1745 42.326 90.4198 42.4221 90.622 42.6143C90.8275 42.8033 90.9302 43.0336 90.9302 43.3054C90.9302 43.5739 90.8275 43.8042 90.622 43.9964C90.4198 44.1854 90.1745 44.2798 89.8862 44.2798ZM96.445 45.3636V46.7557H92.055V45.3636H96.445ZM93.1388 43.5341H94.9386V50.7031C94.9386 50.9451 94.975 51.1307 95.0479 51.2599C95.1242 51.3859 95.2236 51.4721 95.3462 51.5185C95.4689 51.5649 95.6048 51.5881 95.7539 51.5881C95.8666 51.5881 95.9693 51.5798 96.0621 51.5632C96.1583 51.5466 96.2312 51.5317 96.2809 51.5185L96.5842 52.9254C96.488 52.9586 96.3505 52.995 96.1715 53.0348C95.9959 53.0746 95.7804 53.0978 95.5252 53.1044C95.0745 53.1177 94.6684 53.0497 94.3072 52.9006C93.9459 52.7481 93.6592 52.5128 93.4471 52.1946C93.2383 51.8764 93.1355 51.4787 93.1388 51.0014V43.5341ZM99.9139 48.5256V53H98.1142V42.8182H99.8741V46.6612H99.9636C100.143 46.2304 100.419 45.8906 100.794 45.642C101.172 45.3902 101.652 45.2642 102.236 45.2642C102.766 45.2642 103.228 45.3752 103.623 45.5973C104.017 45.8194 104.322 46.1442 104.537 46.5717C104.756 46.9993 104.866 47.5213 104.866 48.1378V53H103.066V48.4162C103.066 47.9025 102.933 47.5031 102.668 47.218C102.406 46.9297 102.038 46.7855 101.564 46.7855C101.246 46.7855 100.961 46.8551 100.709 46.9943C100.461 47.1302 100.265 47.3274 100.123 47.5859C99.9835 47.8445 99.9139 48.1577 99.9139 48.5256ZM113.986 45.3636V46.7557H109.596V45.3636H113.986ZM110.68 43.5341H112.48V50.7031C112.48 50.9451 112.516 51.1307 112.589 51.2599C112.665 51.3859 112.765 51.4721 112.887 51.5185C113.01 51.5649 113.146 51.5881 113.295 51.5881C113.408 51.5881 113.51 51.5798 113.603 51.5632C113.699 51.5466 113.772 51.5317 113.822 51.5185L114.125 52.9254C114.029 52.9586 113.892 52.995 113.713 53.0348C113.537 53.0746 113.321 53.0978 113.066 53.1044C112.615 53.1177 112.209 53.0497 111.848 52.9006C111.487 52.7481 111.2 52.5128 110.988 52.1946C110.779 51.8764 110.677 51.4787 110.68 51.0014V43.5341ZM117.455 48.5256V53H115.655V42.8182H117.415V46.6612H117.505C117.684 46.2304 117.96 45.8906 118.335 45.642C118.713 45.3902 119.193 45.2642 119.777 45.2642C120.307 45.2642 120.769 45.3752 121.164 45.5973C121.558 45.8194 121.863 46.1442 122.078 46.5717C122.297 46.9993 122.407 47.5213 122.407 48.1378V53H120.607V48.4162C120.607 47.9025 120.474 47.5031 120.209 47.218C119.947 46.9297 119.579 46.7855 119.105 46.7855C118.787 46.7855 118.502 46.8551 118.25 46.9943C118.002 47.1302 117.806 47.3274 117.664 47.5859C117.525 47.8445 117.455 48.1577 117.455 48.5256ZM127.622 53.1491C126.856 53.1491 126.195 52.9901 125.638 52.6719C125.085 52.3504 124.659 51.8963 124.36 51.3097C124.062 50.7197 123.913 50.0253 123.913 49.2266C123.913 48.4411 124.062 47.7517 124.36 47.1584C124.662 46.5618 125.083 46.0978 125.623 45.7663C126.163 45.4316 126.798 45.2642 127.527 45.2642C127.998 45.2642 128.442 45.3404 128.86 45.4929C129.281 45.642 129.652 45.8741 129.973 46.1889C130.298 46.5038 130.553 46.9048 130.739 47.392C130.925 47.8759 131.017 48.4527 131.017 49.1222V49.674H124.758V48.4609H129.292C129.289 48.1162 129.214 47.8097 129.069 47.5412C128.923 47.2694 128.719 47.0556 128.457 46.8999C128.199 46.7441 127.897 46.6662 127.552 46.6662C127.184 46.6662 126.861 46.7557 126.583 46.9347C126.304 47.1103 126.087 47.3423 125.931 47.6307C125.779 47.9157 125.701 48.2289 125.698 48.5703V49.6293C125.698 50.0734 125.779 50.4545 125.941 50.7727C126.104 51.0876 126.331 51.3295 126.623 51.4986C126.914 51.6643 127.256 51.7472 127.647 51.7472C127.908 51.7472 128.145 51.7107 128.358 51.6378C128.57 51.5616 128.754 51.4505 128.909 51.3047C129.065 51.1589 129.183 50.9782 129.262 50.7628L130.943 50.9517C130.837 51.3958 130.635 51.7836 130.336 52.1151C130.041 52.4432 129.663 52.6984 129.203 52.8807C128.742 53.0597 128.215 53.1491 127.622 53.1491ZM13.0043 73V62.8182H14.804V66.6264H14.8786C14.9714 66.4408 15.1023 66.2436 15.2713 66.0348C15.4403 65.8227 15.669 65.642 15.9574 65.4929C16.2457 65.3404 16.6136 65.2642 17.0611 65.2642C17.651 65.2642 18.183 65.415 18.657 65.7166C19.1342 66.0149 19.5121 66.4574 19.7905 67.044C20.0722 67.6274 20.2131 68.3433 20.2131 69.1918C20.2131 70.0303 20.0755 70.7429 19.8004 71.3295C19.5253 71.9162 19.1508 72.3636 18.6768 72.6719C18.2029 72.9801 17.666 73.1342 17.0661 73.1342C16.6286 73.1342 16.2656 73.0613 15.9773 72.9155C15.6889 72.7696 15.4569 72.594 15.2812 72.3885C15.1089 72.1797 14.9747 71.9825 14.8786 71.7969H14.7741V73H13.0043ZM14.7692 69.1818C14.7692 69.6757 14.8388 70.1082 14.978 70.4794C15.1205 70.8506 15.3243 71.1406 15.5895 71.3494C15.858 71.5549 16.1828 71.6577 16.5639 71.6577C16.9616 71.6577 17.2947 71.5516 17.5632 71.3395C17.8317 71.1241 18.0339 70.8307 18.1697 70.4595C18.3089 70.085 18.3786 69.6591 18.3786 69.1818C18.3786 68.7079 18.3106 68.2869 18.1747 67.919C18.0388 67.5511 17.8366 67.2628 17.5682 67.054C17.2997 66.8452 16.965 66.7408 16.5639 66.7408C16.1795 66.7408 15.853 66.8419 15.5845 67.044C15.3161 67.2462 15.1122 67.5296 14.973 67.8942C14.8371 68.2588 14.7692 68.688 14.7692 69.1818ZM25.1238 73.1491C24.3581 73.1491 23.6969 72.9901 23.1401 72.6719C22.5866 72.3504 22.1607 71.8963 21.8624 71.3097C21.5641 70.7197 21.415 70.0253 21.415 69.2266C21.415 68.4411 21.5641 67.7517 21.8624 67.1584C22.164 66.5618 22.5849 66.0978 23.1252 65.7663C23.6654 65.4316 24.3001 65.2642 25.0293 65.2642C25.4999 65.2642 25.9441 65.3404 26.3617 65.4929C26.7826 65.642 27.1538 65.8741 27.4753 66.1889C27.8001 66.5038 28.0553 66.9048 28.2409 67.392C28.4266 67.8759 28.5194 68.4527 28.5194 69.1222V69.674H22.2601V68.4609H26.7942C26.7909 68.1162 26.7163 67.8097 26.5705 67.5412C26.4247 67.2694 26.2208 67.0556 25.959 66.8999C25.7005 66.7441 25.3989 66.6662 25.0542 66.6662C24.6863 66.6662 24.3631 66.7557 24.0847 66.9347C23.8063 67.1103 23.5892 67.3423 23.4334 67.6307C23.281 67.9157 23.2031 68.2289 23.1998 68.5703V69.6293C23.1998 70.0734 23.281 70.4545 23.4434 70.7727C23.6058 71.0876 23.8328 71.3295 24.1245 71.4986C24.4161 71.6643 24.7575 71.7472 25.1486 71.7472C25.4105 71.7472 25.6474 71.7107 25.8596 71.6378C26.0717 71.5616 26.2556 71.4505 26.4114 71.3047C26.5672 71.1589 26.6848 70.9782 26.7644 70.7628L28.4448 70.9517C28.3387 71.3958 28.1365 71.7836 27.8382 72.1151C27.5433 72.4432 27.1654 72.6984 26.7047 72.8807C26.244 73.0597 25.717 73.1491 25.1238 73.1491ZM36.0774 67.3821L34.4368 67.5611C34.3904 67.3954 34.3092 67.2396 34.1932 67.0938C34.0805 66.9479 33.928 66.8303 33.7358 66.7408C33.5436 66.6513 33.3082 66.6065 33.0298 66.6065C32.6553 66.6065 32.3404 66.6877 32.0852 66.8501C31.8333 67.0125 31.709 67.223 31.7124 67.4815C31.709 67.7036 31.7902 67.8842 31.956 68.0234C32.125 68.1626 32.4034 68.277 32.7912 68.3665L34.0938 68.6449C34.8163 68.8007 35.3532 69.0476 35.7045 69.3857C36.0592 69.7237 36.2382 70.1662 36.2415 70.7131C36.2382 71.1937 36.0973 71.6179 35.8189 71.9858C35.5438 72.3504 35.161 72.6354 34.6705 72.8409C34.1799 73.0464 33.6165 73.1491 32.9801 73.1491C32.0455 73.1491 31.2931 72.9536 30.723 72.5625C30.1529 72.1681 29.8132 71.6196 29.7038 70.9169L31.4588 70.7479C31.5384 71.0926 31.7074 71.3527 31.9659 71.5284C32.2244 71.7041 32.5608 71.7919 32.9751 71.7919C33.4027 71.7919 33.7457 71.7041 34.0043 71.5284C34.2661 71.3527 34.397 71.1357 34.397 70.8771C34.397 70.6584 34.3125 70.4777 34.1435 70.3352C33.9777 70.1927 33.7192 70.0833 33.3679 70.0071L32.0653 69.7337C31.3329 69.5812 30.791 69.3243 30.4396 68.9631C30.0883 68.5985 29.9143 68.1378 29.9176 67.581C29.9143 67.1103 30.0419 66.7027 30.3004 66.358C30.5623 66.0099 30.9252 65.7415 31.3892 65.5526C31.8565 65.3603 32.3951 65.2642 33.005 65.2642C33.8999 65.2642 34.6042 65.4548 35.1179 65.8359C35.6349 66.2171 35.9548 66.7325 36.0774 67.3821ZM41.5387 65.3636V66.7557H37.1488V65.3636H41.5387ZM38.2326 63.5341H40.0323V70.7031C40.0323 70.9451 40.0688 71.1307 40.1417 71.2599C40.2179 71.3859 40.3174 71.4721 40.44 71.5185C40.5626 71.5649 40.6985 71.5881 40.8477 71.5881C40.9603 71.5881 41.0631 71.5798 41.1559 71.5632C41.252 71.5466 41.3249 71.5317 41.3746 71.5185L41.6779 72.9254C41.5818 72.9586 41.4442 72.995 41.2653 73.0348C41.0896 73.0746 40.8742 73.0978 40.619 73.1044C40.1682 73.1177 39.7622 73.0497 39.4009 72.9006C39.0397 72.7481 38.753 72.5128 38.5408 72.1946C38.332 71.8764 38.2293 71.4787 38.2326 71.0014V63.5341ZM48.0925 73L45.9348 65.3636H47.7694L49.1117 70.733H49.1813L50.5534 65.3636H52.3681L53.7402 70.7031H53.8148L55.1373 65.3636H56.9767L54.8141 73H52.9398L51.508 67.8395H51.4036L49.9718 73H48.0925ZM61.3952 73.1491C60.6296 73.1491 59.9684 72.9901 59.4116 72.6719C58.8581 72.3504 58.4322 71.8963 58.1339 71.3097C57.8356 70.7197 57.6864 70.0253 57.6864 69.2266C57.6864 68.4411 57.8356 67.7517 58.1339 67.1584C58.4355 66.5618 58.8564 66.0978 59.3967 65.7663C59.9369 65.4316 60.5716 65.2642 61.3008 65.2642C61.7714 65.2642 62.2156 65.3404 62.6332 65.4929C63.0541 65.642 63.4253 65.8741 63.7468 66.1889C64.0716 66.5038 64.3268 66.9048 64.5124 67.392C64.698 67.8759 64.7908 68.4527 64.7908 69.1222V69.674H58.5316V68.4609H63.0657C63.0624 68.1162 62.9878 67.8097 62.842 67.5412C62.6961 67.2694 62.4923 67.0556 62.2305 66.8999C61.9719 66.7441 61.6703 66.6662 61.3256 66.6662C60.9577 66.6662 60.6346 66.7557 60.3562 66.9347C60.0778 67.1103 59.8607 67.3423 59.7049 67.6307C59.5524 67.9157 59.4746 68.2289 59.4712 68.5703V69.6293C59.4712 70.0734 59.5524 70.4545 59.7148 70.7727C59.8772 71.0876 60.1043 71.3295 60.396 71.4986C60.6876 71.6643 61.029 71.7472 61.4201 71.7472C61.6819 71.7472 61.9189 71.7107 62.131 71.6378C62.3432 71.5616 62.5271 71.4505 62.6829 71.3047C62.8387 71.1589 62.9563 70.9782 63.0359 70.7628L64.7163 70.9517C64.6102 71.3958 64.408 71.7836 64.1097 72.1151C63.8147 72.4432 63.4369 72.6984 62.9762 72.8807C62.5155 73.0597 61.9885 73.1491 61.3952 73.1491ZM66.3929 73V62.8182H68.1926V66.6264H68.2672C68.36 66.4408 68.4909 66.2436 68.66 66.0348C68.829 65.8227 69.0577 65.642 69.3461 65.4929C69.6344 65.3404 70.0023 65.2642 70.4498 65.2642C71.0397 65.2642 71.5717 65.415 72.0456 65.7166C72.5229 66.0149 72.9007 66.4574 73.1792 67.044C73.4609 67.6274 73.6017 68.3433 73.6017 69.1918C73.6017 70.0303 73.4642 70.7429 73.1891 71.3295C72.914 71.9162 72.5395 72.3636 72.0655 72.6719C71.5916 72.9801 71.0546 73.1342 70.4547 73.1342C70.0172 73.1342 69.6543 73.0613 69.3659 72.9155C69.0776 72.7696 68.8456 72.594 68.6699 72.3885C68.4976 72.1797 68.3633 71.9825 68.2672 71.7969H68.1628V73H66.3929ZM68.1578 69.1818C68.1578 69.6757 68.2275 70.1082 68.3667 70.4794C68.5092 70.8506 68.713 71.1406 68.9782 71.3494C69.2466 71.5549 69.5714 71.6577 69.9526 71.6577C70.3503 71.6577 70.6834 71.5516 70.9519 71.3395C71.2203 71.1241 71.4225 70.8307 71.5584 70.4595C71.6976 70.085 71.7672 69.6591 71.7672 69.1818C71.7672 68.7079 71.6993 68.2869 71.5634 67.919C71.4275 67.5511 71.2253 67.2628 70.9569 67.054C70.6884 66.8452 70.3536 66.7408 69.9526 66.7408C69.5681 66.7408 69.2417 66.8419 68.9732 67.044C68.7047 67.2462 68.5009 67.5296 68.3617 67.8942C68.2258 68.2588 68.1578 68.688 68.1578 69.1818ZM15.1222 93.1541C14.6383 93.1541 14.2024 93.0679 13.8146 92.8956C13.4302 92.7199 13.1252 92.4614 12.8999 92.12C12.6778 91.7786 12.5668 91.3577 12.5668 90.8572C12.5668 90.4264 12.6463 90.0701 12.8054 89.7884C12.9645 89.5066 13.1816 89.2812 13.4567 89.1122C13.7318 88.9432 14.0417 88.8156 14.3864 88.7294C14.7344 88.6399 15.094 88.5753 15.4652 88.5355C15.9126 88.4891 16.2756 88.4477 16.554 88.4112C16.8324 88.3714 17.0346 88.3118 17.1605 88.2322C17.2898 88.1494 17.3544 88.0218 17.3544 87.8494V87.8196C17.3544 87.4451 17.2434 87.1551 17.0213 86.9496C16.7992 86.7441 16.4794 86.6413 16.0618 86.6413C15.621 86.6413 15.2713 86.7375 15.0128 86.9297C14.7576 87.1219 14.5852 87.349 14.4957 87.6108L12.8153 87.3722C12.9479 86.9081 13.1667 86.5204 13.4716 86.2088C13.7765 85.8939 14.1494 85.6586 14.5902 85.5028C15.031 85.3438 15.5182 85.2642 16.0518 85.2642C16.4197 85.2642 16.786 85.3073 17.1506 85.3935C17.5152 85.4796 17.8482 85.6222 18.1499 85.821C18.4515 86.0166 18.6934 86.2834 18.8757 86.6214C19.0613 86.9595 19.1541 87.3821 19.1541 87.8892V93H17.424V91.951H17.3643C17.255 92.1631 17.1009 92.362 16.902 92.5476C16.7064 92.7299 16.4595 92.8774 16.1612 92.9901C15.8662 93.0994 15.5199 93.1541 15.1222 93.1541ZM15.5895 91.8317C15.9508 91.8317 16.264 91.7604 16.5291 91.6179C16.7943 91.4721 16.9981 91.2798 17.1406 91.0412C17.2865 90.8026 17.3594 90.5424 17.3594 90.2607V89.3608C17.303 89.4072 17.2069 89.4503 17.071 89.4901C16.9384 89.5298 16.7893 89.5646 16.6236 89.5945C16.4579 89.6243 16.2938 89.6508 16.1314 89.674C15.969 89.6972 15.8281 89.7171 15.7088 89.7337C15.4403 89.7701 15.2 89.8298 14.9879 89.9126C14.7758 89.9955 14.6084 90.1115 14.4858 90.2607C14.3632 90.4065 14.3018 90.5954 14.3018 90.8274C14.3018 91.1589 14.4228 91.4091 14.6648 91.5781C14.9067 91.7472 15.215 91.8317 15.5895 91.8317ZM20.9638 95.8636V85.3636H22.7337V86.6264H22.8381C22.9309 86.4408 23.0618 86.2436 23.2308 86.0348C23.3999 85.8227 23.6286 85.642 23.9169 85.4929C24.2053 85.3404 24.5732 85.2642 25.0206 85.2642C25.6106 85.2642 26.1425 85.415 26.6165 85.7166C27.0938 86.0149 27.4716 86.4574 27.75 87.044C28.0317 87.6274 28.1726 88.3433 28.1726 89.1918C28.1726 90.0303 28.035 90.7429 27.7599 91.3295C27.4848 91.9162 27.1103 92.3636 26.6364 92.6719C26.1624 92.9801 25.6255 93.1342 25.0256 93.1342C24.5881 93.1342 24.2251 93.0613 23.9368 92.9155C23.6484 92.7696 23.4164 92.594 23.2408 92.3885C23.0684 92.1797 22.9342 91.9825 22.8381 91.7969H22.7635V95.8636H20.9638ZM22.7287 89.1818C22.7287 89.6757 22.7983 90.1082 22.9375 90.4794C23.08 90.8506 23.2839 91.1406 23.549 91.3494C23.8175 91.5549 24.1423 91.6577 24.5234 91.6577C24.9212 91.6577 25.2543 91.5516 25.5227 91.3395C25.7912 91.1241 25.9934 90.8307 26.1293 90.4595C26.2685 90.085 26.3381 89.6591 26.3381 89.1818C26.3381 88.7079 26.2701 88.2869 26.1342 87.919C25.9983 87.5511 25.7962 87.2628 25.5277 87.054C25.2592 86.8452 24.9245 86.7408 24.5234 86.7408C24.139 86.7408 23.8125 86.8419 23.544 87.044C23.2756 87.2462 23.0717 87.5296 22.9325 87.8942C22.7966 88.2588 22.7287 88.688 22.7287 89.1818ZM29.7138 95.8636V85.3636H31.4837V86.6264H31.5881C31.6809 86.4408 31.8118 86.2436 31.9808 86.0348C32.1499 85.8227 32.3786 85.642 32.6669 85.4929C32.9553 85.3404 33.3232 85.2642 33.7706 85.2642C34.3606 85.2642 34.8925 85.415 35.3665 85.7166C35.8438 86.0149 36.2216 86.4574 36.5 87.044C36.7817 87.6274 36.9226 88.3433 36.9226 89.1918C36.9226 90.0303 36.785 90.7429 36.5099 91.3295C36.2348 91.9162 35.8603 92.3636 35.3864 92.6719C34.9124 92.9801 34.3755 93.1342 33.7756 93.1342C33.3381 93.1342 32.9751 93.0613 32.6868 92.9155C32.3984 92.7696 32.1664 92.594 31.9908 92.3885C31.8184 92.1797 31.6842 91.9825 31.5881 91.7969H31.5135V95.8636H29.7138ZM31.4787 89.1818C31.4787 89.6757 31.5483 90.1082 31.6875 90.4794C31.83 90.8506 32.0339 91.1406 32.299 91.3494C32.5675 91.5549 32.8923 91.6577 33.2734 91.6577C33.6712 91.6577 34.0043 91.5516 34.2727 91.3395C34.5412 91.1241 34.7434 90.8307 34.8793 90.4595C35.0185 90.085 35.0881 89.6591 35.0881 89.1818C35.0881 88.7079 35.0201 88.2869 34.8842 87.919C34.7483 87.5511 34.5462 87.2628 34.2777 87.054C34.0092 86.8452 33.6745 86.7408 33.2734 86.7408C32.889 86.7408 32.5625 86.8419 32.294 87.044C32.0256 87.2462 31.8217 87.5296 31.6825 87.8942C31.5466 88.2588 31.4787 88.688 31.4787 89.1818ZM40.2635 82.8182V93H38.4638V82.8182H40.2635ZM42.1142 93V85.3636H43.9139V93H42.1142ZM43.019 84.2798C42.734 84.2798 42.4887 84.1854 42.2832 83.9964C42.0777 83.8042 41.975 83.5739 41.975 83.3054C41.975 83.0336 42.0777 82.8033 42.2832 82.6143C42.4887 82.4221 42.734 82.326 43.019 82.326C43.3074 82.326 43.5526 82.4221 43.7548 82.6143C43.9603 82.8033 44.063 83.0336 44.063 83.3054C44.063 83.5739 43.9603 83.8042 43.7548 83.9964C43.5526 84.1854 43.3074 84.2798 43.019 84.2798ZM49.0955 93.1491C48.3332 93.1491 47.6786 92.9818 47.1317 92.647C46.5882 92.3123 46.1689 91.8499 45.8739 91.2599C45.5823 90.6667 45.4364 89.9839 45.4364 89.2116C45.4364 88.4361 45.5856 87.7517 45.8839 87.1584C46.1822 86.5618 46.6031 86.0978 47.1467 85.7663C47.6935 85.4316 48.3398 85.2642 49.0856 85.2642C49.7054 85.2642 50.2539 85.3786 50.7312 85.6072C51.2118 85.8326 51.5946 86.1525 51.8796 86.5668C52.1647 86.9777 52.3271 87.4583 52.3668 88.0085H50.6467C50.5771 87.6406 50.4113 87.334 50.1495 87.0888C49.891 86.8402 49.5446 86.7159 49.1104 86.7159C48.7425 86.7159 48.4194 86.8153 48.141 87.0142C47.8626 87.2098 47.6455 87.4915 47.4897 87.8594C47.3372 88.2273 47.261 88.6681 47.261 89.1818C47.261 89.7022 47.3372 90.1496 47.4897 90.5241C47.6422 90.8954 47.8559 91.1821 48.131 91.3842C48.4094 91.5831 48.7359 91.6825 49.1104 91.6825C49.3756 91.6825 49.6126 91.6328 49.8214 91.5334C50.0335 91.4306 50.2108 91.2831 50.3533 91.0909C50.4959 90.8987 50.5936 90.665 50.6467 90.3899H52.3668C52.3237 90.9302 52.1647 91.4091 51.8896 91.8267C51.6145 92.241 51.2399 92.5658 50.766 92.8011C50.292 93.0331 49.7352 93.1491 49.0955 93.1491ZM56.0421 93.1541C55.5582 93.1541 55.1223 93.0679 54.7346 92.8956C54.3501 92.7199 54.0452 92.4614 53.8198 92.12C53.5977 91.7786 53.4867 91.3577 53.4867 90.8572C53.4867 90.4264 53.5662 90.0701 53.7253 89.7884C53.8844 89.5066 54.1015 89.2812 54.3766 89.1122C54.6517 88.9432 54.9616 88.8156 55.3063 88.7294C55.6543 88.6399 56.0139 88.5753 56.3851 88.5355C56.8326 88.4891 57.1955 88.4477 57.4739 88.4112C57.7523 88.3714 57.9545 88.3118 58.0804 88.2322C58.2097 88.1494 58.2743 88.0218 58.2743 87.8494V87.8196C58.2743 87.4451 58.1633 87.1551 57.9412 86.9496C57.7192 86.7441 57.3993 86.6413 56.9817 86.6413C56.5409 86.6413 56.1912 86.7375 55.9327 86.9297C55.6775 87.1219 55.5051 87.349 55.4157 87.6108L53.7353 87.3722C53.8678 86.9081 54.0866 86.5204 54.3915 86.2088C54.6964 85.8939 55.0693 85.6586 55.5101 85.5028C55.9509 85.3438 56.4382 85.2642 56.9718 85.2642C57.3397 85.2642 57.7059 85.3073 58.0705 85.3935C58.4351 85.4796 58.7682 85.6222 59.0698 85.821C59.3714 86.0166 59.6133 86.2834 59.7956 86.6214C59.9812 86.9595 60.074 87.3821 60.074 87.8892V93H58.3439V91.951H58.2843C58.1749 92.1631 58.0208 92.362 57.8219 92.5476C57.6264 92.7299 57.3794 92.8774 57.0811 92.9901C56.7862 93.0994 56.4398 93.1541 56.0421 93.1541ZM56.5094 91.8317C56.8707 91.8317 57.1839 91.7604 57.449 91.6179C57.7142 91.4721 57.918 91.2798 58.0605 91.0412C58.2064 90.8026 58.2793 90.5424 58.2793 90.2607V89.3608C58.223 89.4072 58.1268 89.4503 57.9909 89.4901C57.8584 89.5298 57.7092 89.5646 57.5435 89.5945C57.3778 89.6243 57.2137 89.6508 57.0513 89.674C56.8889 89.6972 56.748 89.7171 56.6287 89.7337C56.3603 89.7701 56.12 89.8298 55.9078 89.9126C55.6957 89.9955 55.5284 90.1115 55.4057 90.2607C55.2831 90.4065 55.2218 90.5954 55.2218 90.8274C55.2218 91.1589 55.3427 91.4091 55.5847 91.5781C55.8266 91.7472 56.1349 91.8317 56.5094 91.8317ZM65.6969 85.3636V86.7557H61.307V85.3636H65.6969ZM62.3908 83.5341H64.1905V90.7031C64.1905 90.9451 64.227 91.1307 64.2999 91.2599C64.3761 91.3859 64.4756 91.4721 64.5982 91.5185C64.7208 91.5649 64.8567 91.5881 65.0059 91.5881C65.1185 91.5881 65.2213 91.5798 65.3141 91.5632C65.4102 91.5466 65.4831 91.5317 65.5328 91.5185L65.8361 92.9254C65.74 92.9586 65.6025 92.995 65.4235 93.0348C65.2478 93.0746 65.0324 93.0978 64.7772 93.1044C64.3264 93.1177 63.9204 93.0497 63.5591 92.9006C63.1979 92.7481 62.9112 92.5128 62.699 92.1946C62.4902 91.8764 62.3875 91.4787 62.3908 91.0014V83.5341ZM67.2021 93V85.3636H69.0018V93H67.2021ZM68.1069 84.2798C67.8219 84.2798 67.5766 84.1854 67.3711 83.9964C67.1656 83.8042 67.0629 83.5739 67.0629 83.3054C67.0629 83.0336 67.1656 82.8033 67.3711 82.6143C67.5766 82.4221 67.8219 82.326 68.1069 82.326C68.3952 82.326 68.6405 82.4221 68.8427 82.6143C69.0482 82.8033 69.1509 83.0336 69.1509 83.3054C69.1509 83.5739 69.0482 83.8042 68.8427 83.9964C68.6405 84.1854 68.3952 84.2798 68.1069 84.2798ZM74.1834 93.1491C73.4377 93.1491 72.7914 92.9851 72.2445 92.657C71.6976 92.3288 71.2734 91.8698 70.9718 91.2798C70.6735 90.6899 70.5243 90.0005 70.5243 89.2116C70.5243 88.4228 70.6735 87.7318 70.9718 87.1385C71.2734 86.5452 71.6976 86.0845 72.2445 85.7564C72.7914 85.4283 73.4377 85.2642 74.1834 85.2642C74.9292 85.2642 75.5755 85.4283 76.1223 85.7564C76.6692 86.0845 77.0918 86.5452 77.3901 87.1385C77.6917 87.7318 77.8425 88.4228 77.8425 89.2116C77.8425 90.0005 77.6917 90.6899 77.3901 91.2798C77.0918 91.8698 76.6692 92.3288 76.1223 92.657C75.5755 92.9851 74.9292 93.1491 74.1834 93.1491ZM74.1934 91.7074C74.5977 91.7074 74.9358 91.5964 75.2076 91.3743C75.4793 91.1489 75.6815 90.8473 75.8141 90.4695C75.95 90.0916 76.0179 89.6707 76.0179 89.2067C76.0179 88.7393 75.95 88.3168 75.8141 87.9389C75.6815 87.5578 75.4793 87.2545 75.2076 87.0291C74.9358 86.8037 74.5977 86.6911 74.1934 86.6911C73.7791 86.6911 73.4344 86.8037 73.1593 87.0291C72.8875 87.2545 72.6837 87.5578 72.5478 87.9389C72.4152 88.3168 72.3489 88.7393 72.3489 89.2067C72.3489 89.6707 72.4152 90.0916 72.5478 90.4695C72.6837 90.8473 72.8875 91.1489 73.1593 91.3743C73.4344 91.5964 73.7791 91.7074 74.1934 91.7074ZM81.1697 88.5256V93H79.37V85.3636H81.0902V86.6612H81.1797C81.3554 86.2337 81.6354 85.8939 82.0199 85.642C82.4077 85.3902 82.8866 85.2642 83.4567 85.2642C83.9837 85.2642 84.4427 85.3769 84.8338 85.6023C85.2282 85.8277 85.5331 86.1541 85.7486 86.5817C85.9673 87.0092 86.075 87.5279 86.0717 88.1378V93H84.272V88.4162C84.272 87.9058 84.1394 87.5064 83.8743 87.218C83.6125 86.9297 83.2495 86.7855 82.7855 86.7855C82.4706 86.7855 82.1906 86.8551 81.9453 86.9943C81.7034 87.1302 81.5128 87.3274 81.3736 87.5859C81.2377 87.8445 81.1697 88.1577 81.1697 88.5256Z" fill="white"/>
<path d="M13.4148 124H12.3068L15.5114 115.273H16.6023L19.8068 124H18.6989L16.0909 116.653H16.0227L13.4148 124ZM13.8239 120.591H18.2898V121.528H13.8239V120.591ZM23.4663 117.455V118.307H20.0742V117.455H23.4663ZM21.0629 115.886H22.0685V122.125C22.0685 122.409 22.1097 122.622 22.1921 122.764C22.2773 122.903 22.3853 122.997 22.516 123.045C22.6495 123.091 22.7901 123.114 22.9379 123.114C23.0487 123.114 23.1396 123.108 23.2106 123.097C23.2816 123.082 23.3384 123.071 23.381 123.062L23.5856 123.966C23.5174 123.991 23.4222 124.017 23.3001 124.043C23.1779 124.071 23.0231 124.085 22.8356 124.085C22.5515 124.085 22.2731 124.024 22.0004 123.902C21.7305 123.78 21.506 123.594 21.3271 123.344C21.1509 123.094 21.0629 122.778 21.0629 122.398V115.886ZM32.9904 118.92L32.087 119.176C32.0302 119.026 31.9464 118.879 31.8356 118.737C31.7276 118.592 31.5799 118.473 31.3924 118.379C31.2049 118.286 30.9648 118.239 30.6722 118.239C30.2717 118.239 29.9379 118.331 29.6708 118.516C29.4066 118.697 29.2745 118.929 29.2745 119.21C29.2745 119.46 29.3654 119.658 29.5472 119.803C29.729 119.947 30.0131 120.068 30.3995 120.165L31.3711 120.403C31.9563 120.545 32.3924 120.763 32.6793 121.055C32.9663 121.345 33.1097 121.719 33.1097 122.176C33.1097 122.551 33.0018 122.886 32.7859 123.182C32.5728 123.477 32.2745 123.71 31.891 123.881C31.5075 124.051 31.0614 124.136 30.5529 124.136C29.8853 124.136 29.3327 123.991 28.8952 123.702C28.4577 123.412 28.1808 122.989 28.0643 122.432L29.0188 122.193C29.1097 122.545 29.2816 122.81 29.5344 122.986C29.7901 123.162 30.1239 123.25 30.5359 123.25C31.0046 123.25 31.3768 123.151 31.6523 122.952C31.9308 122.75 32.07 122.509 32.07 122.227C32.07 122 31.9904 121.81 31.8313 121.656C31.6722 121.5 31.4279 121.384 31.0984 121.307L30.0075 121.051C29.408 120.909 28.9677 120.689 28.6864 120.391C28.408 120.089 28.2688 119.713 28.2688 119.261C28.2688 118.892 28.3725 118.565 28.5799 118.281C28.7901 117.997 29.0756 117.774 29.4364 117.612C29.8001 117.45 30.212 117.369 30.6722 117.369C31.32 117.369 31.8285 117.511 32.1978 117.795C32.57 118.08 32.8342 118.455 32.9904 118.92ZM34.6236 124V117.455H35.6293V124H34.6236ZM35.1349 116.364C34.9389 116.364 34.7699 116.297 34.6278 116.163C34.4886 116.03 34.419 115.869 34.419 115.682C34.419 115.494 34.4886 115.334 34.6278 115.2C34.7699 115.067 34.9389 115 35.1349 115C35.331 115 35.4986 115.067 35.6378 115.2C35.7798 115.334 35.8509 115.494 35.8509 115.682C35.8509 115.869 35.7798 116.03 35.6378 116.163C35.4986 116.297 35.331 116.364 35.1349 116.364ZM40.3178 117.455V118.307H36.9258V117.455H40.3178ZM37.9144 115.886H38.9201V122.125C38.9201 122.409 38.9613 122.622 39.0437 122.764C39.1289 122.903 39.2369 122.997 39.3675 123.045C39.5011 123.091 39.6417 123.114 39.7894 123.114C39.9002 123.114 39.9911 123.108 40.0621 123.097C40.1332 123.082 40.19 123.071 40.2326 123.062L40.4371 123.966C40.369 123.991 40.2738 124.017 40.1516 124.043C40.0295 124.071 39.8746 124.085 39.6871 124.085C39.4031 124.085 39.1246 124.024 38.8519 123.902C38.582 123.78 38.3576 123.594 38.1786 123.344C38.0025 123.094 37.9144 122.778 37.9144 122.398V115.886ZM41.8306 124V117.455H42.8363V124H41.8306ZM42.342 116.364C42.146 116.364 41.9769 116.297 41.8349 116.163C41.6957 116.03 41.6261 115.869 41.6261 115.682C41.6261 115.494 41.6957 115.334 41.8349 115.2C41.9769 115.067 42.146 115 42.342 115C42.538 115 42.7056 115.067 42.8448 115.2C42.9869 115.334 43.0579 115.494 43.0579 115.682C43.0579 115.869 42.9869 116.03 42.8448 116.163C42.7056 116.297 42.538 116.364 42.342 116.364ZM47.3374 124.136C46.7464 124.136 46.228 123.996 45.782 123.714C45.3388 123.433 44.9922 123.04 44.7422 122.534C44.495 122.028 44.3714 121.437 44.3714 120.761C44.3714 120.08 44.495 119.484 44.7422 118.976C44.9922 118.467 45.3388 118.072 45.782 117.791C46.228 117.51 46.7464 117.369 47.3374 117.369C47.9283 117.369 48.4453 117.51 48.8885 117.791C49.3345 118.072 49.6811 118.467 49.9283 118.976C50.1783 119.484 50.3033 120.08 50.3033 120.761C50.3033 121.437 50.1783 122.028 49.9283 122.534C49.6811 123.04 49.3345 123.433 48.8885 123.714C48.4453 123.996 47.9283 124.136 47.3374 124.136ZM47.3374 123.233C47.7862 123.233 48.1555 123.118 48.4453 122.888C48.7351 122.658 48.9496 122.355 49.0888 121.98C49.228 121.605 49.2976 121.199 49.2976 120.761C49.2976 120.324 49.228 119.916 49.0888 119.538C48.9496 119.161 48.7351 118.855 48.4453 118.622C48.1555 118.389 47.7862 118.273 47.3374 118.273C46.8885 118.273 46.5192 118.389 46.2294 118.622C45.9396 118.855 45.7251 119.161 45.5859 119.538C45.4467 119.916 45.3771 120.324 45.3771 120.761C45.3771 121.199 45.4467 121.605 45.5859 121.98C45.7251 122.355 45.9396 122.658 46.2294 122.888C46.5192 123.118 46.8885 123.233 47.3374 123.233ZM53.3384 122.807L53.2702 123.267C53.2219 123.591 53.1481 123.938 53.0487 124.307C52.9521 124.676 52.8512 125.024 52.7461 125.351C52.641 125.678 52.5543 125.938 52.4862 126.131H51.7191C51.756 125.949 51.8043 125.709 51.864 125.411C51.9237 125.112 51.9833 124.778 52.043 124.409C52.1055 124.043 52.1566 123.668 52.1964 123.284L52.2475 122.807H53.3384ZM60.0597 124L58.0653 117.455H59.1222L60.5369 122.466H60.6051L62.0028 117.455H63.0767L64.4574 122.449H64.5256L65.9403 117.455H66.9972L65.0028 124H64.0142L62.5824 118.972H62.4801L61.0483 124H60.0597ZM70.8484 124.136C70.2177 124.136 69.6737 123.997 69.2163 123.719C68.7617 123.438 68.4109 123.045 68.1637 122.543C67.9194 122.037 67.7972 121.449 67.7972 120.778C67.7972 120.108 67.9194 119.517 68.1637 119.006C68.4109 118.491 68.7546 118.091 69.195 117.804C69.6381 117.514 70.1552 117.369 70.7461 117.369C71.087 117.369 71.4237 117.426 71.756 117.54C72.0884 117.653 72.391 117.838 72.6637 118.094C72.9364 118.347 73.1538 118.682 73.3157 119.099C73.4776 119.517 73.5586 120.031 73.5586 120.642V121.068H68.5131V120.199H72.5359C72.5359 119.83 72.462 119.5 72.3143 119.21C72.1694 118.92 71.962 118.692 71.6921 118.524C71.4251 118.357 71.1097 118.273 70.7461 118.273C70.3455 118.273 69.9989 118.372 69.7063 118.571C69.4165 118.767 69.1935 119.023 69.0373 119.338C68.881 119.653 68.8029 119.991 68.8029 120.352V120.932C68.8029 121.426 68.8881 121.845 69.0586 122.189C69.2319 122.53 69.4719 122.79 69.7788 122.969C70.0856 123.145 70.4421 123.233 70.8484 123.233C71.1126 123.233 71.3512 123.196 71.5643 123.122C71.7802 123.045 71.9663 122.932 72.1225 122.781C72.2788 122.628 72.3995 122.437 72.4847 122.21L73.4563 122.483C73.354 122.812 73.1822 123.102 72.9407 123.352C72.6992 123.599 72.4009 123.793 72.0458 123.932C71.6907 124.068 71.2915 124.136 70.8484 124.136ZM78.4634 126.455V117.455H79.435V118.494H79.5543C79.6282 118.381 79.7305 118.236 79.8612 118.06C79.9947 117.881 80.185 117.722 80.4322 117.582C80.6822 117.44 81.0202 117.369 81.4464 117.369C81.9975 117.369 82.4833 117.507 82.9038 117.783C83.3242 118.058 83.6523 118.449 83.8881 118.955C84.1239 119.46 84.2418 120.057 84.2418 120.744C84.2418 121.438 84.1239 122.038 83.8881 122.547C83.6523 123.053 83.3256 123.445 82.908 123.723C82.4904 123.999 82.0089 124.136 81.4634 124.136C81.043 124.136 80.7063 124.067 80.4535 123.928C80.2006 123.786 80.006 123.625 79.8697 123.446C79.7333 123.264 79.6282 123.114 79.5543 122.994H79.4691V126.455H78.4634ZM79.4521 120.727C79.4521 121.222 79.5245 121.658 79.6694 122.036C79.8143 122.411 80.0259 122.705 80.3043 122.918C80.5827 123.128 80.9237 123.233 81.3271 123.233C81.7475 123.233 82.0984 123.122 82.3796 122.901C82.6637 122.676 82.8768 122.375 83.0188 121.997C83.1637 121.616 83.2362 121.193 83.2362 120.727C83.2362 120.267 83.1651 119.852 83.0231 119.483C82.8839 119.111 82.6722 118.817 82.3881 118.601C82.1069 118.382 81.7532 118.273 81.3271 118.273C80.918 118.273 80.5742 118.376 80.2958 118.584C80.0174 118.788 79.8072 119.075 79.6651 119.445C79.5231 119.811 79.4521 120.239 79.4521 120.727ZM85.7759 124V117.455H86.7475V118.443H86.8157C86.935 118.119 87.1509 117.857 87.4634 117.655C87.7759 117.453 88.1282 117.352 88.5202 117.352C88.5941 117.352 88.6864 117.354 88.7972 117.357C88.908 117.359 88.9918 117.364 89.0487 117.369V118.392C89.0146 118.384 88.9364 118.371 88.8143 118.354C88.695 118.334 88.5685 118.324 88.435 118.324C88.1168 118.324 87.8327 118.391 87.5827 118.524C87.3356 118.655 87.1396 118.837 86.9947 119.07C86.8526 119.3 86.7816 119.562 86.7816 119.858V124H85.7759ZM92.7006 124.136C92.1097 124.136 91.5913 123.996 91.1452 123.714C90.7021 123.433 90.3555 123.04 90.1055 122.534C89.8583 122.028 89.7347 121.437 89.7347 120.761C89.7347 120.08 89.8583 119.484 90.1055 118.976C90.3555 118.467 90.7021 118.072 91.1452 117.791C91.5913 117.51 92.1097 117.369 92.7006 117.369C93.2915 117.369 93.8086 117.51 94.2518 117.791C94.6978 118.072 95.0444 118.467 95.2915 118.976C95.5415 119.484 95.6665 120.08 95.6665 120.761C95.6665 121.437 95.5415 122.028 95.2915 122.534C95.0444 123.04 94.6978 123.433 94.2518 123.714C93.8086 123.996 93.2915 124.136 92.7006 124.136ZM92.7006 123.233C93.1495 123.233 93.5188 123.118 93.8086 122.888C94.0984 122.658 94.3129 122.355 94.4521 121.98C94.5913 121.605 94.6609 121.199 94.6609 120.761C94.6609 120.324 94.5913 119.916 94.4521 119.538C94.3129 119.161 94.0984 118.855 93.8086 118.622C93.5188 118.389 93.1495 118.273 92.7006 118.273C92.2518 118.273 91.8825 118.389 91.5927 118.622C91.3029 118.855 91.0884 119.161 90.9492 119.538C90.81 119.916 90.7404 120.324 90.7404 120.761C90.7404 121.199 90.81 121.605 90.9492 121.98C91.0884 122.355 91.3029 122.658 91.5927 122.888C91.8825 123.118 92.2518 123.233 92.7006 123.233ZM102.32 117.455L99.8991 124H98.8764L96.456 117.455H97.5469L99.3537 122.67H99.4219L101.229 117.455H102.32ZM103.647 124V117.455H104.653V124H103.647ZM104.158 116.364C103.962 116.364 103.793 116.297 103.651 116.163C103.512 116.03 103.442 115.869 103.442 115.682C103.442 115.494 103.512 115.334 103.651 115.2C103.793 115.067 103.962 115 104.158 115C104.354 115 104.522 115.067 104.661 115.2C104.803 115.334 104.874 115.494 104.874 115.682C104.874 115.869 104.803 116.03 104.661 116.163C104.522 116.297 104.354 116.364 104.158 116.364ZM108.966 124.136C108.421 124.136 107.939 123.999 107.522 123.723C107.104 123.445 106.777 123.053 106.542 122.547C106.306 122.038 106.188 121.438 106.188 120.744C106.188 120.057 106.306 119.46 106.542 118.955C106.777 118.449 107.105 118.058 107.526 117.783C107.946 117.507 108.432 117.369 108.983 117.369C109.409 117.369 109.746 117.44 109.993 117.582C110.243 117.722 110.434 117.881 110.564 118.06C110.698 118.236 110.801 118.381 110.875 118.494H110.961V115.273H111.966V124H110.995V122.994H110.875C110.801 123.114 110.696 123.264 110.56 123.446C110.424 123.625 110.229 123.786 109.976 123.928C109.723 124.067 109.387 124.136 108.966 124.136ZM109.103 123.233C109.506 123.233 109.847 123.128 110.125 122.918C110.404 122.705 110.615 122.411 110.76 122.036C110.905 121.658 110.978 121.222 110.978 120.727C110.978 120.239 110.907 119.811 110.765 119.445C110.623 119.075 110.412 118.788 110.134 118.584C109.855 118.376 109.512 118.273 109.103 118.273C108.676 118.273 108.321 118.382 108.037 118.601C107.756 118.817 107.544 119.111 107.402 119.483C107.263 119.852 107.194 120.267 107.194 120.727C107.194 121.193 107.265 121.616 107.407 121.997C107.551 122.375 107.765 122.676 108.046 122.901C108.33 123.122 108.682 123.233 109.103 123.233ZM116.692 124.136C116.061 124.136 115.517 123.997 115.06 123.719C114.605 123.438 114.255 123.045 114.007 122.543C113.763 122.037 113.641 121.449 113.641 120.778C113.641 120.108 113.763 119.517 114.007 119.006C114.255 118.491 114.598 118.091 115.039 117.804C115.482 117.514 115.999 117.369 116.59 117.369C116.931 117.369 117.267 117.426 117.6 117.54C117.932 117.653 118.235 117.838 118.507 118.094C118.78 118.347 118.998 118.682 119.159 119.099C119.321 119.517 119.402 120.031 119.402 120.642V121.068H114.357V120.199H118.38C118.38 119.83 118.306 119.5 118.158 119.21C118.013 118.92 117.806 118.692 117.536 118.524C117.269 118.357 116.953 118.273 116.59 118.273C116.189 118.273 115.843 118.372 115.55 118.571C115.26 118.767 115.037 119.023 114.881 119.338C114.725 119.653 114.647 119.991 114.647 120.352V120.932C114.647 121.426 114.732 121.845 114.902 122.189C115.076 122.53 115.316 122.79 115.623 122.969C115.929 123.145 116.286 123.233 116.692 123.233C116.956 123.233 117.195 123.196 117.408 123.122C117.624 123.045 117.81 122.932 117.966 122.781C118.123 122.628 118.243 122.437 118.328 122.21L119.3 122.483C119.198 122.812 119.026 123.102 118.784 123.352C118.543 123.599 118.245 123.793 117.89 123.932C117.534 124.068 117.135 124.136 116.692 124.136ZM13.0568 144V135.273H14.0625V138.494H14.1477C14.2216 138.381 14.3239 138.236 14.4545 138.06C14.5881 137.881 14.7784 137.722 15.0256 137.582C15.2756 137.44 15.6136 137.369 16.0398 137.369C16.5909 137.369 17.0767 137.507 17.4972 137.783C17.9176 138.058 18.2457 138.449 18.4815 138.955C18.7173 139.46 18.8352 140.057 18.8352 140.744C18.8352 141.438 18.7173 142.038 18.4815 142.547C18.2457 143.053 17.919 143.445 17.5014 143.723C17.0838 143.999 16.6023 144.136 16.0568 144.136C15.6364 144.136 15.2997 144.067 15.0469 143.928C14.794 143.786 14.5994 143.625 14.4631 143.446C14.3267 143.264 14.2216 143.114 14.1477 142.994H14.0284V144H13.0568ZM14.0455 140.727C14.0455 141.222 14.1179 141.658 14.2628 142.036C14.4077 142.411 14.6193 142.705 14.8977 142.918C15.1761 143.128 15.517 143.233 15.9205 143.233C16.3409 143.233 16.6918 143.122 16.973 142.901C17.2571 142.676 17.4702 142.375 17.6122 141.997C17.7571 141.616 17.8295 141.193 17.8295 140.727C17.8295 140.267 17.7585 139.852 17.6165 139.483C17.4773 139.111 17.2656 138.817 16.9815 138.601C16.7003 138.382 16.3466 138.273 15.9205 138.273C15.5114 138.273 15.1676 138.376 14.8892 138.584C14.6108 138.788 14.4006 139.075 14.2585 139.445C14.1165 139.811 14.0455 140.239 14.0455 140.727ZM24.4986 141.324V137.455H25.5043V144H24.4986V142.892H24.4304C24.277 143.224 24.0384 143.507 23.7145 143.74C23.3906 143.97 22.9815 144.085 22.4872 144.085C22.0781 144.085 21.7145 143.996 21.3963 143.817C21.0781 143.635 20.8281 143.362 20.6463 142.999C20.4645 142.632 20.3736 142.17 20.3736 141.614V137.455H21.3793V141.545C21.3793 142.023 21.5128 142.403 21.7798 142.688C22.0497 142.972 22.3935 143.114 22.8111 143.114C23.0611 143.114 23.3153 143.05 23.5739 142.922C23.8352 142.794 24.054 142.598 24.2301 142.334C24.4091 142.07 24.4986 141.733 24.4986 141.324ZM31.9826 138.92L31.0792 139.176C31.0224 139.026 30.9386 138.879 30.8278 138.737C30.7198 138.592 30.5721 138.473 30.3846 138.379C30.1971 138.286 29.957 138.239 29.6644 138.239C29.2638 138.239 28.93 138.331 28.663 138.516C28.3988 138.697 28.2667 138.929 28.2667 139.21C28.2667 139.46 28.3576 139.658 28.5394 139.803C28.7212 139.947 29.0053 140.068 29.3917 140.165L30.3633 140.403C30.9485 140.545 31.3846 140.763 31.6715 141.055C31.9585 141.345 32.1019 141.719 32.1019 142.176C32.1019 142.551 31.994 142.886 31.7781 143.182C31.565 143.477 31.2667 143.71 30.8832 143.881C30.4996 144.051 30.0536 144.136 29.5451 144.136C28.8775 144.136 28.3249 143.991 27.8874 143.702C27.4499 143.412 27.1729 142.989 27.0565 142.432L28.011 142.193C28.1019 142.545 28.2738 142.81 28.5266 142.986C28.7823 143.162 29.1161 143.25 29.5281 143.25C29.9968 143.25 30.369 143.151 30.6445 142.952C30.9229 142.75 31.0621 142.509 31.0621 142.227C31.0621 142 30.9826 141.81 30.8235 141.656C30.6644 141.5 30.4201 141.384 30.0906 141.307L28.9996 141.051C28.4002 140.909 27.9599 140.689 27.6786 140.391C27.4002 140.089 27.261 139.713 27.261 139.261C27.261 138.892 27.3647 138.565 27.5721 138.281C27.7823 137.997 28.0678 137.774 28.4286 137.612C28.7923 137.45 29.2042 137.369 29.6644 137.369C30.3121 137.369 30.8207 137.511 31.19 137.795C31.5621 138.08 31.8263 138.455 31.9826 138.92ZM33.6158 144V137.455H34.6214V144H33.6158ZM34.1271 136.364C33.9311 136.364 33.7621 136.297 33.62 136.163C33.4808 136.03 33.4112 135.869 33.4112 135.682C33.4112 135.494 33.4808 135.334 33.62 135.2C33.7621 135.067 33.9311 135 34.1271 135C34.3232 135 34.4908 135.067 34.63 135.2C34.772 135.334 34.843 135.494 34.843 135.682C34.843 135.869 34.772 136.03 34.63 136.163C34.4908 136.297 34.3232 136.364 34.1271 136.364ZM37.4691 140.062V144H36.4634V137.455H37.435V138.477H37.5202C37.6737 138.145 37.9066 137.878 38.2191 137.676C38.5316 137.472 38.935 137.369 39.4293 137.369C39.8725 137.369 40.2603 137.46 40.5927 137.642C40.9251 137.821 41.1836 138.094 41.3683 138.46C41.5529 138.824 41.6452 139.284 41.6452 139.841V144H40.6396V139.909C40.6396 139.395 40.506 138.994 40.239 138.707C39.9719 138.418 39.6055 138.273 39.1396 138.273C38.8185 138.273 38.5316 138.342 38.2788 138.482C38.0288 138.621 37.8313 138.824 37.6864 139.091C37.5415 139.358 37.4691 139.682 37.4691 140.062ZM46.2273 144.136C45.5966 144.136 45.0526 143.997 44.5952 143.719C44.1406 143.438 43.7898 143.045 43.5426 142.543C43.2983 142.037 43.1761 141.449 43.1761 140.778C43.1761 140.108 43.2983 139.517 43.5426 139.006C43.7898 138.491 44.1335 138.091 44.5739 137.804C45.017 137.514 45.5341 137.369 46.125 137.369C46.4659 137.369 46.8026 137.426 47.1349 137.54C47.4673 137.653 47.7699 137.838 48.0426 138.094C48.3153 138.347 48.5327 138.682 48.6946 139.099C48.8565 139.517 48.9375 140.031 48.9375 140.642V141.068H43.892V140.199H47.9148C47.9148 139.83 47.8409 139.5 47.6932 139.21C47.5483 138.92 47.3409 138.692 47.071 138.524C46.804 138.357 46.4886 138.273 46.125 138.273C45.7244 138.273 45.3778 138.372 45.0852 138.571C44.7955 138.767 44.5724 139.023 44.4162 139.338C44.2599 139.653 44.1818 139.991 44.1818 140.352V140.932C44.1818 141.426 44.267 141.845 44.4375 142.189C44.6108 142.53 44.8509 142.79 45.1577 142.969C45.4645 143.145 45.821 143.233 46.2273 143.233C46.4915 143.233 46.7301 143.196 46.9432 143.122C47.1591 143.045 47.3452 142.932 47.5014 142.781C47.6577 142.628 47.7784 142.437 47.8636 142.21L48.8352 142.483C48.733 142.812 48.5611 143.102 48.3196 143.352C48.0781 143.599 47.7798 143.793 47.4247 143.932C47.0696 144.068 46.6705 144.136 46.2273 144.136ZM55.1037 138.92L54.2003 139.176C54.1435 139.026 54.0597 138.879 53.9489 138.737C53.8409 138.592 53.6932 138.473 53.5057 138.379C53.3182 138.286 53.0781 138.239 52.7855 138.239C52.3849 138.239 52.0511 138.331 51.7841 138.516C51.5199 138.697 51.3878 138.929 51.3878 139.21C51.3878 139.46 51.4787 139.658 51.6605 139.803C51.8423 139.947 52.1264 140.068 52.5128 140.165L53.4844 140.403C54.0696 140.545 54.5057 140.763 54.7926 141.055C55.0795 141.345 55.223 141.719 55.223 142.176C55.223 142.551 55.1151 142.886 54.8991 143.182C54.6861 143.477 54.3878 143.71 54.0043 143.881C53.6207 144.051 53.1747 144.136 52.6662 144.136C51.9986 144.136 51.446 143.991 51.0085 143.702C50.571 143.412 50.294 142.989 50.1776 142.432L51.1321 142.193C51.223 142.545 51.3949 142.81 51.6477 142.986C51.9034 143.162 52.2372 143.25 52.6491 143.25C53.1179 143.25 53.4901 143.151 53.7656 142.952C54.044 142.75 54.1832 142.509 54.1832 142.227C54.1832 142 54.1037 141.81 53.9446 141.656C53.7855 141.5 53.5412 141.384 53.2116 141.307L52.1207 141.051C51.5213 140.909 51.081 140.689 50.7997 140.391C50.5213 140.089 50.3821 139.713 50.3821 139.261C50.3821 138.892 50.4858 138.565 50.6932 138.281C50.9034 137.997 51.1889 137.774 51.5497 137.612C51.9134 137.45 52.3253 137.369 52.7855 137.369C53.4332 137.369 53.9418 137.511 54.3111 137.795C54.6832 138.08 54.9474 138.455 55.1037 138.92ZM61.3732 138.92L60.4698 139.176C60.413 139.026 60.3292 138.879 60.2184 138.737C60.1104 138.592 59.9627 138.473 59.7752 138.379C59.5877 138.286 59.3477 138.239 59.055 138.239C58.6545 138.239 58.3207 138.331 58.0536 138.516C57.7894 138.697 57.6573 138.929 57.6573 139.21C57.6573 139.46 57.7482 139.658 57.93 139.803C58.1119 139.947 58.396 140.068 58.7823 140.165L59.7539 140.403C60.3391 140.545 60.7752 140.763 61.0621 141.055C61.3491 141.345 61.4925 141.719 61.4925 142.176C61.4925 142.551 61.3846 142.886 61.1687 143.182C60.9556 143.477 60.6573 143.71 60.2738 143.881C59.8903 144.051 59.4442 144.136 58.9357 144.136C58.2681 144.136 57.7156 143.991 57.2781 143.702C56.8406 143.412 56.5636 142.989 56.4471 142.432L57.4016 142.193C57.4925 142.545 57.6644 142.81 57.9173 142.986C58.1729 143.162 58.5067 143.25 58.9187 143.25C59.3874 143.25 59.7596 143.151 60.0352 142.952C60.3136 142.75 60.4528 142.509 60.4528 142.227C60.4528 142 60.3732 141.81 60.2141 141.656C60.055 141.5 59.8107 141.384 59.4812 141.307L58.3903 141.051C57.7908 140.909 57.3505 140.689 57.0692 140.391C56.7908 140.089 56.6516 139.713 56.6516 139.261C56.6516 138.892 56.7553 138.565 56.9627 138.281C57.1729 137.997 57.4585 137.774 57.8192 137.612C58.1829 137.45 58.5948 137.369 59.055 137.369C59.7028 137.369 60.2113 137.511 60.5806 137.795C60.9528 138.08 61.217 138.455 61.3732 138.92ZM65.7507 144.136C65.12 144.136 64.576 143.997 64.1186 143.719C63.6641 143.438 63.3132 143.045 63.0661 142.543C62.8217 142.037 62.6996 141.449 62.6996 140.778C62.6996 140.108 62.8217 139.517 63.0661 139.006C63.3132 138.491 63.657 138.091 64.0973 137.804C64.5405 137.514 65.0575 137.369 65.6484 137.369C65.9893 137.369 66.326 137.426 66.6584 137.54C66.9908 137.653 67.2933 137.838 67.5661 138.094C67.8388 138.347 68.0561 138.682 68.218 139.099C68.38 139.517 68.4609 140.031 68.4609 140.642V141.068H63.4155V140.199H67.4382C67.4382 139.83 67.3643 139.5 67.2166 139.21C67.0717 138.92 66.8643 138.692 66.5945 138.524C66.3274 138.357 66.0121 138.273 65.6484 138.273C65.2479 138.273 64.9013 138.372 64.6087 138.571C64.3189 138.767 64.0959 139.023 63.9396 139.338C63.7834 139.653 63.7053 139.991 63.7053 140.352V140.932C63.7053 141.426 63.7905 141.845 63.9609 142.189C64.1342 142.53 64.3743 142.79 64.6811 142.969C64.9879 143.145 65.3445 143.233 65.7507 143.233C66.0149 143.233 66.2536 143.196 66.4666 143.122C66.6825 143.045 66.8686 142.932 67.0249 142.781C67.1811 142.628 67.3018 142.437 67.3871 142.21L68.3587 142.483C68.2564 142.812 68.0845 143.102 67.843 143.352C67.6016 143.599 67.3033 143.793 66.9482 143.932C66.593 144.068 66.1939 144.136 65.7507 144.136ZM74.6271 138.92L73.7237 139.176C73.6669 139.026 73.5831 138.879 73.4723 138.737C73.3643 138.592 73.2166 138.473 73.0291 138.379C72.8416 138.286 72.6016 138.239 72.3089 138.239C71.9084 138.239 71.5746 138.331 71.3075 138.516C71.0433 138.697 70.9112 138.929 70.9112 139.21C70.9112 139.46 71.0021 139.658 71.1839 139.803C71.3658 139.947 71.6499 140.068 72.0362 140.165L73.0078 140.403C73.593 140.545 74.0291 140.763 74.3161 141.055C74.603 141.345 74.7464 141.719 74.7464 142.176C74.7464 142.551 74.6385 142.886 74.4226 143.182C74.2095 143.477 73.9112 143.71 73.5277 143.881C73.1442 144.051 72.6982 144.136 72.1896 144.136C71.522 144.136 70.9695 143.991 70.532 143.702C70.0945 143.412 69.8175 142.989 69.701 142.432L70.6555 142.193C70.7464 142.545 70.9183 142.81 71.1712 142.986C71.4268 143.162 71.7607 143.25 72.1726 143.25C72.6413 143.25 73.0135 143.151 73.2891 142.952C73.5675 142.75 73.7067 142.509 73.7067 142.227C73.7067 142 73.6271 141.81 73.468 141.656C73.3089 141.5 73.0646 141.384 72.7351 141.307L71.6442 141.051C71.0447 140.909 70.6044 140.689 70.3232 140.391C70.0447 140.089 69.9055 139.713 69.9055 139.261C69.9055 138.892 70.0092 138.565 70.2166 138.281C70.4268 137.997 70.7124 137.774 71.0732 137.612C71.4368 137.45 71.8487 137.369 72.3089 137.369C72.9567 137.369 73.4652 137.511 73.8345 137.795C74.2067 138.08 74.4709 138.455 74.6271 138.92ZM81.5614 144.153C81.1467 144.153 80.7702 144.075 80.4322 143.919C80.0941 143.76 79.8256 143.531 79.6268 143.233C79.4279 142.932 79.3285 142.568 79.3285 142.142C79.3285 141.767 79.4023 141.463 79.5501 141.23C79.6978 140.994 79.8952 140.81 80.1424 140.676C80.3896 140.543 80.6623 140.443 80.9606 140.378C81.2617 140.31 81.5643 140.256 81.8683 140.216C82.266 140.165 82.5884 140.126 82.8356 140.101C83.0856 140.072 83.2674 140.026 83.381 139.96C83.4975 139.895 83.5558 139.781 83.5558 139.619V139.585C83.5558 139.165 83.4407 138.838 83.2106 138.605C82.9833 138.372 82.6381 138.256 82.1751 138.256C81.695 138.256 81.3185 138.361 81.0458 138.571C80.7731 138.781 80.5813 139.006 80.4705 139.244L79.516 138.903C79.6864 138.506 79.9137 138.196 80.1978 137.974C80.4847 137.75 80.7972 137.594 81.1353 137.506C81.4762 137.415 81.8114 137.369 82.141 137.369C82.3512 137.369 82.5927 137.395 82.8654 137.446C83.141 137.494 83.4066 137.595 83.6623 137.749C83.9208 137.902 84.1353 138.134 84.3058 138.443C84.4762 138.753 84.5614 139.168 84.5614 139.688V144H83.5558V143.114H83.5046C83.4364 143.256 83.3228 143.408 83.1637 143.57C83.0046 143.732 82.793 143.869 82.5288 143.983C82.2646 144.097 81.9421 144.153 81.5614 144.153ZM81.7148 143.25C82.1126 143.25 82.4478 143.172 82.7205 143.016C82.9961 142.859 83.2035 142.658 83.3427 142.411C83.4847 142.163 83.5558 141.903 83.5558 141.631V140.71C83.5131 140.761 83.4194 140.808 83.2745 140.851C83.1325 140.891 82.9677 140.926 82.7802 140.957C82.5955 140.986 82.4151 141.011 82.239 141.034C82.0657 141.054 81.9251 141.071 81.8171 141.085C81.5558 141.119 81.3114 141.175 81.0842 141.251C80.8597 141.325 80.6779 141.437 80.5387 141.588C80.4023 141.736 80.3342 141.937 80.3342 142.193C80.3342 142.543 80.4634 142.807 80.7219 142.986C80.9833 143.162 81.3143 143.25 81.7148 143.25ZM87.4027 140.062V144H86.397V137.455H87.3686V138.477H87.4538C87.6072 138.145 87.8402 137.878 88.1527 137.676C88.4652 137.472 88.8686 137.369 89.3629 137.369C89.8061 137.369 90.1939 137.46 90.5263 137.642C90.8587 137.821 91.1172 138.094 91.3018 138.46C91.4865 138.824 91.5788 139.284 91.5788 139.841V144H90.5732V139.909C90.5732 139.395 90.4396 138.994 90.1726 138.707C89.9055 138.418 89.5391 138.273 89.0732 138.273C88.7521 138.273 88.4652 138.342 88.2124 138.482C87.9624 138.621 87.7649 138.824 87.62 139.091C87.4751 139.358 87.4027 139.682 87.4027 140.062ZM99.5359 144.136C98.9052 144.136 98.3612 143.997 97.9038 143.719C97.4492 143.438 97.0984 143.045 96.8512 142.543C96.6069 142.037 96.4847 141.449 96.4847 140.778C96.4847 140.108 96.6069 139.517 96.8512 139.006C97.0984 138.491 97.4421 138.091 97.8825 137.804C98.3256 137.514 98.8427 137.369 99.4336 137.369C99.7745 137.369 100.111 137.426 100.444 137.54C100.776 137.653 101.078 137.838 101.351 138.094C101.624 138.347 101.841 138.682 102.003 139.099C102.165 139.517 102.246 140.031 102.246 140.642V141.068H97.2006V140.199H101.223C101.223 139.83 101.15 139.5 101.002 139.21C100.857 138.92 100.65 138.692 100.38 138.524C100.113 138.357 99.7972 138.273 99.4336 138.273C99.033 138.273 98.6864 138.372 98.3938 138.571C98.104 138.767 97.881 139.023 97.7248 139.338C97.5685 139.653 97.4904 139.991 97.4904 140.352V140.932C97.4904 141.426 97.5756 141.845 97.7461 142.189C97.9194 142.53 98.1594 142.79 98.4663 142.969C98.7731 143.145 99.1296 143.233 99.5359 143.233C99.8001 143.233 100.039 143.196 100.252 143.122C100.468 143.045 100.654 142.932 100.81 142.781C100.966 142.628 101.087 142.437 101.172 142.21L102.144 142.483C102.042 142.812 101.87 143.102 101.628 143.352C101.387 143.599 101.088 143.793 100.733 143.932C100.378 144.068 99.979 144.136 99.5359 144.136ZM105.702 144.153C105.287 144.153 104.911 144.075 104.573 143.919C104.235 143.76 103.966 143.531 103.767 143.233C103.569 142.932 103.469 142.568 103.469 142.142C103.469 141.767 103.543 141.463 103.691 141.23C103.838 140.994 104.036 140.81 104.283 140.676C104.53 140.543 104.803 140.443 105.101 140.378C105.402 140.31 105.705 140.256 106.009 140.216C106.407 140.165 106.729 140.126 106.976 140.101C107.226 140.072 107.408 140.026 107.522 139.96C107.638 139.895 107.696 139.781 107.696 139.619V139.585C107.696 139.165 107.581 138.838 107.351 138.605C107.124 138.372 106.779 138.256 106.316 138.256C105.836 138.256 105.459 138.361 105.186 138.571C104.914 138.781 104.722 139.006 104.611 139.244L103.657 138.903C103.827 138.506 104.054 138.196 104.338 137.974C104.625 137.75 104.938 137.594 105.276 137.506C105.617 137.415 105.952 137.369 106.282 137.369C106.492 137.369 106.733 137.395 107.006 137.446C107.282 137.494 107.547 137.595 107.803 137.749C108.061 137.902 108.276 138.134 108.446 138.443C108.617 138.753 108.702 139.168 108.702 139.688V144H107.696V143.114H107.645C107.577 143.256 107.463 143.408 107.304 143.57C107.145 143.732 106.934 143.869 106.669 143.983C106.405 144.097 106.083 144.153 105.702 144.153ZM105.855 143.25C106.253 143.25 106.588 143.172 106.861 143.016C107.137 142.859 107.344 142.658 107.483 142.411C107.625 142.163 107.696 141.903 107.696 141.631V140.71C107.654 140.761 107.56 140.808 107.415 140.851C107.273 140.891 107.108 140.926 106.921 140.957C106.736 140.986 106.556 141.011 106.38 141.034C106.206 141.054 106.066 141.071 105.958 141.085C105.696 141.119 105.452 141.175 105.225 141.251C105 141.325 104.819 141.437 104.679 141.588C104.543 141.736 104.475 141.937 104.475 142.193C104.475 142.543 104.604 142.807 104.863 142.986C105.124 143.162 105.455 143.25 105.855 143.25ZM115.174 138.92L114.271 139.176C114.214 139.026 114.13 138.879 114.019 138.737C113.911 138.592 113.763 138.473 113.576 138.379C113.388 138.286 113.148 138.239 112.856 138.239C112.455 138.239 112.121 138.331 111.854 138.516C111.59 138.697 111.458 138.929 111.458 139.21C111.458 139.46 111.549 139.658 111.731 139.803C111.913 139.947 112.197 140.068 112.583 140.165L113.555 140.403C114.14 140.545 114.576 140.763 114.863 141.055C115.15 141.345 115.293 141.719 115.293 142.176C115.293 142.551 115.185 142.886 114.969 143.182C114.756 143.477 114.458 143.71 114.075 143.881C113.691 144.051 113.245 144.136 112.737 144.136C112.069 144.136 111.516 143.991 111.079 143.702C110.641 143.412 110.364 142.989 110.248 142.432L111.202 142.193C111.293 142.545 111.465 142.81 111.718 142.986C111.974 143.162 112.308 143.25 112.719 143.25C113.188 143.25 113.56 143.151 113.836 142.952C114.114 142.75 114.254 142.509 114.254 142.227C114.254 142 114.174 141.81 114.015 141.656C113.856 141.5 113.612 141.384 113.282 141.307L112.191 141.051C111.592 140.909 111.151 140.689 110.87 140.391C110.592 140.089 110.452 139.713 110.452 139.261C110.452 138.892 110.556 138.565 110.763 138.281C110.974 137.997 111.259 137.774 111.62 137.612C111.984 137.45 112.396 137.369 112.856 137.369C113.504 137.369 114.012 137.511 114.381 137.795C114.754 138.08 115.018 138.455 115.174 138.92ZM117.455 146.455C117.284 146.455 117.132 146.44 116.999 146.412C116.865 146.386 116.773 146.361 116.722 146.335L116.978 145.449C117.222 145.511 117.438 145.534 117.625 145.517C117.813 145.5 117.979 145.416 118.124 145.266C118.272 145.118 118.407 144.878 118.529 144.545L118.716 144.034L116.296 137.455H117.387L119.194 142.67H119.262L121.069 137.455H122.159L119.381 144.955C119.256 145.293 119.101 145.572 118.917 145.794C118.732 146.018 118.517 146.185 118.273 146.293C118.032 146.401 117.759 146.455 117.455 146.455ZM127.237 139.79V140.727H123.419V139.79H127.237ZM15.767 157.455V158.307H12.375V157.455H15.767ZM13.3636 155.886H14.3693V162.125C14.3693 162.409 14.4105 162.622 14.4929 162.764C14.5781 162.903 14.6861 162.997 14.8168 163.045C14.9503 163.091 15.0909 163.114 15.2386 163.114C15.3494 163.114 15.4403 163.108 15.5114 163.097C15.5824 163.082 15.6392 163.071 15.6818 163.062L15.8864 163.966C15.8182 163.991 15.723 164.017 15.6009 164.043C15.4787 164.071 15.3239 164.085 15.1364 164.085C14.8523 164.085 14.5739 164.024 14.3011 163.902C14.0313 163.78 13.8068 163.594 13.6278 163.344C13.4517 163.094 13.3636 162.778 13.3636 162.398V155.886ZM19.8686 164.136C19.2777 164.136 18.7592 163.996 18.3132 163.714C17.87 163.433 17.5234 163.04 17.2734 162.534C17.0263 162.028 16.9027 161.437 16.9027 160.761C16.9027 160.08 17.0263 159.484 17.2734 158.976C17.5234 158.467 17.87 158.072 18.3132 157.791C18.7592 157.51 19.2777 157.369 19.8686 157.369C20.4595 157.369 20.9766 157.51 21.4197 157.791C21.8658 158.072 22.2124 158.467 22.4595 158.976C22.7095 159.484 22.8345 160.08 22.8345 160.761C22.8345 161.437 22.7095 162.028 22.4595 162.534C22.2124 163.04 21.8658 163.433 21.4197 163.714C20.9766 163.996 20.4595 164.136 19.8686 164.136ZM19.8686 163.233C20.3175 163.233 20.6868 163.118 20.9766 162.888C21.2663 162.658 21.4808 162.355 21.62 161.98C21.7592 161.605 21.8288 161.199 21.8288 160.761C21.8288 160.324 21.7592 159.916 21.62 159.538C21.4808 159.161 21.2663 158.855 20.9766 158.622C20.6868 158.389 20.3175 158.273 19.8686 158.273C19.4197 158.273 19.0504 158.389 18.7607 158.622C18.4709 158.855 18.2564 159.161 18.1172 159.538C17.978 159.916 17.9084 160.324 17.9084 160.761C17.9084 161.199 17.978 161.605 18.1172 161.98C18.2564 162.355 18.4709 162.658 18.7607 162.888C19.0504 163.118 19.4197 163.233 19.8686 163.233ZM28.1197 159.79V160.727H24.3015V159.79H28.1197ZM34.0142 161.324V157.455H35.0199V164H34.0142V162.892H33.946C33.7926 163.224 33.554 163.507 33.2301 163.74C32.9063 163.97 32.4972 164.085 32.0028 164.085C31.5938 164.085 31.2301 163.996 30.9119 163.817C30.5938 163.635 30.3438 163.362 30.1619 162.999C29.9801 162.632 29.8892 162.17 29.8892 161.614V157.455H30.8949V161.545C30.8949 162.023 31.0284 162.403 31.2955 162.688C31.5653 162.972 31.9091 163.114 32.3267 163.114C32.5767 163.114 32.831 163.05 33.0895 162.922C33.3509 162.794 33.5696 162.598 33.7457 162.334C33.9247 162.07 34.0142 161.733 34.0142 161.324ZM41.4982 158.92L40.5948 159.176C40.538 159.026 40.4542 158.879 40.3434 158.737C40.2354 158.592 40.0877 158.473 39.9002 158.379C39.7127 158.286 39.4727 158.239 39.18 158.239C38.7795 158.239 38.4457 158.331 38.1786 158.516C37.9144 158.697 37.7823 158.929 37.7823 159.21C37.7823 159.46 37.8732 159.658 38.055 159.803C38.2369 159.947 38.521 160.068 38.9073 160.165L39.8789 160.403C40.4641 160.545 40.9002 160.763 41.1871 161.055C41.4741 161.345 41.6175 161.719 41.6175 162.176C41.6175 162.551 41.5096 162.886 41.2937 163.182C41.0806 163.477 40.7823 163.71 40.3988 163.881C40.0153 164.051 39.5692 164.136 39.0607 164.136C38.3931 164.136 37.8406 163.991 37.4031 163.702C36.9656 163.412 36.6886 162.989 36.5721 162.432L37.5266 162.193C37.6175 162.545 37.7894 162.81 38.0423 162.986C38.2979 163.162 38.6317 163.25 39.0437 163.25C39.5124 163.25 39.8846 163.151 40.1602 162.952C40.4386 162.75 40.5778 162.509 40.5778 162.227C40.5778 162 40.4982 161.81 40.3391 161.656C40.18 161.5 39.9357 161.384 39.6062 161.307L38.5153 161.051C37.9158 160.909 37.4755 160.689 37.1942 160.391C36.9158 160.089 36.7766 159.713 36.7766 159.261C36.7766 158.892 36.8803 158.565 37.0877 158.281C37.2979 157.997 37.5835 157.774 37.9442 157.612C38.3079 157.45 38.7198 157.369 39.18 157.369C39.8278 157.369 40.3363 157.511 40.7056 157.795C41.0778 158.08 41.342 158.455 41.4982 158.92ZM45.8757 164.136C45.245 164.136 44.701 163.997 44.2436 163.719C43.7891 163.438 43.4382 163.045 43.1911 162.543C42.9467 162.037 42.8246 161.449 42.8246 160.778C42.8246 160.108 42.9467 159.517 43.1911 159.006C43.4382 158.491 43.782 158.091 44.2223 157.804C44.6655 157.514 45.1825 157.369 45.7734 157.369C46.1143 157.369 46.451 157.426 46.7834 157.54C47.1158 157.653 47.4183 157.838 47.6911 158.094C47.9638 158.347 48.1811 158.682 48.343 159.099C48.505 159.517 48.5859 160.031 48.5859 160.642V161.068H43.5405V160.199H47.5632C47.5632 159.83 47.4893 159.5 47.3416 159.21C47.1967 158.92 46.9893 158.692 46.7195 158.524C46.4524 158.357 46.1371 158.273 45.7734 158.273C45.3729 158.273 45.0263 158.372 44.7337 158.571C44.4439 158.767 44.2209 159.023 44.0646 159.338C43.9084 159.653 43.8303 159.991 43.8303 160.352V160.932C43.8303 161.426 43.9155 161.845 44.0859 162.189C44.2592 162.53 44.4993 162.79 44.8061 162.969C45.1129 163.145 45.4695 163.233 45.8757 163.233C46.1399 163.233 46.3786 163.196 46.5916 163.122C46.8075 163.045 46.9936 162.932 47.1499 162.781C47.3061 162.628 47.4268 162.437 47.5121 162.21L48.4837 162.483C48.3814 162.812 48.2095 163.102 47.968 163.352C47.7266 163.599 47.4283 163.793 47.0732 163.932C46.718 164.068 46.3189 164.136 45.8757 164.136ZM54.9737 164L52.9794 157.455H54.0362L55.451 162.466H55.5192L56.9169 157.455H57.9908L59.3714 162.449H59.4396L60.8544 157.455H61.9112L59.9169 164H58.9283L57.4964 158.972H57.3942L55.9624 164H54.9737ZM65.7624 164.136C65.1317 164.136 64.5877 163.997 64.1303 163.719C63.6758 163.438 63.3249 163.045 63.0778 162.543C62.8335 162.037 62.7113 161.449 62.7113 160.778C62.7113 160.108 62.8335 159.517 63.0778 159.006C63.3249 158.491 63.6687 158.091 64.109 157.804C64.5522 157.514 65.0692 157.369 65.6602 157.369C66.0011 157.369 66.3377 157.426 66.6701 157.54C67.0025 157.653 67.305 157.838 67.5778 158.094C67.8505 158.347 68.0678 158.682 68.2298 159.099C68.3917 159.517 68.4727 160.031 68.4727 160.642V161.068H63.4272V160.199H67.4499C67.4499 159.83 67.3761 159.5 67.2283 159.21C67.0835 158.92 66.8761 158.692 66.6062 158.524C66.3391 158.357 66.0238 158.273 65.6602 158.273C65.2596 158.273 64.913 158.372 64.6204 158.571C64.3306 158.767 64.1076 159.023 63.9513 159.338C63.7951 159.653 63.717 159.991 63.717 160.352V160.932C63.717 161.426 63.8022 161.845 63.9727 162.189C64.146 162.53 64.386 162.79 64.6928 162.969C64.9996 163.145 65.3562 163.233 65.7624 163.233C66.0266 163.233 66.2653 163.196 66.4783 163.122C66.6942 163.045 66.8803 162.932 67.0366 162.781C67.1928 162.628 67.3136 162.437 67.3988 162.21L68.3704 162.483C68.2681 162.812 68.0962 163.102 67.8548 163.352C67.6133 163.599 67.315 163.793 66.9599 163.932C66.6048 164.068 66.2056 164.136 65.7624 164.136ZM70.1388 164V155.273H71.1445V158.494H71.2298C71.3036 158.381 71.4059 158.236 71.5366 158.06C71.6701 157.881 71.8604 157.722 72.1076 157.582C72.3576 157.44 72.6957 157.369 73.1218 157.369C73.6729 157.369 74.1587 157.507 74.5792 157.783C74.9996 158.058 75.3278 158.449 75.5636 158.955C75.7994 159.46 75.9173 160.057 75.9173 160.744C75.9173 161.438 75.7994 162.038 75.5636 162.547C75.3278 163.053 75.0011 163.445 74.5835 163.723C74.1658 163.999 73.6843 164.136 73.1388 164.136C72.7184 164.136 72.3817 164.067 72.1289 163.928C71.8761 163.786 71.6815 163.625 71.5451 163.446C71.4087 163.264 71.3036 163.114 71.2298 162.994H71.1104V164H70.1388ZM71.1275 160.727C71.1275 161.222 71.1999 161.658 71.3448 162.036C71.4897 162.411 71.7013 162.705 71.9798 162.918C72.2582 163.128 72.5991 163.233 73.0025 163.233C73.4229 163.233 73.7738 163.122 74.055 162.901C74.3391 162.676 74.5522 162.375 74.6942 161.997C74.8391 161.616 74.9116 161.193 74.9116 160.727C74.9116 160.267 74.8406 159.852 74.6985 159.483C74.5593 159.111 74.3477 158.817 74.0636 158.601C73.7823 158.382 73.4286 158.273 73.0025 158.273C72.5934 158.273 72.2496 158.376 71.9712 158.584C71.6928 158.788 71.4826 159.075 71.3406 159.445C71.1985 159.811 71.1275 160.239 71.1275 160.727ZM82.092 158.92L81.1886 159.176C81.1317 159.026 81.0479 158.879 80.9371 158.737C80.8292 158.592 80.6815 158.473 80.494 158.379C80.3065 158.286 80.0664 158.239 79.7738 158.239C79.3732 158.239 79.0394 158.331 78.7724 158.516C78.5082 158.697 78.3761 158.929 78.3761 159.21C78.3761 159.46 78.467 159.658 78.6488 159.803C78.8306 159.947 79.1147 160.068 79.5011 160.165L80.4727 160.403C81.0579 160.545 81.494 160.763 81.7809 161.055C82.0678 161.345 82.2113 161.719 82.2113 162.176C82.2113 162.551 82.1033 162.886 81.8874 163.182C81.6744 163.477 81.3761 163.71 80.9925 163.881C80.609 164.051 80.163 164.136 79.6545 164.136C78.9869 164.136 78.4343 163.991 77.9968 163.702C77.5593 163.412 77.2823 162.989 77.1658 162.432L78.1204 162.193C78.2113 162.545 78.3832 162.81 78.636 162.986C78.8917 163.162 79.2255 163.25 79.6374 163.25C80.1062 163.25 80.4783 163.151 80.7539 162.952C81.0323 162.75 81.1715 162.509 81.1715 162.227C81.1715 162 81.092 161.81 80.9329 161.656C80.7738 161.5 80.5295 161.384 80.1999 161.307L79.109 161.051C78.5096 160.909 78.0692 160.689 77.788 160.391C77.5096 160.089 77.3704 159.713 77.3704 159.261C77.3704 158.892 77.4741 158.565 77.6815 158.281C77.8917 157.997 78.1772 157.774 78.538 157.612C78.9016 157.45 79.3136 157.369 79.7738 157.369C80.4215 157.369 80.93 157.511 81.2994 157.795C81.6715 158.08 81.9357 158.455 82.092 158.92ZM83.7251 164V157.455H84.7308V164H83.7251ZM84.2365 156.364C84.0405 156.364 83.8714 156.297 83.7294 156.163C83.5902 156.03 83.5206 155.869 83.5206 155.682C83.5206 155.494 83.5902 155.334 83.7294 155.2C83.8714 155.067 84.0405 155 84.2365 155C84.4325 155 84.6001 155.067 84.7393 155.2C84.8814 155.334 84.9524 155.494 84.9524 155.682C84.9524 155.869 84.8814 156.03 84.7393 156.163C84.6001 156.297 84.4325 156.364 84.2365 156.364ZM89.4194 157.455V158.307H86.0273V157.455H89.4194ZM87.016 155.886H88.0217V162.125C88.0217 162.409 88.0629 162.622 88.1452 162.764C88.2305 162.903 88.3384 162.997 88.4691 163.045C88.6026 163.091 88.7433 163.114 88.891 163.114C89.0018 163.114 89.0927 163.108 89.1637 163.097C89.2347 163.082 89.2915 163.071 89.3342 163.062L89.5387 163.966C89.4705 163.991 89.3754 164.017 89.2532 164.043C89.131 164.071 88.9762 164.085 88.7887 164.085C88.5046 164.085 88.2262 164.024 87.9535 163.902C87.6836 163.78 87.4592 163.594 87.2802 163.344C87.104 163.094 87.016 162.778 87.016 162.398V155.886ZM93.6062 164.136C92.9755 164.136 92.4315 163.997 91.9741 163.719C91.5195 163.438 91.1687 163.045 90.9215 162.543C90.6772 162.037 90.555 161.449 90.555 160.778C90.555 160.108 90.6772 159.517 90.9215 159.006C91.1687 158.491 91.5124 158.091 91.9528 157.804C92.396 157.514 92.913 157.369 93.5039 157.369C93.8448 157.369 94.1815 157.426 94.5138 157.54C94.8462 157.653 95.1488 157.838 95.4215 158.094C95.6942 158.347 95.9116 158.682 96.0735 159.099C96.2354 159.517 96.3164 160.031 96.3164 160.642V161.068H91.271V160.199H95.2937C95.2937 159.83 95.2198 159.5 95.0721 159.21C94.9272 158.92 94.7198 158.692 94.4499 158.524C94.1829 158.357 93.8675 158.273 93.5039 158.273C93.1033 158.273 92.7567 158.372 92.4641 158.571C92.1744 158.767 91.9513 159.023 91.7951 159.338C91.6388 159.653 91.5607 159.991 91.5607 160.352V160.932C91.5607 161.426 91.646 161.845 91.8164 162.189C91.9897 162.53 92.2298 162.79 92.5366 162.969C92.8434 163.145 93.1999 163.233 93.6062 163.233C93.8704 163.233 94.109 163.196 94.3221 163.122C94.538 163.045 94.7241 162.932 94.8803 162.781C95.0366 162.628 95.1573 162.437 95.2425 162.21L96.2141 162.483C96.1119 162.812 95.94 163.102 95.6985 163.352C95.457 163.599 95.1587 163.793 94.8036 163.932C94.4485 164.068 94.0494 164.136 93.6062 164.136ZM98.5792 164.068C98.369 164.068 98.1886 163.993 98.038 163.842C97.8874 163.692 97.8121 163.511 97.8121 163.301C97.8121 163.091 97.8874 162.911 98.038 162.76C98.1886 162.609 98.369 162.534 98.5792 162.534C98.7894 162.534 98.9698 162.609 99.1204 162.76C99.271 162.911 99.3462 163.091 99.3462 163.301C99.3462 163.44 99.3107 163.568 99.2397 163.685C99.1715 163.801 99.0792 163.895 98.9627 163.966C98.8491 164.034 98.7212 164.068 98.5792 164.068Z" fill="#E0E0E0"/>
<rect x="12" y="196" width="126" height="42" rx="21" fill="white"/>
<path d="M38.7074 215.111H37.3778C37.3267 214.827 37.2315 214.577 37.0923 214.361C36.9531 214.145 36.7827 213.962 36.581 213.811C36.3793 213.661 36.1534 213.547 35.9034 213.47C35.6563 213.393 35.3935 213.355 35.1151 213.355C34.6122 213.355 34.1619 213.482 33.7642 213.734C33.3693 213.987 33.0568 214.358 32.8267 214.847C32.5994 215.335 32.4858 215.932 32.4858 216.636C32.4858 217.347 32.5994 217.946 32.8267 218.435C33.0568 218.923 33.3707 219.293 33.7685 219.543C34.1662 219.793 34.6136 219.918 35.1108 219.918C35.3864 219.918 35.6477 219.881 35.8949 219.807C36.1449 219.73 36.3707 219.618 36.5724 219.47C36.7741 219.322 36.9446 219.142 37.0838 218.929C37.2259 218.713 37.3239 218.466 37.3778 218.188L38.7074 218.192C38.6364 218.621 38.4986 219.016 38.294 219.376C38.0923 219.734 37.8324 220.044 37.5142 220.305C37.1989 220.564 36.8381 220.764 36.4318 220.906C36.0256 221.048 35.5824 221.119 35.1023 221.119C34.3466 221.119 33.6733 220.94 33.0824 220.582C32.4915 220.222 32.0256 219.706 31.6847 219.036C31.3466 218.365 31.1776 217.565 31.1776 216.636C31.1776 215.705 31.348 214.905 31.6889 214.237C32.0298 213.567 32.4957 213.053 33.0866 212.695C33.6776 212.334 34.3494 212.153 35.1023 212.153C35.5653 212.153 35.9972 212.22 36.3977 212.354C36.8011 212.484 37.1634 212.678 37.4844 212.933C37.8054 213.186 38.071 213.496 38.2812 213.862C38.4915 214.226 38.6335 214.642 38.7074 215.111ZM42.9379 221.132C42.3242 221.132 41.7887 220.991 41.3313 220.71C40.8739 220.429 40.5188 220.036 40.266 219.53C40.0131 219.024 39.8867 218.433 39.8867 217.757C39.8867 217.078 40.0131 216.484 40.266 215.976C40.5188 215.467 40.8739 215.072 41.3313 214.791C41.7887 214.51 42.3242 214.369 42.9379 214.369C43.5515 214.369 44.087 214.51 44.5444 214.791C45.0018 215.072 45.3569 215.467 45.6097 215.976C45.8626 216.484 45.989 217.078 45.989 217.757C45.989 218.433 45.8626 219.024 45.6097 219.53C45.3569 220.036 45.0018 220.429 44.5444 220.71C44.087 220.991 43.5515 221.132 42.9379 221.132ZM42.9421 220.062C43.3398 220.062 43.6694 219.957 43.9308 219.747C44.1921 219.537 44.3853 219.257 44.5103 218.908C44.6381 218.558 44.7021 218.173 44.7021 217.753C44.7021 217.335 44.6381 216.952 44.5103 216.602C44.3853 216.25 44.1921 215.967 43.9308 215.754C43.6694 215.541 43.3398 215.435 42.9421 215.435C42.5415 215.435 42.2092 215.541 41.945 215.754C41.6836 215.967 41.489 216.25 41.3612 216.602C41.2362 216.952 41.1737 217.335 41.1737 217.753C41.1737 218.173 41.2362 218.558 41.3612 218.908C41.489 219.257 41.6836 219.537 41.945 219.747C42.2092 219.957 42.5415 220.062 42.9421 220.062ZM48.6854 217.114V221H47.4112V214.455H48.6342V215.52H48.7152C48.8658 215.173 49.1016 214.895 49.4226 214.685C49.7464 214.474 50.1541 214.369 50.6456 214.369C51.0916 214.369 51.4822 214.463 51.8175 214.651C52.1527 214.835 52.4126 215.111 52.5973 215.477C52.782 215.844 52.8743 216.297 52.8743 216.837V221H51.6001V216.99C51.6001 216.516 51.4766 216.145 51.2294 215.878C50.9822 215.608 50.6428 215.473 50.2109 215.473C49.9155 215.473 49.6527 215.537 49.4226 215.665C49.1953 215.793 49.0149 215.98 48.8814 216.227C48.7507 216.472 48.6854 216.767 48.6854 217.114ZM57.6385 214.455V215.477H54.0632V214.455H57.6385ZM55.022 212.886H56.2962V219.078C56.2962 219.325 56.3331 219.511 56.407 219.636C56.4808 219.759 56.576 219.842 56.6925 219.888C56.8118 219.93 56.9411 219.952 57.0803 219.952C57.1825 219.952 57.272 219.945 57.3487 219.93C57.4254 219.916 57.4851 219.905 57.5277 219.896L57.7578 220.949C57.6839 220.977 57.5788 221.006 57.4425 221.034C57.3061 221.065 57.1357 221.082 56.9311 221.085C56.5959 221.091 56.2834 221.031 55.9936 220.906C55.7038 220.781 55.4695 220.588 55.2905 220.327C55.1115 220.065 55.022 219.737 55.022 219.342V212.886ZM60.9528 221.145C60.538 221.145 60.163 221.068 59.8278 220.915C59.4925 220.759 59.2269 220.533 59.0309 220.237C58.8377 219.942 58.7411 219.58 58.7411 219.151C58.7411 218.781 58.8121 218.477 58.9542 218.239C59.0962 218 59.288 217.811 59.5295 217.672C59.771 217.533 60.0408 217.428 60.3391 217.357C60.6374 217.286 60.9414 217.232 61.2511 217.195C61.6431 217.149 61.9613 217.112 62.2056 217.084C62.4499 217.053 62.6275 217.003 62.7383 216.935C62.8491 216.866 62.9045 216.756 62.9045 216.602V216.572C62.9045 216.2 62.7994 215.912 62.5891 215.707C62.3817 215.503 62.0721 215.401 61.6602 215.401C61.2312 215.401 60.8931 215.496 60.646 215.686C60.4016 215.874 60.2326 216.082 60.1388 216.312L58.9414 216.04C59.0835 215.642 59.2908 215.321 59.5636 215.077C59.8391 214.83 60.1559 214.651 60.5138 214.54C60.8718 214.426 61.2482 214.369 61.6431 214.369C61.9045 214.369 62.1815 214.401 62.4741 214.463C62.7695 214.523 63.0451 214.634 63.3008 214.795C63.5593 214.957 63.771 215.189 63.9357 215.49C64.1005 215.788 64.1829 216.176 64.1829 216.653V221H62.9386V220.105H62.8874C62.805 220.27 62.6815 220.432 62.5167 220.591C62.3519 220.75 62.1403 220.882 61.8817 220.987C61.6232 221.092 61.3136 221.145 60.9528 221.145ZM61.2298 220.122C61.582 220.122 61.8832 220.053 62.1332 219.913C62.386 219.774 62.5778 219.592 62.7085 219.368C62.842 219.141 62.9087 218.898 62.9087 218.639V217.795C62.8633 217.841 62.7752 217.884 62.6445 217.923C62.5167 217.96 62.3704 217.993 62.2056 218.021C62.0408 218.047 61.8803 218.071 61.7241 218.094C61.5678 218.114 61.4371 218.131 61.332 218.145C61.0849 218.176 60.859 218.229 60.6545 218.303C60.4528 218.376 60.2908 218.483 60.1687 218.622C60.0494 218.759 59.9897 218.94 59.9897 219.168C59.9897 219.483 60.1062 219.722 60.3391 219.884C60.5721 220.043 60.869 220.122 61.2298 220.122ZM68.6371 221.132C68.0036 221.132 67.4581 220.989 67.0007 220.702C66.5462 220.412 66.1967 220.013 65.9524 219.504C65.7081 218.996 65.5859 218.413 65.5859 217.757C65.5859 217.092 65.7109 216.506 65.9609 215.997C66.2109 215.486 66.5632 215.087 67.0178 214.8C67.4723 214.513 68.0078 214.369 68.6243 214.369C69.1214 214.369 69.5646 214.462 69.9538 214.646C70.343 214.828 70.657 215.084 70.8956 215.413C71.1371 215.743 71.2805 216.128 71.326 216.568H70.0859C70.0178 216.261 69.8615 215.997 69.6172 215.776C69.3757 215.554 69.0518 215.443 68.6456 215.443C68.2905 215.443 67.9794 215.537 67.7124 215.724C67.4482 215.909 67.2422 216.173 67.0945 216.517C66.9467 216.858 66.8729 217.261 66.8729 217.727C66.8729 218.205 66.9453 218.616 67.0902 218.963C67.2351 219.31 67.4396 219.578 67.7038 219.768C67.9709 219.959 68.2848 220.054 68.6456 220.054C68.8871 220.054 69.1058 220.01 69.3018 219.922C69.5007 219.831 69.6669 219.702 69.8004 219.534C69.9368 219.366 70.032 219.165 70.0859 218.929H71.326C71.2805 219.352 71.1428 219.73 70.9126 220.062C70.6825 220.395 70.3743 220.656 69.9879 220.847C69.6044 221.037 69.1541 221.132 68.6371 221.132ZM75.744 214.455V215.477H72.1687V214.455H75.744ZM73.1275 212.886H74.4016V219.078C74.4016 219.325 74.4386 219.511 74.5124 219.636C74.5863 219.759 74.6815 219.842 74.7979 219.888C74.9173 219.93 75.0465 219.952 75.1857 219.952C75.288 219.952 75.3775 219.945 75.4542 219.93C75.5309 219.916 75.5906 219.905 75.6332 219.896L75.8633 220.949C75.7894 220.977 75.6843 221.006 75.5479 221.034C75.4116 221.065 75.2411 221.082 75.0366 221.085C74.7013 221.091 74.3888 221.031 74.0991 220.906C73.8093 220.781 73.5749 220.588 73.396 220.327C73.217 220.065 73.1275 219.737 73.1275 219.342V212.886ZM86.0437 212.273H87.3647V218.013C87.3647 218.624 87.2212 219.165 86.9343 219.636C86.6474 220.105 86.244 220.474 85.7241 220.744C85.2042 221.011 84.5948 221.145 83.896 221.145C83.1999 221.145 82.592 221.011 82.0721 220.744C81.5522 220.474 81.1488 220.105 80.8619 219.636C80.5749 219.165 80.4315 218.624 80.4315 218.013V212.273H81.7482V217.906C81.7482 218.301 81.8349 218.652 82.0082 218.959C82.1843 219.266 82.4329 219.507 82.7539 219.683C83.0749 219.857 83.4556 219.943 83.896 219.943C84.3391 219.943 84.7212 219.857 85.0423 219.683C85.3661 219.507 85.6133 219.266 85.7837 218.959C85.957 218.652 86.0437 218.301 86.0437 217.906V212.273ZM94.0817 216.053L92.9268 216.257C92.8786 216.109 92.8018 215.969 92.6967 215.835C92.5945 215.702 92.4553 215.592 92.2791 215.507C92.103 215.422 91.8828 215.379 91.6186 215.379C91.2578 215.379 90.9567 215.46 90.7152 215.622C90.4737 215.781 90.353 215.987 90.353 216.24C90.353 216.459 90.4339 216.635 90.5959 216.768C90.7578 216.902 91.0192 217.011 91.38 217.097L92.4197 217.335C93.022 217.474 93.4709 217.689 93.7663 217.979C94.0618 218.268 94.2095 218.645 94.2095 219.108C94.2095 219.5 94.0959 219.849 93.8686 220.156C93.6442 220.46 93.3303 220.699 92.9268 220.872C92.5263 221.045 92.0618 221.132 91.5334 221.132C90.8004 221.132 90.2024 220.976 89.7393 220.663C89.2763 220.348 88.9922 219.901 88.8871 219.321L90.1186 219.134C90.1953 219.455 90.353 219.697 90.5916 219.862C90.8303 220.024 91.1413 220.105 91.5249 220.105C91.9425 220.105 92.2763 220.018 92.5263 219.845C92.7763 219.669 92.9013 219.455 92.9013 219.202C92.9013 218.997 92.8246 218.825 92.6712 218.686C92.5206 218.547 92.2891 218.442 91.9766 218.371L90.8686 218.128C90.2578 217.989 89.8061 217.767 89.5135 217.463C89.2237 217.159 89.0788 216.774 89.0788 216.308C89.0788 215.922 89.1868 215.584 89.4027 215.294C89.6186 215.004 89.9169 214.778 90.2976 214.616C90.6783 214.452 91.1143 214.369 91.6058 214.369C92.3132 214.369 92.87 214.523 93.2763 214.83C93.6825 215.134 93.951 215.541 94.0817 216.053Z" fill="black"/>
<path d="M106.833 217H116.167M116.167 217L111.5 212.333M116.167 217L111.5 221.667" stroke="black" stroke-width="2" stroke-linecap="round" stroke-linejoin="round"/>
</svg>
