<svg width="232" height="84" viewBox="0 0 232 84" fill="none" xmlns="http://www.w3.org/2000/svg">
<rect opacity="0.6" width="232" height="84" rx="38" fill="#E0E0E0"/>
<circle cx="42" cy="43" r="24" fill="white"/>
<path d="M44.1755 35.2222C44.1766 33.9945 41.6731 33 38.5883 33C35.5036 33 33.0022 33.9956 33 35.2222M33 35.2222C33 36.45 35.5013 37.4445 38.5883 37.4445C41.6753 37.4445 44.1766 36.45 44.1766 35.2222L44.1766 43.8445M33 35.2222V48.5556C33.0011 49.7834 35.5024 50.7779 38.5883 50.7779C40.0849 50.7779 41.4361 50.5412 42.4387 50.1601M33.0011 39.6667C33.0011 40.8945 35.5024 41.889 38.5894 41.889C41.6764 41.889 44.1778 40.8945 44.1778 39.6667M42.5057 45.6946C41.4976 46.0891 40.115 46.3335 38.5883 46.3335C35.5024 46.3335 33.0011 45.3391 33.0011 44.1113M50.5272 44.4646C52.4909 46.4169 52.4909 49.5836 50.5272 51.5358C48.5635 53.4881 45.3781 53.4881 43.4144 51.5358C41.4507 49.5836 41.4507 46.4169 43.4144 44.4646C45.3781 42.5124 48.5635 42.5124 50.5272 44.4646Z" stroke="#101828" stroke-width="2" stroke-linecap="round" stroke-linejoin="round"/>
<path d="M79.824 49V37.8H84.656C85.904 37.8 86.8693 38.0507 87.552 38.552C88.2453 39.0533 88.592 39.7627 88.592 40.68C88.592 41.288 88.448 41.8 88.16 42.216C87.8827 42.632 87.4987 42.9467 87.008 43.16C86.528 43.3733 86 43.48 85.424 43.48L85.696 43.096C86.4107 43.096 87.024 43.208 87.536 43.432C88.0587 43.6453 88.464 43.9707 88.752 44.408C89.04 44.8347 89.184 45.368 89.184 46.008C89.184 46.9573 88.832 47.6933 88.128 48.216C87.4347 48.7387 86.384 49 84.976 49H79.824ZM81.008 48.024H84.96C85.9413 48.024 86.6933 47.8587 87.216 47.528C87.7387 47.1867 88 46.648 88 45.912C88 45.1867 87.7387 44.6587 87.216 44.328C86.6933 43.9867 85.9413 43.816 84.96 43.816H80.88V42.84H84.576C85.472 42.84 86.1653 42.6693 86.656 42.328C87.1573 41.9867 87.408 41.48 87.408 40.808C87.408 40.1253 87.1573 39.6187 86.656 39.288C86.1653 38.9467 85.472 38.776 84.576 38.776H81.008V48.024ZM95.1185 49.08C94.4038 49.08 93.7798 48.9467 93.2465 48.68C92.7132 48.4133 92.2972 48.0133 91.9985 47.48C91.7105 46.9467 91.5665 46.28 91.5665 45.48V40.6H92.7025V45.352C92.7025 46.248 92.9212 46.9253 93.3585 47.384C93.8065 47.832 94.4305 48.056 95.2305 48.056C95.8172 48.056 96.3238 47.9387 96.7505 47.704C97.1878 47.4587 97.5185 47.1067 97.7425 46.648C97.9772 46.1893 98.0945 45.64 98.0945 45V40.6H99.2305V49H98.1425V46.696L98.3185 47.112C98.0518 47.7307 97.6358 48.216 97.0705 48.568C96.5158 48.9093 95.8652 49.08 95.1185 49.08ZM104.653 49.08C103.959 49.08 103.303 48.984 102.685 48.792C102.066 48.5893 101.581 48.3387 101.229 48.04L101.741 47.144C102.082 47.4 102.519 47.624 103.053 47.816C103.586 47.9973 104.146 48.088 104.733 48.088C105.533 48.088 106.109 47.9653 106.461 47.72C106.813 47.464 106.989 47.128 106.989 46.712C106.989 46.4027 106.887 46.1627 106.685 45.992C106.493 45.8107 106.237 45.6773 105.917 45.592C105.597 45.496 105.239 45.416 104.845 45.352C104.45 45.288 104.055 45.2133 103.661 45.128C103.277 45.0427 102.925 44.92 102.605 44.76C102.285 44.5893 102.023 44.36 101.821 44.072C101.629 43.784 101.533 43.4 101.533 42.92C101.533 42.4613 101.661 42.0507 101.917 41.688C102.173 41.3253 102.546 41.0427 103.037 40.84C103.538 40.6267 104.146 40.52 104.861 40.52C105.405 40.52 105.949 40.5947 106.493 40.744C107.037 40.8827 107.485 41.0693 107.837 41.304L107.341 42.216C106.967 41.96 106.567 41.7787 106.141 41.672C105.714 41.5547 105.287 41.496 104.861 41.496C104.103 41.496 103.543 41.6293 103.181 41.896C102.829 42.152 102.653 42.4827 102.653 42.888C102.653 43.208 102.749 43.4587 102.941 43.64C103.143 43.8213 103.405 43.9653 103.725 44.072C104.055 44.168 104.413 44.248 104.797 44.312C105.191 44.376 105.581 44.456 105.965 44.552C106.359 44.6373 106.717 44.76 107.037 44.92C107.367 45.0693 107.629 45.288 107.821 45.576C108.023 45.8533 108.125 46.2213 108.125 46.68C108.125 47.1707 107.986 47.5973 107.709 47.96C107.442 48.312 107.047 48.5893 106.525 48.792C106.013 48.984 105.389 49.08 104.653 49.08ZM110.209 49V40.6H111.345V49H110.209ZM110.785 38.744C110.55 38.744 110.353 38.664 110.193 38.504C110.033 38.344 109.953 38.152 109.953 37.928C109.953 37.704 110.033 37.5173 110.193 37.368C110.353 37.208 110.55 37.128 110.785 37.128C111.02 37.128 111.217 37.2027 111.377 37.352C111.537 37.5013 111.617 37.688 111.617 37.912C111.617 38.1467 111.537 38.344 111.377 38.504C111.228 38.664 111.03 38.744 110.785 38.744ZM118.794 40.52C119.477 40.52 120.074 40.6533 120.586 40.92C121.109 41.176 121.514 41.5707 121.802 42.104C122.101 42.6373 122.25 43.3093 122.25 44.12V49H121.114V44.232C121.114 43.3467 120.89 42.68 120.442 42.232C120.005 41.7733 119.386 41.544 118.586 41.544C117.989 41.544 117.466 41.6667 117.018 41.912C116.581 42.1467 116.239 42.4933 115.994 42.952C115.759 43.4 115.642 43.944 115.642 44.584V49H114.506V40.6H115.594V42.904L115.418 42.472C115.685 41.864 116.111 41.3893 116.698 41.048C117.285 40.696 117.983 40.52 118.794 40.52ZM128.886 49.08C128.012 49.08 127.244 48.8987 126.582 48.536C125.921 48.1627 125.404 47.656 125.03 47.016C124.657 46.3653 124.47 45.624 124.47 44.792C124.47 43.96 124.646 43.224 124.998 42.584C125.361 41.944 125.852 41.4427 126.47 41.08C127.1 40.7067 127.804 40.52 128.582 40.52C129.372 40.52 130.07 40.7013 130.678 41.064C131.297 41.416 131.782 41.9173 132.134 42.568C132.486 43.208 132.662 43.9493 132.662 44.792C132.662 44.8453 132.657 44.904 132.646 44.968C132.646 45.0213 132.646 45.08 132.646 45.144H125.334V44.296H132.038L131.59 44.632C131.59 44.024 131.457 43.4853 131.19 43.016C130.934 42.536 130.582 42.1627 130.134 41.896C129.686 41.6293 129.169 41.496 128.582 41.496C128.006 41.496 127.489 41.6293 127.03 41.896C126.572 42.1627 126.214 42.536 125.958 43.016C125.702 43.496 125.574 44.0453 125.574 44.664V44.84C125.574 45.48 125.713 46.0453 125.99 46.536C126.278 47.016 126.673 47.3947 127.174 47.672C127.686 47.9387 128.268 48.072 128.918 48.072C129.43 48.072 129.905 47.9813 130.342 47.8C130.79 47.6187 131.174 47.3413 131.494 46.968L132.134 47.704C131.761 48.152 131.292 48.4933 130.726 48.728C130.172 48.9627 129.558 49.08 128.886 49.08ZM137.231 49.08C136.537 49.08 135.881 48.984 135.263 48.792C134.644 48.5893 134.159 48.3387 133.807 48.04L134.319 47.144C134.66 47.4 135.097 47.624 135.631 47.816C136.164 47.9973 136.724 48.088 137.311 48.088C138.111 48.088 138.687 47.9653 139.039 47.72C139.391 47.464 139.567 47.128 139.567 46.712C139.567 46.4027 139.465 46.1627 139.263 45.992C139.071 45.8107 138.815 45.6773 138.495 45.592C138.175 45.496 137.817 45.416 137.423 45.352C137.028 45.288 136.633 45.2133 136.239 45.128C135.855 45.0427 135.503 44.92 135.183 44.76C134.863 44.5893 134.601 44.36 134.399 44.072C134.207 43.784 134.111 43.4 134.111 42.92C134.111 42.4613 134.239 42.0507 134.495 41.688C134.751 41.3253 135.124 41.0427 135.615 40.84C136.116 40.6267 136.724 40.52 137.439 40.52C137.983 40.52 138.527 40.5947 139.071 40.744C139.615 40.8827 140.063 41.0693 140.415 41.304L139.919 42.216C139.545 41.96 139.145 41.7787 138.719 41.672C138.292 41.5547 137.865 41.496 137.439 41.496C136.681 41.496 136.121 41.6293 135.759 41.896C135.407 42.152 135.231 42.4827 135.231 42.888C135.231 43.208 135.327 43.4587 135.519 43.64C135.721 43.8213 135.983 43.9653 136.303 44.072C136.633 44.168 136.991 44.248 137.375 44.312C137.769 44.376 138.159 44.456 138.543 44.552C138.937 44.6373 139.295 44.76 139.615 44.92C139.945 45.0693 140.207 45.288 140.399 45.576C140.601 45.8533 140.703 46.2213 140.703 46.68C140.703 47.1707 140.564 47.5973 140.287 47.96C140.02 48.312 139.625 48.5893 139.103 48.792C138.591 48.984 137.967 49.08 137.231 49.08ZM145.043 49.08C144.35 49.08 143.694 48.984 143.075 48.792C142.456 48.5893 141.971 48.3387 141.619 48.04L142.131 47.144C142.472 47.4 142.91 47.624 143.443 47.816C143.976 47.9973 144.536 48.088 145.123 48.088C145.923 48.088 146.499 47.9653 146.851 47.72C147.203 47.464 147.379 47.128 147.379 46.712C147.379 46.4027 147.278 46.1627 147.075 45.992C146.883 45.8107 146.627 45.6773 146.307 45.592C145.987 45.496 145.63 45.416 145.235 45.352C144.84 45.288 144.446 45.2133 144.051 45.128C143.667 45.0427 143.315 44.92 142.995 44.76C142.675 44.5893 142.414 44.36 142.211 44.072C142.019 43.784 141.923 43.4 141.923 42.92C141.923 42.4613 142.051 42.0507 142.307 41.688C142.563 41.3253 142.936 41.0427 143.427 40.84C143.928 40.6267 144.536 40.52 145.251 40.52C145.795 40.52 146.339 40.5947 146.883 40.744C147.427 40.8827 147.875 41.0693 148.227 41.304L147.731 42.216C147.358 41.96 146.958 41.7787 146.531 41.672C146.104 41.5547 145.678 41.496 145.251 41.496C144.494 41.496 143.934 41.6293 143.571 41.896C143.219 42.152 143.043 42.4827 143.043 42.888C143.043 43.208 143.139 43.4587 143.331 43.64C143.534 43.8213 143.795 43.9653 144.115 44.072C144.446 44.168 144.803 44.248 145.187 44.312C145.582 44.376 145.971 44.456 146.355 44.552C146.75 44.6373 147.107 44.76 147.427 44.92C147.758 45.0693 148.019 45.288 148.211 45.576C148.414 45.8533 148.515 46.2213 148.515 46.68C148.515 47.1707 148.376 47.5973 148.099 47.96C147.832 48.312 147.438 48.5893 146.915 48.792C146.403 48.984 145.779 49.08 145.043 49.08ZM159.939 49.096C159.086 49.096 158.296 48.9573 157.571 48.68C156.856 48.392 156.232 47.992 155.699 47.48C155.176 46.968 154.766 46.3653 154.467 45.672C154.179 44.9787 154.035 44.2213 154.035 43.4C154.035 42.5787 154.179 41.8213 154.467 41.128C154.766 40.4347 155.182 39.832 155.715 39.32C156.248 38.808 156.872 38.4133 157.587 38.136C158.312 37.848 159.102 37.704 159.955 37.704C160.808 37.704 161.587 37.8373 162.291 38.104C163.006 38.3707 163.614 38.776 164.115 39.32L163.379 40.072C162.91 39.6027 162.392 39.2667 161.827 39.064C161.262 38.8613 160.654 38.76 160.003 38.76C159.31 38.76 158.67 38.8773 158.083 39.112C157.507 39.336 157 39.6613 156.563 40.088C156.136 40.504 155.8 40.9947 155.555 41.56C155.32 42.1147 155.203 42.728 155.203 43.4C155.203 44.0613 155.32 44.6747 155.555 45.24C155.8 45.8053 156.136 46.3013 156.563 46.728C157 47.144 157.507 47.4693 158.083 47.704C158.67 47.928 159.304 48.04 159.987 48.04C160.627 48.04 161.23 47.944 161.795 47.752C162.371 47.56 162.899 47.2347 163.379 46.776L164.051 47.672C163.518 48.1413 162.894 48.4987 162.179 48.744C161.464 48.9787 160.718 49.096 159.939 49.096ZM162.915 47.528V43.4H164.051V47.672L162.915 47.528ZM167.162 49V40.6H168.25V42.888L168.138 42.488C168.373 41.848 168.767 41.3627 169.322 41.032C169.877 40.6907 170.565 40.52 171.386 40.52V41.624C171.343 41.624 171.301 41.624 171.258 41.624C171.215 41.6133 171.173 41.608 171.13 41.608C170.245 41.608 169.551 41.88 169.05 42.424C168.549 42.9573 168.298 43.72 168.298 44.712V49H167.162ZM176.805 49.08C175.994 49.08 175.264 48.8987 174.613 48.536C173.973 48.1627 173.466 47.656 173.093 47.016C172.72 46.3653 172.533 45.624 172.533 44.792C172.533 43.9493 172.72 43.208 173.093 42.568C173.466 41.928 173.973 41.4267 174.613 41.064C175.253 40.7013 175.984 40.52 176.805 40.52C177.637 40.52 178.373 40.7013 179.013 41.064C179.664 41.4267 180.17 41.928 180.533 42.568C180.906 43.208 181.093 43.9493 181.093 44.792C181.093 45.624 180.906 46.3653 180.533 47.016C180.17 47.656 179.664 48.1627 179.013 48.536C178.362 48.8987 177.626 49.08 176.805 49.08ZM176.805 48.072C177.413 48.072 177.952 47.9387 178.421 47.672C178.89 47.3947 179.258 47.0107 179.525 46.52C179.802 46.0187 179.941 45.4427 179.941 44.792C179.941 44.1307 179.802 43.5547 179.525 43.064C179.258 42.5733 178.89 42.1947 178.421 41.928C177.952 41.6507 177.418 41.512 176.821 41.512C176.224 41.512 175.69 41.6507 175.221 41.928C174.752 42.1947 174.378 42.5733 174.101 43.064C173.824 43.5547 173.685 44.1307 173.685 44.792C173.685 45.4427 173.824 46.0187 174.101 46.52C174.378 47.0107 174.752 47.3947 175.221 47.672C175.69 47.9387 176.218 48.072 176.805 48.072ZM184.89 49L181.722 40.6H182.81L185.69 48.392H185.194L188.154 40.6H189.13L192.058 48.392H191.562L194.49 40.6H195.53L192.346 49H191.274L188.458 41.672H188.794L185.962 49H184.89ZM200.131 49.08C199.341 49.08 198.733 48.8667 198.307 48.44C197.88 48.0133 197.667 47.4107 197.667 46.632V38.744H198.803V46.568C198.803 47.0587 198.925 47.4373 199.171 47.704C199.427 47.9707 199.789 48.104 200.259 48.104C200.76 48.104 201.176 47.96 201.507 47.672L201.907 48.488C201.683 48.6907 201.411 48.84 201.091 48.936C200.781 49.032 200.461 49.08 200.131 49.08ZM196.163 41.544V40.6H201.363V41.544H196.163ZM208.263 40.52C208.945 40.52 209.543 40.6533 210.055 40.92C210.577 41.176 210.983 41.5707 211.271 42.104C211.569 42.6373 211.719 43.3093 211.719 44.12V49H210.583V44.232C210.583 43.3467 210.359 42.68 209.911 42.232C209.473 41.7733 208.855 41.544 208.055 41.544C207.457 41.544 206.935 41.6667 206.487 41.912C206.049 42.1467 205.708 42.4933 205.463 42.952C205.228 43.4 205.111 43.944 205.111 44.584V49H203.975V37.128H205.111V42.904L204.887 42.472C205.153 41.864 205.58 41.3893 206.167 41.048C206.753 40.696 207.452 40.52 208.263 40.52Z" fill="#222124"/>
</svg>
