<svg width="224" height="84" viewBox="0 0 224 84" fill="none" xmlns="http://www.w3.org/2000/svg">
<rect opacity="0.6" width="224" height="84" rx="38" fill="#E0E0E0"/>
<circle cx="42" cy="42" r="24" fill="white"/>
<path d="M51 38C49.55 38 48.74 39.44 49.07 40.51L45.52 44.07C45.22 43.98 44.78 43.98 44.48 44.07L41.93 41.52C42.27 40.45 41.46 39 40 39C38.55 39 37.73 40.44 38.07 41.52L33.51 46.07C32.44 45.74 31 46.55 31 48C31 49.1 31.9 50 33 50C34.45 50 35.26 48.56 34.93 47.49L39.48 42.93C39.78 43.02 40.22 43.02 40.52 42.93L43.07 45.48C42.73 46.55 43.54 48 45 48C46.45 48 47.27 46.56 46.93 45.48L50.49 41.93C51.56 42.26 53 41.45 53 40C53 38.9 52.1 38 51 38Z" fill="#212529"/>
<path d="M45 39L45.94 36.93L48 36L45.94 35.07L45 33L44.08 35.07L42 36L44.08 36.93L45 39Z" fill="#212529"/>
<path d="M33.5 41L34 39L36 38.5L34 38L33.5 36L33 38L31 38.5L33 39L33.5 41Z" fill="#212529"/>
<path d="M81.824 48V36.8H86.016C86.9653 36.8 87.7813 36.9547 88.464 37.264C89.1467 37.5627 89.6693 38 90.032 38.576C90.4053 39.1413 90.592 39.8293 90.592 40.64C90.592 41.4293 90.4053 42.112 90.032 42.688C89.6693 43.2533 89.1467 43.6907 88.464 44C87.7813 44.3093 86.9653 44.464 86.016 44.464H82.48L83.008 43.904V48H81.824ZM83.008 44L82.48 43.424H85.984C87.104 43.424 87.952 43.184 88.528 42.704C89.1147 42.2133 89.408 41.5253 89.408 40.64C89.408 39.744 89.1147 39.0507 88.528 38.56C87.952 38.0693 87.104 37.824 85.984 37.824H82.48L83.008 37.264V44ZM92.709 48V39.6H93.797V41.888L93.685 41.488C93.9197 40.848 94.3143 40.3627 94.869 40.032C95.4237 39.6907 96.1117 39.52 96.933 39.52V40.624C96.8903 40.624 96.8477 40.624 96.805 40.624C96.7623 40.6133 96.7197 40.608 96.677 40.608C95.7917 40.608 95.0983 40.88 94.597 41.424C94.0957 41.9573 93.845 42.72 93.845 43.712V48H92.709ZM102.352 48.08C101.541 48.08 100.81 47.8987 100.16 47.536C99.5198 47.1627 99.0131 46.656 98.6398 46.016C98.2664 45.3653 98.0798 44.624 98.0798 43.792C98.0798 42.9493 98.2664 42.208 98.6398 41.568C99.0131 40.928 99.5198 40.4267 100.16 40.064C100.8 39.7013 101.53 39.52 102.352 39.52C103.184 39.52 103.92 39.7013 104.56 40.064C105.21 40.4267 105.717 40.928 106.08 41.568C106.453 42.208 106.64 42.9493 106.64 43.792C106.64 44.624 106.453 45.3653 106.08 46.016C105.717 46.656 105.21 47.1627 104.56 47.536C103.909 47.8987 103.173 48.08 102.352 48.08ZM102.352 47.072C102.96 47.072 103.498 46.9387 103.968 46.672C104.437 46.3947 104.805 46.0107 105.072 45.52C105.349 45.0187 105.488 44.4427 105.488 43.792C105.488 43.1307 105.349 42.5547 105.072 42.064C104.805 41.5733 104.437 41.1947 103.968 40.928C103.498 40.6507 102.965 40.512 102.368 40.512C101.77 40.512 101.237 40.6507 100.768 40.928C100.298 41.1947 99.9251 41.5733 99.6478 42.064C99.3704 42.5547 99.2318 43.1307 99.2318 43.792C99.2318 44.4427 99.3704 45.0187 99.6478 45.52C99.9251 46.0107 100.298 46.3947 100.768 46.672C101.237 46.9387 101.765 47.072 102.352 47.072ZM112.303 48.08C111.503 48.08 110.783 47.8987 110.143 47.536C109.514 47.1733 109.018 46.672 108.655 46.032C108.292 45.3813 108.111 44.6347 108.111 43.792C108.111 42.9387 108.292 42.192 108.655 41.552C109.018 40.912 109.514 40.416 110.143 40.064C110.783 39.7013 111.503 39.52 112.303 39.52C113.039 39.52 113.695 39.6853 114.271 40.016C114.858 40.3467 115.322 40.832 115.663 41.472C116.015 42.1013 116.191 42.8747 116.191 43.792C116.191 44.6987 116.02 45.472 115.679 46.112C115.338 46.752 114.874 47.2427 114.287 47.584C113.711 47.9147 113.05 48.08 112.303 48.08ZM112.383 47.072C112.98 47.072 113.514 46.9387 113.983 46.672C114.463 46.3947 114.836 46.0107 115.103 45.52C115.38 45.0187 115.519 44.4427 115.519 43.792C115.519 43.1307 115.38 42.5547 115.103 42.064C114.836 41.5733 114.463 41.1947 113.983 40.928C113.514 40.6507 112.98 40.512 112.383 40.512C111.796 40.512 111.268 40.6507 110.799 40.928C110.33 41.1947 109.956 41.5733 109.679 42.064C109.402 42.5547 109.263 43.1307 109.263 43.792C109.263 44.4427 109.402 45.0187 109.679 45.52C109.956 46.0107 110.33 46.3947 110.799 46.672C111.268 46.9387 111.796 47.072 112.383 47.072ZM115.551 48V45.472L115.663 43.776L115.503 42.08V36.128H116.639V48H115.551ZM123.275 48.08C122.56 48.08 121.936 47.9467 121.403 47.68C120.869 47.4133 120.453 47.0133 120.155 46.48C119.867 45.9467 119.723 45.28 119.723 44.48V39.6H120.859V44.352C120.859 45.248 121.077 45.9253 121.515 46.384C121.963 46.832 122.587 47.056 123.387 47.056C123.973 47.056 124.48 46.9387 124.907 46.704C125.344 46.4587 125.675 46.1067 125.899 45.648C126.133 45.1893 126.251 44.64 126.251 44V39.6H127.387V48H126.299V45.696L126.475 46.112C126.208 46.7307 125.792 47.216 125.227 47.568C124.672 47.9093 124.021 48.08 123.275 48.08ZM134.041 48.08C133.209 48.08 132.462 47.8987 131.801 47.536C131.15 47.1627 130.638 46.656 130.265 46.016C129.891 45.3653 129.705 44.624 129.705 43.792C129.705 42.9493 129.891 42.208 130.265 41.568C130.638 40.928 131.15 40.4267 131.801 40.064C132.462 39.7013 133.209 39.52 134.041 39.52C134.755 39.52 135.401 39.6587 135.977 39.936C136.553 40.2133 137.006 40.6293 137.337 41.184L136.489 41.76C136.201 41.3333 135.843 41.0187 135.417 40.816C134.99 40.6133 134.526 40.512 134.025 40.512C133.427 40.512 132.889 40.6507 132.409 40.928C131.929 41.1947 131.55 41.5733 131.273 42.064C130.995 42.5547 130.857 43.1307 130.857 43.792C130.857 44.4533 130.995 45.0293 131.273 45.52C131.55 46.0107 131.929 46.3947 132.409 46.672C132.889 46.9387 133.427 47.072 134.025 47.072C134.526 47.072 134.99 46.9707 135.417 46.768C135.843 46.5653 136.201 46.256 136.489 45.84L137.337 46.416C137.006 46.96 136.553 47.376 135.977 47.664C135.401 47.9413 134.755 48.08 134.041 48.08ZM142.318 48.08C141.529 48.08 140.921 47.8667 140.494 47.44C140.067 47.0133 139.854 46.4107 139.854 45.632V37.744H140.99V45.568C140.99 46.0587 141.113 46.4373 141.358 46.704C141.614 46.9707 141.977 47.104 142.446 47.104C142.947 47.104 143.363 46.96 143.694 46.672L144.094 47.488C143.87 47.6907 143.598 47.84 143.278 47.936C142.969 48.032 142.649 48.08 142.318 48.08ZM138.35 40.544V39.6H143.55V40.544H138.35ZM150.59 48V36.8H155.15C156.344 36.8 157.39 37.04 158.286 37.52C159.192 37.9893 159.896 38.6453 160.398 39.488C160.899 40.3307 161.15 41.3013 161.15 42.4C161.15 43.4987 160.899 44.4693 160.398 45.312C159.896 46.1547 159.192 46.816 158.286 47.296C157.39 47.7653 156.344 48 155.15 48H150.59ZM151.774 46.976H155.086C156.078 46.976 156.936 46.784 157.662 46.4C158.398 46.0053 158.968 45.4667 159.374 44.784C159.779 44.0907 159.982 43.296 159.982 42.4C159.982 41.4933 159.779 40.6987 159.374 40.016C158.968 39.3333 158.398 38.8 157.662 38.416C156.936 38.0213 156.078 37.824 155.086 37.824H151.774V46.976ZM167.136 48.08C166.262 48.08 165.494 47.8987 164.832 47.536C164.171 47.1627 163.654 46.656 163.28 46.016C162.907 45.3653 162.72 44.624 162.72 43.792C162.72 42.96 162.896 42.224 163.248 41.584C163.611 40.944 164.102 40.4427 164.72 40.08C165.35 39.7067 166.054 39.52 166.832 39.52C167.622 39.52 168.32 39.7013 168.928 40.064C169.547 40.416 170.032 40.9173 170.384 41.568C170.736 42.208 170.912 42.9493 170.912 43.792C170.912 43.8453 170.907 43.904 170.896 43.968C170.896 44.0213 170.896 44.08 170.896 44.144H163.584V43.296H170.288L169.84 43.632C169.84 43.024 169.707 42.4853 169.44 42.016C169.184 41.536 168.832 41.1627 168.384 40.896C167.936 40.6293 167.419 40.496 166.832 40.496C166.256 40.496 165.739 40.6293 165.28 40.896C164.822 41.1627 164.464 41.536 164.208 42.016C163.952 42.496 163.824 43.0453 163.824 43.664V43.84C163.824 44.48 163.963 45.0453 164.24 45.536C164.528 46.016 164.923 46.3947 165.424 46.672C165.936 46.9387 166.518 47.072 167.168 47.072C167.68 47.072 168.155 46.9813 168.592 46.8C169.04 46.6187 169.424 46.3413 169.744 45.968L170.384 46.704C170.011 47.152 169.542 47.4933 168.976 47.728C168.422 47.9627 167.808 48.08 167.136 48.08ZM175.481 48.08C174.787 48.08 174.131 47.984 173.513 47.792C172.894 47.5893 172.409 47.3387 172.057 47.04L172.569 46.144C172.91 46.4 173.347 46.624 173.881 46.816C174.414 46.9973 174.974 47.088 175.561 47.088C176.361 47.088 176.937 46.9653 177.289 46.72C177.641 46.464 177.817 46.128 177.817 45.712C177.817 45.4027 177.715 45.1627 177.513 44.992C177.321 44.8107 177.065 44.6773 176.745 44.592C176.425 44.496 176.067 44.416 175.673 44.352C175.278 44.288 174.883 44.2133 174.489 44.128C174.105 44.0427 173.753 43.92 173.433 43.76C173.113 43.5893 172.851 43.36 172.649 43.072C172.457 42.784 172.361 42.4 172.361 41.92C172.361 41.4613 172.489 41.0507 172.745 40.688C173.001 40.3253 173.374 40.0427 173.865 39.84C174.366 39.6267 174.974 39.52 175.689 39.52C176.233 39.52 176.777 39.5947 177.321 39.744C177.865 39.8827 178.313 40.0693 178.665 40.304L178.169 41.216C177.795 40.96 177.395 40.7787 176.969 40.672C176.542 40.5547 176.115 40.496 175.689 40.496C174.931 40.496 174.371 40.6293 174.009 40.896C173.657 41.152 173.481 41.4827 173.481 41.888C173.481 42.208 173.577 42.4587 173.769 42.64C173.971 42.8213 174.233 42.9653 174.553 43.072C174.883 43.168 175.241 43.248 175.625 43.312C176.019 43.376 176.409 43.456 176.793 43.552C177.187 43.6373 177.545 43.76 177.865 43.92C178.195 44.0693 178.457 44.288 178.649 44.576C178.851 44.8533 178.953 45.2213 178.953 45.68C178.953 46.1707 178.814 46.5973 178.537 46.96C178.27 47.312 177.875 47.5893 177.353 47.792C176.841 47.984 176.217 48.08 175.481 48.08ZM181.037 48V39.6H182.173V48H181.037ZM181.613 37.744C181.378 37.744 181.181 37.664 181.021 37.504C180.861 37.344 180.781 37.152 180.781 36.928C180.781 36.704 180.861 36.5173 181.021 36.368C181.181 36.208 181.378 36.128 181.613 36.128C181.848 36.128 182.045 36.2027 182.205 36.352C182.365 36.5013 182.445 36.688 182.445 36.912C182.445 37.1467 182.365 37.344 182.205 37.504C182.056 37.664 181.858 37.744 181.613 37.744ZM188.918 51.184C188.15 51.184 187.414 51.072 186.71 50.848C186.006 50.624 185.435 50.304 184.998 49.888L185.574 49.024C185.969 49.376 186.454 49.6533 187.03 49.856C187.617 50.0693 188.235 50.176 188.886 50.176C189.953 50.176 190.737 49.9253 191.238 49.424C191.739 48.9333 191.99 48.1653 191.99 47.12V45.024L192.15 43.584L192.038 42.144V39.6H193.126V46.976C193.126 48.4267 192.769 49.488 192.054 50.16C191.35 50.8427 190.305 51.184 188.918 51.184ZM188.71 47.68C187.91 47.68 187.19 47.5093 186.55 47.168C185.91 46.816 185.403 46.3307 185.03 45.712C184.667 45.0933 184.486 44.384 184.486 43.584C184.486 42.784 184.667 42.08 185.03 41.472C185.403 40.8533 185.91 40.3733 186.55 40.032C187.19 39.6907 187.91 39.52 188.71 39.52C189.457 39.52 190.129 39.6747 190.726 39.984C191.323 40.2933 191.798 40.752 192.15 41.36C192.502 41.968 192.678 42.7093 192.678 43.584C192.678 44.4587 192.502 45.2 192.15 45.808C191.798 46.416 191.323 46.88 190.726 47.2C190.129 47.52 189.457 47.68 188.71 47.68ZM188.822 46.672C189.441 46.672 189.99 46.544 190.47 46.288C190.95 46.0213 191.329 45.6587 191.606 45.2C191.883 44.7307 192.022 44.192 192.022 43.584C192.022 42.976 191.883 42.4427 191.606 41.984C191.329 41.5253 190.95 41.168 190.47 40.912C189.99 40.6453 189.441 40.512 188.822 40.512C188.214 40.512 187.665 40.6453 187.174 40.912C186.694 41.168 186.315 41.5253 186.038 41.984C185.771 42.4427 185.638 42.976 185.638 43.584C185.638 44.192 185.771 44.7307 186.038 45.2C186.315 45.6587 186.694 46.0213 187.174 46.288C187.665 46.544 188.214 46.672 188.822 46.672ZM200.575 39.52C201.258 39.52 201.855 39.6533 202.367 39.92C202.89 40.176 203.295 40.5707 203.583 41.104C203.882 41.6373 204.031 42.3093 204.031 43.12V48H202.895V43.232C202.895 42.3467 202.671 41.68 202.223 41.232C201.786 40.7733 201.167 40.544 200.367 40.544C199.77 40.544 199.247 40.6667 198.799 40.912C198.362 41.1467 198.02 41.4933 197.775 41.952C197.54 42.4 197.423 42.944 197.423 43.584V48H196.287V39.6H197.375V41.904L197.199 41.472C197.466 40.864 197.892 40.3893 198.479 40.048C199.066 39.696 199.764 39.52 200.575 39.52Z" fill="#222124"/>
</svg>
