<svg width="86" height="52" viewBox="0 0 111 62" fill="none" xmlns="http://www.w3.org/2000/svg">
<path d="M31.001 17.2336L42.2662 10.9751L54.7832 18.3512V44.9049L43.5179 52.281L18.484 37.2607V23.492L43.5179 37.5289V24.7437L31.001 17.2336ZM31.001 17.2336L19.7357 10.9751L7.21961 18.4853L7.21875 44.7709L19.7357 52.281L31.001 44.7709" stroke="url(#paint0_linear_1274_18702)" stroke-width="2.6" stroke-linecap="round" stroke-linejoin="round"/>
<path d="M73.5969 26.6227C73.513 25.8781 73.1669 25.3012 72.5586 24.8922C71.9503 24.478 71.1847 24.2708 70.2618 24.2708C69.6011 24.2708 69.0295 24.3757 68.5471 24.5855C68.0646 24.79 67.6897 25.0731 67.4222 25.435C67.1601 25.7915 67.029 26.1979 67.029 26.6542C67.029 27.037 67.1181 27.3673 67.2964 27.6452C67.4799 27.9232 67.7185 28.1565 68.0122 28.3453C68.3111 28.5288 68.631 28.6835 68.9718 28.8094C69.3127 28.93 69.6404 29.0296 69.955 29.1083L71.5282 29.5173C72.0421 29.6431 72.5691 29.8136 73.1092 30.0286C73.6493 30.2436 74.1501 30.5267 74.6116 30.8781C75.073 31.2294 75.4453 31.6646 75.7285 32.1838C76.0169 32.7029 76.1611 33.3243 76.1611 34.048C76.1611 34.9604 75.9251 35.7706 75.4532 36.4785C74.9865 37.1864 74.3074 37.7449 73.416 38.1539C72.5298 38.5629 71.4574 38.7674 70.1989 38.7674C68.9928 38.7674 67.9493 38.576 67.0683 38.1932C66.1873 37.8104 65.4978 37.2677 64.9996 36.565C64.5014 35.8571 64.2261 35.0181 64.1737 34.048H66.6121C66.6593 34.63 66.848 35.1151 67.1784 35.5031C67.514 35.8859 67.9414 36.1717 68.4605 36.3605C68.9849 36.544 69.5591 36.6358 70.1831 36.6358C70.8701 36.6358 71.481 36.5283 72.0159 36.3133C72.556 36.0931 72.9807 35.7889 73.2901 35.4009C73.5995 35.0076 73.7542 34.5488 73.7542 34.0244C73.7542 33.5472 73.6179 33.1565 73.3452 32.8524C73.0777 32.5482 72.7133 32.2965 72.2518 32.0973C71.7956 31.898 71.2791 31.7223 70.7023 31.5703L68.7988 31.0511C67.5088 30.6998 66.4862 30.1833 65.7311 29.5016C64.9812 28.8199 64.6063 27.9179 64.6063 26.7957C64.6063 25.8676 64.858 25.0574 65.3614 24.3652C65.8648 23.673 66.5465 23.1355 67.4065 22.7527C68.2665 22.3647 69.2366 22.1707 70.3169 22.1707C71.4076 22.1707 72.3698 22.3621 73.2036 22.7449C74.0426 23.1277 74.7033 23.6547 75.1858 24.3259C75.6682 24.9919 75.9199 25.7575 75.9409 26.6227H73.5969ZM78.8768 38.5V26.4182H81.2286V38.5H78.8768ZM80.0645 24.554C79.6555 24.554 79.3041 24.4177 79.0105 24.145C78.7221 23.8671 78.5779 23.5367 78.5779 23.1539C78.5779 22.7658 78.7221 22.4355 79.0105 22.1628C79.3041 21.8849 79.6555 21.7459 80.0645 21.7459C80.4735 21.7459 80.8222 21.8849 81.1106 22.1628C81.4043 22.4355 81.5511 22.7658 81.5511 23.1539C81.5511 23.5367 81.4043 23.8671 81.1106 24.145C80.8222 24.4177 80.4735 24.554 80.0645 24.554ZM90.0324 26.4182V28.306H83.433V26.4182H90.0324ZM85.2028 23.5236H87.5547V34.9525C87.5547 35.4088 87.6228 35.7522 87.7592 35.983C87.8955 36.2084 88.0712 36.3631 88.2862 36.447C88.5064 36.5257 88.745 36.565 89.002 36.565C89.1908 36.565 89.3559 36.5519 89.4975 36.5257C89.6391 36.4995 89.7492 36.4785 89.8279 36.4628L90.2526 38.4056C90.1163 38.458 89.9223 38.5105 89.6706 38.5629C89.4189 38.6206 89.1042 38.6521 88.7267 38.6573C88.1079 38.6678 87.5311 38.5577 86.9962 38.327C86.4613 38.0962 86.0287 37.7396 85.6984 37.2572C85.368 36.7748 85.2028 36.1691 85.2028 35.4402V23.5236ZM92.634 38.5V26.4182H94.9859V38.5H92.634ZM93.8217 24.554C93.4127 24.554 93.0614 24.4177 92.7677 24.145C92.4793 23.8671 92.3351 23.5367 92.3351 23.1539C92.3351 22.7658 92.4793 22.4355 92.7677 22.1628C93.0614 21.8849 93.4127 21.7459 93.8217 21.7459C94.2307 21.7459 94.5795 21.8849 94.8679 22.1628C95.1615 22.4355 95.3084 22.7658 95.3084 23.1539C95.3084 23.5367 95.1615 23.8671 94.8679 24.145C94.5795 24.4177 94.2307 24.554 93.8217 24.554ZM103.239 38.7438C102.106 38.7438 101.118 38.4843 100.274 37.9651C99.4294 37.446 98.7739 36.7197 98.3072 35.7863C97.8405 34.8529 97.6071 33.7622 97.6071 32.5142C97.6071 31.2609 97.8405 30.1649 98.3072 29.2263C98.7739 28.2876 99.4294 27.5587 100.274 27.0396C101.118 26.5204 102.106 26.2609 103.239 26.2609C104.372 26.2609 105.36 26.5204 106.204 27.0396C107.049 27.5587 107.704 28.2876 108.171 29.2263C108.638 30.1649 108.871 31.2609 108.871 32.5142C108.871 33.7622 108.638 34.8529 108.171 35.7863C107.704 36.7197 107.049 37.446 106.204 37.9651C105.36 38.4843 104.372 38.7438 103.239 38.7438ZM103.247 36.7695C103.981 36.7695 104.589 36.5755 105.072 36.1875C105.554 35.7994 105.911 35.2829 106.141 34.6379C106.377 33.9929 106.495 33.2824 106.495 32.5063C106.495 31.7354 106.377 31.0275 106.141 30.3825C105.911 29.7323 105.554 29.2105 105.072 28.8172C104.589 28.424 103.981 28.2273 103.247 28.2273C102.508 28.2273 101.894 28.424 101.406 28.8172C100.924 29.2105 100.565 29.7323 100.329 30.3825C100.098 31.0275 99.9826 31.7354 99.9826 32.5063C99.9826 33.2824 100.098 33.9929 100.329 34.6379C100.565 35.2829 100.924 35.7994 101.406 36.1875C101.894 36.5755 102.508 36.7695 103.247 36.7695Z" fill="url(#paint1_linear_1274_18702)"/>
<defs>
<linearGradient id="paint0_linear_1274_18702" x1="10.9368" y1="14.6822" x2="54.5981" y2="50.8587" gradientUnits="userSpaceOnUse">
<stop stop-color="#A533F7"/>
<stop offset="1" stop-color="#3E4ACA"/>
</linearGradient>
<linearGradient id="paint1_linear_1274_18702" x1="63.041" y1="31" x2="110.041" y2="31" gradientUnits="userSpaceOnUse">
<stop stop-color="#4549CD"/>
<stop offset="1" stop-color="#585EB2"/>
</linearGradient>
</defs>
</svg>
