<svg width="90" height="58" viewBox="0 0 104 58" fill="none" xmlns="http://www.w3.org/2000/svg">
<g filter="url(#filter0_d_989_8336)">
<path d="M33.6902 17.8247H23.91C23.4074 17.8247 23 18.2321 23 18.7347V28.5149C23 29.0175 23.4074 29.4249 23.91 29.4249H33.6902C34.1928 29.4249 34.6002 29.0175 34.6002 28.5149V18.7347C34.6002 18.2321 34.1928 17.8247 33.6902 17.8247Z" fill="url(#paint0_linear_989_8336)"/>
</g>
<g filter="url(#filter1_d_989_8336)">
<path d="M35.3251 20.7249C38.128 20.7249 40.4002 18.4527 40.4002 15.6498C40.4002 12.8469 38.128 10.5747 35.3251 10.5747C32.5222 10.5747 30.25 12.8469 30.25 15.6498C30.25 18.4527 32.5222 20.7249 35.3251 20.7249Z" stroke="black" stroke-width="0.910004"/>
</g>
<path d="M49.1284 30.9478C47.5977 30.9478 46.1324 30.7331 44.7324 30.3038C43.3324 29.8558 42.2217 29.2865 41.4004 28.5958L42.6604 25.7678C43.4444 26.3838 44.4151 26.8971 45.5724 27.3078C46.7297 27.7185 47.9151 27.9238 49.1284 27.9238C50.1551 27.9238 50.9857 27.8118 51.6204 27.5878C52.2551 27.3638 52.7217 27.0651 53.0204 26.6918C53.3191 26.2998 53.4684 25.8611 53.4684 25.3758C53.4684 24.7785 53.2537 24.3025 52.8244 23.9478C52.3951 23.5745 51.8351 23.2851 51.1444 23.0798C50.4724 22.8558 49.7164 22.6505 48.8764 22.4638C48.0551 22.2771 47.2244 22.0625 46.3844 21.8198C45.5631 21.5585 44.8071 21.2318 44.1164 20.8398C43.4444 20.4291 42.8937 19.8878 42.4644 19.2158C42.0351 18.5438 41.8204 17.6851 41.8204 16.6398C41.8204 15.5758 42.1004 14.6051 42.6604 13.7278C43.2391 12.8318 44.1071 12.1225 45.2644 11.5998C46.4404 11.0585 47.9244 10.7878 49.7164 10.7878C50.8924 10.7878 52.0591 10.9371 53.2164 11.2358C54.3737 11.5345 55.3817 11.9638 56.2404 12.5238L55.0924 15.3518C54.2151 14.8291 53.3097 14.4465 52.3764 14.2038C51.4431 13.9425 50.5471 13.8118 49.6884 13.8118C48.6804 13.8118 47.8591 13.9331 47.2244 14.1758C46.6084 14.4185 46.1511 14.7358 45.8524 15.1278C45.5724 15.5198 45.4324 15.9678 45.4324 16.4718C45.4324 17.0691 45.6377 17.5545 46.0484 17.9278C46.4777 18.2825 47.0284 18.5625 47.7004 18.7678C48.3911 18.9731 49.1564 19.1785 49.9964 19.3838C50.8364 19.5705 51.6671 19.7851 52.4884 20.0278C53.3284 20.2705 54.0844 20.5878 54.7564 20.9798C55.4471 21.3718 55.9977 21.9038 56.4084 22.5758C56.8377 23.2478 57.0524 24.0971 57.0524 25.1238C57.0524 26.1691 56.7631 27.1398 56.1844 28.0358C55.6244 28.9131 54.7564 29.6225 53.5804 30.1638C52.4044 30.6865 50.9204 30.9478 49.1284 30.9478ZM60.3258 30.6678V15.7158H63.8258V30.6678H60.3258ZM62.0898 13.2518C61.4364 13.2518 60.8951 13.0465 60.4658 12.6358C60.0551 12.2251 59.8498 11.7305 59.8498 11.1518C59.8498 10.5544 60.0551 10.0598 60.4658 9.66776C60.8951 9.25709 61.4364 9.05176 62.0898 9.05176C62.7431 9.05176 63.2751 9.24776 63.6858 9.63976C64.1151 10.0131 64.3298 10.4891 64.3298 11.0678C64.3298 11.6838 64.1244 12.2065 63.7138 12.6358C63.3031 13.0465 62.7618 13.2518 62.0898 13.2518ZM74.0475 30.8638C72.4049 30.8638 71.1355 30.4438 70.2395 29.6038C69.3435 28.7451 68.8955 27.4851 68.8955 25.8238V12.4118H72.3955V25.7398C72.3955 26.4491 72.5729 26.9998 72.9275 27.3918C73.3009 27.7838 73.8142 27.9798 74.4675 27.9798C75.2515 27.9798 75.9049 27.7745 76.4275 27.3638L77.4075 29.8558C76.9969 30.1918 76.4929 30.4438 75.8955 30.6118C75.2982 30.7798 74.6822 30.8638 74.0475 30.8638ZM66.4315 18.6278V15.8278H76.3995V18.6278H66.4315ZM80.2867 30.6678V15.7158H83.7867V30.6678H80.2867ZM82.0507 13.2518C81.3974 13.2518 80.8561 13.0465 80.4267 12.6358C80.0161 12.2251 79.8107 11.7305 79.8107 11.1518C79.8107 10.5544 80.0161 10.0598 80.4267 9.66776C80.8561 9.25709 81.3974 9.05176 82.0507 9.05176C82.7041 9.05176 83.2361 9.24776 83.6467 9.63976C84.0761 10.0131 84.2907 10.4891 84.2907 11.0678C84.2907 11.6838 84.0854 12.2065 83.6747 12.6358C83.2641 13.0465 82.7227 13.2518 82.0507 13.2518ZM95.1005 30.8638C93.5698 30.8638 92.2071 30.5371 91.0125 29.8838C89.8178 29.2118 88.8751 28.2971 88.1845 27.1398C87.4938 25.9825 87.1485 24.6665 87.1485 23.1918C87.1485 21.6985 87.4938 20.3825 88.1845 19.2438C88.8751 18.0865 89.8178 17.1811 91.0125 16.5278C92.2071 15.8745 93.5698 15.5478 95.1005 15.5478C96.6498 15.5478 98.0218 15.8745 99.2165 16.5278C100.43 17.1811 101.372 18.0771 102.044 19.2158C102.735 20.3545 103.08 21.6798 103.08 23.1918C103.08 24.6665 102.735 25.9825 102.044 27.1398C101.372 28.2971 100.43 29.2118 99.2165 29.8838C98.0218 30.5371 96.6498 30.8638 95.1005 30.8638ZM95.1005 27.8678C95.9591 27.8678 96.7245 27.6811 97.3965 27.3078C98.0685 26.9345 98.5911 26.3931 98.9645 25.6838C99.3565 24.9745 99.5525 24.1438 99.5525 23.1918C99.5525 22.2211 99.3565 21.3905 98.9645 20.6998C98.5911 19.9905 98.0685 19.4491 97.3965 19.0758C96.7245 18.7025 95.9685 18.5158 95.1285 18.5158C94.2698 18.5158 93.5045 18.7025 92.8325 19.0758C92.1791 19.4491 91.6565 19.9905 91.2645 20.6998C90.8725 21.3905 90.6765 22.2211 90.6765 23.1918C90.6765 24.1438 90.8725 24.9745 91.2645 25.6838C91.6565 26.3931 92.1791 26.9345 92.8325 27.3078C93.5045 27.6811 94.2605 27.8678 95.1005 27.8678Z" fill="black"/>
<defs>
<filter id="filter0_d_989_8336" x="0.2498" y="0.534537" width="57.101" height="57.1005" filterUnits="userSpaceOnUse" color-interpolation-filters="sRGB">
<feFlood flood-opacity="0" result="BackgroundImageFix"/>
<feColorMatrix in="SourceAlpha" type="matrix" values="0 0 0 0 0 0 0 0 0 0 0 0 0 0 0 0 0 0 127 0" result="hardAlpha"/>
<feOffset dy="5.46003"/>
<feGaussianBlur stdDeviation="11.3751"/>
<feColorMatrix type="matrix" values="0 0 0 0 0.602048 0 0 0 0 0.949963 0 0 0 0 0.930168 0 0 0 0.355129 0"/>
<feBlend mode="normal" in2="BackgroundImageFix" result="effect1_dropShadow_989_8336"/>
<feBlend mode="normal" in="SourceGraphic" in2="effect1_dropShadow_989_8336" result="shape"/>
</filter>
<filter id="filter1_d_989_8336" x="21.6049" y="7.38962" width="27.4406" height="27.4401" filterUnits="userSpaceOnUse" color-interpolation-filters="sRGB">
<feFlood flood-opacity="0" result="BackgroundImageFix"/>
<feColorMatrix in="SourceAlpha" type="matrix" values="0 0 0 0 0 0 0 0 0 0 0 0 0 0 0 0 0 0 127 0" result="hardAlpha"/>
<feOffset dy="5.46003"/>
<feGaussianBlur stdDeviation="4.09502"/>
<feColorMatrix type="matrix" values="0 0 0 0 0.0944005 0 0 0 0 0.0811398 0 0 0 0 0.223693 0 0 0 1 0"/>
<feBlend mode="normal" in2="BackgroundImageFix" result="effect1_dropShadow_989_8336"/>
<feBlend mode="normal" in="SourceGraphic" in2="effect1_dropShadow_989_8336" result="shape"/>
</filter>
<linearGradient id="paint0_linear_989_8336" x1="18.2736" y1="14.9246" x2="12.4734" y2="35.9778" gradientUnits="userSpaceOnUse">
<stop stop-color="#4F6AFF"/>
<stop offset="1" stop-color="#6348ED"/>
</linearGradient>
</defs>
</svg>
