<svg width="716" height="120" viewBox="0 0 716 120" fill="none" xmlns="http://www.w3.org/2000/svg">
<g clip-path="url(#clip0_793_8281)">
<path d="M61.7097 25.6624L59.0326 18.6559C58.9233 18.3694 58.5058 18.3694 58.3964 18.6559L55.7197 25.6628C55.7007 25.7126 55.6944 25.7662 55.7013 25.8188C55.7082 25.8715 55.7282 25.9218 55.7594 25.9654C55.7907 26.009 55.8323 26.0446 55.8808 26.0692C55.9293 26.0938 55.9832 26.1066 56.0379 26.1066H61.3915C61.4462 26.1066 61.5001 26.0937 61.5486 26.0691C61.5971 26.0445 61.6387 26.0089 61.6699 25.9653C61.7012 25.9216 61.7211 25.8713 61.728 25.8186C61.7349 25.7659 61.7285 25.7124 61.7095 25.6626L61.7097 25.6624ZM62.9464 29.6006H54.4833C54.414 29.6006 54.3465 29.6212 54.2896 29.6596C54.2328 29.698 54.1894 29.7523 54.1653 29.8154L52.4991 34.175C52.475 34.238 52.4317 34.2923 52.3748 34.3307C52.318 34.3691 52.2504 34.3897 52.1812 34.3897H48.513C48.4575 34.3897 48.4029 34.3765 48.354 34.3512C48.305 34.326 48.2631 34.2895 48.2321 34.2449C48.201 34.2003 48.1817 34.149 48.1758 34.0954C48.1699 34.0419 48.1775 33.9878 48.1982 33.9378L56.6434 13.5118C56.6687 13.4507 56.7122 13.3985 56.7683 13.3617C56.8245 13.3249 56.8907 13.3053 56.9584 13.3053H60.4708C60.6092 13.3053 60.7338 13.387 60.7856 13.5118L69.2306 33.9376C69.2513 33.9876 69.2591 34.0418 69.2532 34.0953C69.2473 34.1489 69.228 34.2003 69.1969 34.245C69.1659 34.2896 69.124 34.3262 69.0749 34.3515C69.0259 34.3767 68.9713 34.3899 68.9157 34.3899H65.2483C65.179 34.3899 65.1114 34.3693 65.0545 34.3309C64.9977 34.2924 64.9543 34.238 64.9303 34.175L63.2639 29.8154C63.2398 29.7523 63.1964 29.698 63.1396 29.6596C63.0827 29.6212 63.0152 29.6006 62.9459 29.6006H62.9464ZM70.9492 20.4739H74.0865C74.1765 20.4739 74.2628 20.5086 74.3264 20.5703C74.39 20.6321 74.4258 20.7159 74.4258 20.8032V34.0603C74.4258 34.1477 74.39 34.2315 74.3264 34.2932C74.2628 34.355 74.1765 34.3897 74.0865 34.3897H70.9492C70.8592 34.3897 70.7729 34.355 70.7093 34.2932C70.6457 34.2315 70.6099 34.1477 70.6099 34.0603V20.803C70.6099 20.7157 70.6457 20.6319 70.7093 20.5701C70.7729 20.5083 70.8592 20.4736 70.9492 20.4736V20.4739ZM85.8679 23.6986C85.8679 23.786 85.8322 23.8698 85.7685 23.9316C85.7049 23.9933 85.6186 24.028 85.5286 24.028H85.4337C83.8824 24.028 82.7446 24.3895 82.0208 25.1123C81.2967 25.8352 80.9352 27.0302 80.9352 28.6968V34.0603C80.9352 34.1477 80.8995 34.2315 80.8359 34.2932C80.7723 34.355 80.686 34.3897 80.596 34.3897H77.4894C77.3994 34.3897 77.3131 34.355 77.2495 34.2932C77.1859 34.2315 77.1502 34.1477 77.1502 34.0603V20.803C77.1502 20.7157 77.1859 20.6319 77.2495 20.5701C77.3131 20.5083 77.3994 20.4736 77.4894 20.4736H80.5648C80.6548 20.4736 80.7411 20.5083 80.8047 20.5701C80.8683 20.6319 80.904 20.7157 80.904 20.803V23.4253H80.9662C81.3385 22.341 81.9279 21.5081 82.7348 20.9253C83.5411 20.3432 84.534 20.0518 85.7127 20.0518H85.8679V23.6984V23.6986ZM94.4463 23.5761C94.3563 23.5761 94.2701 23.6108 94.2064 23.6726C94.1428 23.7344 94.1071 23.8181 94.1071 23.9055V29.4197C94.1071 29.982 94.2202 30.3836 94.4481 30.6245C94.6754 30.8654 95.0685 30.986 95.6269 30.986H95.9392C96.0292 30.986 96.1155 31.0207 96.1791 31.0824C96.2427 31.1442 96.2785 31.228 96.2785 31.3153V34.0902C96.2785 34.1776 96.2427 34.2613 96.1791 34.3231C96.1155 34.3849 96.0292 34.4196 95.9392 34.4196H94.6031C93.2173 34.4196 92.1523 34.0733 91.4078 33.3805C90.663 32.6877 90.2908 31.659 90.2908 30.2932V23.9055C90.2908 23.8181 90.255 23.7344 90.1914 23.6726C90.1278 23.6108 90.0415 23.5761 89.9515 23.5761H87.9932C87.9032 23.5761 87.8169 23.5414 87.7533 23.4797C87.6897 23.4179 87.6539 23.3341 87.6539 23.2467V20.803C87.6539 20.7157 87.6897 20.6319 87.7533 20.5701C87.8169 20.5083 87.9032 20.4736 87.9932 20.4736H89.9517C90.0417 20.4736 90.128 20.4389 90.1916 20.3772C90.2553 20.3154 90.291 20.2316 90.291 20.1443V15.2307C90.291 15.1433 90.3267 15.0595 90.3904 14.9977C90.454 14.936 90.5403 14.9013 90.6302 14.9013H93.7676C93.8576 14.9013 93.9439 14.936 94.0075 14.9977C94.0711 15.0595 94.1068 15.1433 94.1068 15.2307V20.1443C94.1068 20.2316 94.1426 20.3154 94.2062 20.3772C94.2698 20.4389 94.3561 20.4736 94.4461 20.4736H96.7147C96.8047 20.4736 96.891 20.5083 96.9546 20.5701C97.0182 20.6319 97.054 20.7157 97.054 20.803V23.247C97.054 23.3343 97.0182 23.4181 96.9546 23.4799C96.891 23.5416 96.8047 23.5763 96.7147 23.5763H94.4463V23.5761ZM108.813 30.2631C109.526 29.5402 109.883 28.5964 109.883 27.4316C109.883 26.2673 109.526 25.3231 108.813 24.6003C108.099 23.8774 107.163 23.516 106.005 23.516C104.846 23.516 103.911 23.8774 103.197 24.6003C102.484 25.3231 102.127 26.2673 102.127 27.4316C102.127 28.5964 102.484 29.5402 103.197 30.2631C103.911 30.986 104.846 31.3474 106.005 31.3474C107.163 31.3474 108.099 30.986 108.813 30.2631ZM101.568 33.9679C100.514 33.3858 99.6809 32.5371 99.0712 31.4227C98.4607 30.3083 98.1559 28.9781 98.1559 27.4316C98.1559 25.8857 98.4607 24.555 99.0712 23.4406C99.6809 22.3263 100.514 21.4782 101.568 20.8955C102.623 20.3131 103.781 20.022 105.043 20.022C106.16 20.022 107.116 20.2328 107.913 20.6544C108.709 21.0759 109.345 21.6686 109.821 22.4317H109.883V20.803C109.883 20.7157 109.918 20.6319 109.982 20.5701C110.046 20.5083 110.132 20.4736 110.222 20.4736H113.328C113.418 20.4736 113.505 20.5083 113.568 20.5701C113.632 20.6319 113.668 20.7157 113.668 20.803V34.0601C113.668 34.1475 113.632 34.2312 113.568 34.293C113.505 34.3548 113.418 34.3895 113.328 34.3895H110.222C110.132 34.3895 110.046 34.3548 109.982 34.293C109.918 34.2312 109.883 34.1475 109.883 34.0601V32.4317H109.821C109.345 33.1952 108.709 33.7872 107.913 34.2088C107.116 34.6304 106.16 34.8412 105.043 34.8412C103.781 34.8412 102.623 34.55 101.568 33.9679ZM126.587 30.2631C127.3 29.5402 127.657 28.5964 127.657 27.4316C127.657 26.2673 127.3 25.3231 126.587 24.6003C125.873 23.8774 124.937 23.516 123.779 23.516C122.621 23.516 121.685 23.8774 120.972 24.6003C120.258 25.3231 119.901 26.2673 119.901 27.4316C119.901 28.5964 120.258 29.5402 120.972 30.2631C121.685 30.986 122.621 31.3474 123.779 31.3474C124.937 31.3474 125.873 30.986 126.587 30.2631ZM121.871 34.2088C121.075 33.7872 120.439 33.1952 119.963 32.4317H119.901V34.0601C119.901 34.1475 119.865 34.2312 119.802 34.293C119.738 34.3548 119.652 34.3895 119.562 34.3895H116.425C116.335 34.3895 116.248 34.3548 116.185 34.293C116.121 34.2312 116.085 34.1475 116.085 34.0601V13.6341C116.085 13.5467 116.121 13.4629 116.185 13.4012C116.248 13.3394 116.335 13.3047 116.425 13.3047H119.562C119.652 13.3047 119.738 13.3394 119.802 13.4012C119.865 13.4629 119.901 13.5467 119.901 13.6341V22.4314H119.963C120.439 21.6684 121.075 21.0759 121.871 20.6544C122.667 20.2325 123.624 20.0217 124.741 20.0217C126.002 20.0217 127.161 20.3129 128.216 20.8952C129.27 21.478 130.103 22.326 130.713 23.4402C131.323 24.5552 131.628 25.8859 131.628 27.4318C131.628 28.9783 131.323 30.3083 130.713 31.4229C130.103 32.5373 129.271 33.386 128.216 33.9679C127.161 34.5502 126.003 34.8416 124.741 34.8416C123.624 34.8416 122.668 34.6308 121.871 34.209L121.871 34.2088ZM136.914 34.3897H133.777C133.687 34.3897 133.601 34.355 133.537 34.2932C133.473 34.2315 133.438 34.1477 133.438 34.0603V13.6347C133.438 13.5474 133.473 13.4636 133.537 13.4018C133.601 13.34 133.687 13.3053 133.777 13.3053H136.914C137.004 13.3053 137.091 13.34 137.154 13.4018C137.218 13.4636 137.254 13.5474 137.254 13.6347V34.0603C137.254 34.1477 137.218 34.2315 137.154 34.2932C137.091 34.355 137.004 34.3897 136.914 34.3897ZM144.315 23.6969C143.795 24.0908 143.443 24.6595 143.262 25.4035C143.212 25.6086 143.377 25.8053 143.594 25.8053H149.564C149.772 25.8053 149.934 25.6253 149.901 25.4268C149.782 24.723 149.471 24.162 148.968 23.7421C148.379 23.2503 147.608 23.0043 146.657 23.0043C145.706 23.0043 144.925 23.2351 144.315 23.6969ZM151.962 21.9648C153.182 23.2604 153.793 25.0928 153.793 27.4619V27.8554C153.793 27.9427 153.757 28.0265 153.693 28.0883C153.63 28.15 153.543 28.1847 153.453 28.1847H143.479C143.429 28.1848 143.38 28.1955 143.335 28.2159C143.29 28.2363 143.25 28.266 143.218 28.3029C143.186 28.3398 143.163 28.3831 143.15 28.4296C143.137 28.4762 143.134 28.525 143.143 28.5725C143.302 29.4526 143.703 30.1518 144.346 30.6698C145.08 31.2626 146.006 31.5584 147.122 31.5584C148.564 31.5584 149.899 31.0121 151.126 29.9192C151.276 29.7857 151.514 29.814 151.63 29.9763L153.155 32.1019C153.203 32.168 153.224 32.2488 153.215 32.3291C153.205 32.4093 153.165 32.4834 153.103 32.5371C152.355 33.1733 151.522 33.7102 150.628 34.1337C149.635 34.6053 148.467 34.8416 147.122 34.8416C145.571 34.8416 144.216 34.5351 143.058 33.9229C141.9 33.3107 141 32.4473 140.359 31.3325C139.718 30.2181 139.398 28.928 139.398 27.4619C139.398 25.9964 139.708 24.7013 140.328 23.5763C140.949 22.4521 141.817 21.5786 142.934 20.9558C144.051 20.3338 145.354 20.0222 146.843 20.0222C149.035 20.0222 150.742 20.6699 151.962 21.9648ZM74.8356 15.5728C74.8356 16.8152 73.7982 17.8224 72.5183 17.8224C71.2382 17.8224 70.2008 16.8152 70.2008 15.5725C70.2008 14.3299 71.2384 13.3227 72.5183 13.3227C73.7982 13.3227 74.8356 14.3299 74.8356 15.5725" fill="#333333"/>
<path d="M17.8671 7.3644L2.94929 13.3575C2.11972 13.6908 2.12831 14.8351 2.96309 15.1563L17.9431 20.9239C19.2593 21.4307 20.725 21.4307 22.0412 20.9239L37.0214 15.1561C37.856 14.8351 37.865 13.691 37.035 13.3577L22.1176 7.36418C20.7567 6.81741 19.2278 6.81741 17.8669 7.36418" fill="#FCB400"/>
<path d="M21.3213 24.0732V38.4816C21.3213 39.1667 22.033 39.6361 22.6891 39.3836L39.3815 33.093C39.5676 33.0214 39.7273 32.8971 39.8399 32.7362C39.9524 32.5754 40.0125 32.3854 40.0125 32.191V17.7828C40.0125 17.0975 39.3007 16.6283 38.6446 16.8808L21.9523 23.1714C21.7662 23.2431 21.6065 23.3674 21.494 23.5282C21.3815 23.6891 21.3213 23.879 21.3213 24.0734" fill="#18BFFF"/>
<path d="M17.4233 24.8166L12.4694 27.1389L11.9664 27.3749L1.50897 32.2398C0.846308 32.5503 0 32.0813 0 31.3663V17.843C0 17.5844 0.136603 17.3611 0.319797 17.1931C0.394951 17.1204 0.480214 17.0583 0.573101 17.0086C0.822787 16.863 1.17922 16.8242 1.48228 16.9406L17.34 23.041C18.1461 23.3515 18.2094 24.4481 17.4233 24.8168" fill="#F82B60"/>
<path d="M17.4228 24.8166L12.4689 27.1389L0.319336 17.1929C0.394505 17.1203 0.479767 17.0583 0.572641 17.0086C0.822326 16.863 1.17876 16.8242 1.48182 16.9406L17.3396 23.041C18.1456 23.3515 18.209 24.4481 17.4228 24.8168" fill="black" fill-opacity="0.25"/>
</g>
<path d="M143.733 95.6241V91.03C142.834 91.0659 140.138 91.4326 138.945 92.8633V91.3463H133.912V106.653H138.945V99.4201C139.664 96.0123 142.921 95.6528 143.747 95.6241H143.733ZM98.6546 95.8038C98.1146 95.3208 97.4973 94.932 96.8285 94.6535C96.2777 94.385 95.6725 94.2473 95.0598 94.2509C94.606 94.2464 94.1567 94.3421 93.7442 94.5313C93.5562 94.6075 93.3969 94.7408 93.2885 94.9123C93.1802 95.0838 93.1283 95.285 93.1402 95.4875C93.1353 95.6928 93.1971 95.8942 93.3163 96.0615C93.4356 96.2287 93.6059 96.3527 93.8017 96.4149C94.5041 96.6749 95.2251 96.8816 95.9585 97.0332C96.5559 97.1627 97.1424 97.3381 97.7128 97.5581C98.2864 97.7768 98.8243 98.0797 99.3089 98.4567C99.7816 98.8287 100.173 99.2936 100.459 99.8228C100.76 100.414 100.909 101.072 100.891 101.735C100.922 102.545 100.739 103.35 100.361 104.067C99.9819 104.784 99.4207 105.388 98.7337 105.819C98.0748 106.246 97.3441 106.55 96.5768 106.718C95.8044 106.903 95.013 106.997 94.2187 106.998C92.9599 106.998 91.7095 106.794 90.5161 106.394C89.3829 106.042 88.3469 105.431 87.4893 104.611L89.9768 101.498C90.5831 102.052 91.272 102.508 92.0187 102.85C92.6721 103.178 93.3938 103.348 94.1252 103.346C94.552 103.341 94.9723 103.24 95.3546 103.051C95.5489 102.961 95.7109 102.813 95.8189 102.628C95.9268 102.443 95.9756 102.229 95.9585 102.016C95.9612 101.788 95.8935 101.565 95.7649 101.377C95.6362 101.189 95.4528 101.046 95.2396 100.966C94.4898 100.654 93.7123 100.413 92.9174 100.247C92.3677 100.118 91.8272 99.9522 91.2997 99.7509C90.7801 99.5491 90.295 99.2677 89.8618 98.9169C89.448 98.5638 89.1062 98.1341 88.8553 97.6515C88.5746 97.0743 88.4366 96.4382 88.4527 95.7966C88.4291 94.9668 88.633 94.1464 89.0422 93.4241C89.4273 92.774 89.9561 92.2207 90.588 91.8064C91.2156 91.3859 91.9113 91.077 92.6442 90.8934C93.3812 90.7004 94.1397 90.6014 94.9017 90.5986C96.0542 90.5974 97.1997 90.7794 98.2951 91.1378C99.3409 91.4646 100.301 92.0195 101.106 92.7626L98.6546 95.8038ZM128.11 97.0117C128.104 96.3071 127.849 95.6272 127.391 95.092C127.095 94.7895 126.736 94.556 126.34 94.4081C125.944 94.2602 125.519 94.2016 125.098 94.2365C124.639 94.2326 124.184 94.3105 123.753 94.4666C123.362 94.6096 122.999 94.8215 122.682 95.092C122.387 95.3564 122.143 95.6733 121.963 96.0267C121.803 96.3334 121.703 96.6676 121.668 97.0117H128.11ZM132.747 99.0894V99.7005C132.759 99.8945 132.759 100.089 132.747 100.283H121.647C121.679 100.694 121.81 101.091 122.028 101.44C122.244 101.791 122.525 102.099 122.855 102.346C123.199 102.604 123.583 102.805 123.991 102.943C124.409 103.087 124.849 103.16 125.292 103.159C125.994 103.179 126.69 103.026 127.319 102.713C127.849 102.436 128.308 102.043 128.664 101.563L132.165 103.77C131.435 104.81 130.443 105.639 129.289 106.171C128.016 106.744 126.631 107.027 125.234 106.998C124.126 107.004 123.025 106.822 121.977 106.459C120.989 106.122 120.077 105.592 119.296 104.899C118.519 104.197 117.904 103.337 117.491 102.375C117.032 101.294 116.806 100.127 116.83 98.9528C116.815 97.7927 117.032 96.6413 117.47 95.5666C117.873 94.6017 118.467 93.7286 119.217 92.9999C119.971 92.2876 120.857 91.7307 121.826 91.3607C122.871 90.9631 123.98 90.7656 125.098 90.7783C126.157 90.7684 127.209 90.9612 128.196 91.3463C129.114 91.7084 129.942 92.2681 130.619 92.9855C131.316 93.7354 131.854 94.6182 132.201 95.5809C132.594 96.7032 132.786 97.886 132.769 99.075L132.747 99.0894ZM72.118 95.4947V90.8718H67.8043V87.4424C67.6965 85.4653 66.7618 83.9914 62.9442 83.9914V101.8C62.9407 102.513 63.0326 103.224 63.2174 103.914C63.3804 104.519 63.675 105.081 64.0801 105.56C64.514 106.037 65.0602 106.398 65.669 106.61C66.5195 106.88 67.4081 107.011 68.3004 106.998C69.6003 107.014 70.8928 106.8 72.118 106.365V102.267C71.3002 102.477 70.4603 102.588 69.6161 102.598C69.3532 102.63 69.0864 102.601 68.8368 102.513C68.5872 102.424 68.3617 102.278 68.1782 102.087C67.8907 101.621 67.762 101.073 67.8115 100.527V95.4947H72.118Z" fill="#008FB4"/>
<path d="M112.487 98.4856L118.167 91.2961H112.157L107.124 97.6516V87.5863C107.031 85.5157 106.132 83.9915 102.257 83.9915V106.653H107.124V99.334L112.876 106.653H118.951L112.487 98.4856ZM86.6338 106.639V96.5013C86.6338 92.1373 83.1685 90.57 80.0986 90.57C77.6813 90.4493 75.3034 91.2164 73.4123 92.7268L75.9502 95.8758C76.9721 94.9783 78.2491 94.4227 79.6025 94.2869C81.4502 94.2869 81.8312 95.3438 81.8312 96.6954V96.9543H80.1704C75.8999 96.9543 73.3332 98.802 73.3332 102.095C73.3332 105.69 76.4966 106.624 80.3502 106.624L86.6338 106.639ZM81.8312 103.454H80.2352C78.9914 103.454 78.2293 102.936 78.2293 101.865C78.2293 100.793 78.9914 100.175 80.5155 100.175H81.8312V103.454ZM45.215 86.7739C45.215 87.5175 45.5104 88.2307 46.0362 88.7566C46.562 89.2824 47.2752 89.5778 48.0189 89.5778C48.7625 89.5778 49.4757 89.2824 50.0015 88.7566C50.5274 88.2307 50.8228 87.5175 50.8228 86.7739C50.8228 86.0302 50.5274 85.3171 50.0015 84.7912C49.4757 84.2654 48.7625 83.97 48.0189 83.97C47.2752 83.97 46.562 84.2654 46.0362 84.7912C45.5104 85.3171 45.215 86.0302 45.215 86.7739ZM45.6895 90.9079H45.481V106.653H50.5496V94.2222C50.4058 92.3098 49.428 90.9079 45.6895 90.9079ZM61.83 95.6242V91.0301C60.9385 91.066 58.2352 91.4327 57.0417 92.8634V91.3464H52.0091V106.653H57.0417V99.5425C57.0383 99.5018 57.0383 99.4609 57.0417 99.4203C57.7607 96.0124 61.0104 95.653 61.8443 95.6242H61.83ZM142.274 104.345H141.993V104.877H142.274C142.31 104.879 142.346 104.874 142.38 104.861C142.414 104.849 142.445 104.829 142.471 104.804C142.497 104.78 142.518 104.75 142.532 104.716C142.547 104.683 142.554 104.647 142.554 104.611C142.554 104.575 142.547 104.539 142.532 104.506C142.518 104.473 142.497 104.443 142.471 104.418C142.445 104.393 142.414 104.374 142.38 104.361C142.346 104.349 142.31 104.343 142.274 104.345ZM142.554 105.819L142.209 105.1H141.993V105.819H141.677V104.072H142.353C142.424 104.07 142.496 104.083 142.562 104.109C142.629 104.135 142.69 104.175 142.741 104.225C142.792 104.275 142.832 104.336 142.859 104.402C142.887 104.468 142.9 104.539 142.899 104.611C142.9 104.716 142.868 104.818 142.807 104.903C142.746 104.988 142.66 105.052 142.561 105.086L142.942 105.805L142.554 105.819ZM142.223 103.662C141.961 103.649 141.7 103.715 141.476 103.852C141.251 103.988 141.072 104.189 140.963 104.428C140.853 104.667 140.818 104.933 140.861 105.192C140.904 105.452 141.024 105.692 141.205 105.883C141.386 106.073 141.62 106.205 141.877 106.261C142.134 106.318 142.402 106.296 142.646 106.198C142.89 106.101 143.1 105.933 143.247 105.715C143.395 105.497 143.474 105.241 143.474 104.978C143.479 104.809 143.45 104.641 143.39 104.484C143.33 104.326 143.239 104.182 143.122 104.06C143.006 103.937 142.867 103.839 142.713 103.771C142.558 103.703 142.392 103.666 142.223 103.662ZM142.223 106.595C141.903 106.605 141.586 106.52 141.314 106.349C141.043 106.179 140.827 105.932 140.696 105.639C140.566 105.346 140.525 105.021 140.579 104.705C140.633 104.388 140.78 104.096 141.002 103.863C141.223 103.631 141.508 103.469 141.821 103.4C142.134 103.33 142.461 103.355 142.76 103.471C143.059 103.588 143.317 103.79 143.5 104.053C143.684 104.316 143.785 104.628 143.791 104.949C143.796 105.371 143.635 105.778 143.341 106.081C143.047 106.385 142.645 106.559 142.223 106.567V106.595ZM31.332 97.7739L33.5823 91.3033L35.8326 97.7739H31.332ZM35.9477 83.9915H31.4254L24.4444 102.44H21.698C19.8256 102.519 17.9703 102.055 16.3562 101.103C15.7128 100.69 15.1907 100.113 14.8433 99.4325C14.4959 98.7516 14.3357 97.9906 14.3791 97.2275V95.0706H12.1503C10.0772 95.0138 8.09193 94.2212 6.54966 92.8347C5.34474 91.5709 4.58714 89.9471 4.3928 88.2118H20.0157C22.8555 88.2118 23.9052 89.5994 24.5594 90.8432C24.8809 91.467 25.1224 92.1289 25.2784 92.8131L27.2555 87.5863C27.2555 87.5863 25.6019 83.9915 20.0157 83.9915H0V86.1484C0 90.2177 1.20784 93.4817 3.59477 95.8255C5.46844 97.5986 7.8388 98.7575 10.3889 99.1471C11.2876 103.763 15.5294 106.639 21.698 106.639H28.1111L29.549 102.483H37.5797L39.0176 106.631H44.5032L35.9477 83.9915Z" fill="#008FB4"/>
<path d="M274 2H303.143V16.5713H288.571L274 2ZM274 16.5713H288.571L303.143 31.1427H274V16.5713ZM274 31.1427H288.571V45.714L274 31.1427Z" fill="black"/>
<path d="M319.586 13.4954H331.366V17.2387H324.045V22.4407H331.366V26.1014H324.045V32.762H319.586V13.4954ZM333.788 19.4954H337.999V22.2754C338.219 21.32 338.669 20.5867 339.348 20.0734C340.044 19.5407 340.817 19.2754 341.66 19.2754C342.101 19.2754 342.468 19.3127 342.761 19.3854V23.294C342.341 23.2434 341.918 23.216 341.495 23.2114C340.339 23.2114 339.468 23.5867 338.88 24.3394C338.294 25.0734 337.999 26.174 337.999 27.6427V32.762H333.79V19.4954H333.788ZM349.409 33.12C348.125 33.12 347.005 32.8167 346.051 32.2114C345.115 31.606 344.371 30.7467 343.904 29.734C343.409 28.6707 343.159 27.4674 343.159 26.1287C343.159 24.8074 343.418 23.614 343.931 22.5507C344.413 21.5234 345.177 20.6547 346.133 20.046C347.105 19.4407 348.215 19.1374 349.464 19.1374C350.399 19.1374 351.235 19.34 351.969 19.7434C352.702 20.148 353.253 20.6987 353.62 21.3947V19.4954H357.803V32.762H353.62V30.89C353.253 31.5507 352.684 32.0914 351.913 32.514C351.143 32.9227 350.281 33.1307 349.409 33.12ZM350.62 29.624C351.629 29.624 352.409 29.294 352.959 28.6334C353.51 27.9727 353.785 27.1374 353.785 26.1287C353.785 25.138 353.51 24.312 352.959 23.6514C352.409 22.9907 351.629 22.6607 350.62 22.6607C349.665 22.6607 348.895 22.9814 348.308 23.624C347.739 24.2667 347.455 25.1007 347.455 26.1287C347.455 27.1567 347.739 28 348.308 28.6607C348.895 29.3034 349.666 29.624 350.62 29.624ZM360.749 19.4954H364.96V21.422C365.255 20.742 365.731 20.1914 366.391 19.7707C367.071 19.35 367.859 19.1374 368.758 19.1374C370.85 19.1374 372.236 19.9534 372.914 21.5874C373.287 20.8467 373.871 20.234 374.593 19.826C375.365 19.3614 376.252 19.1234 377.153 19.1374C380.291 19.1374 381.859 20.9347 381.859 24.532V32.762H377.621V25.3027C377.621 24.4047 377.455 23.744 377.125 23.3214C376.795 22.9 376.299 22.688 375.639 22.688C374.923 22.688 374.373 22.936 373.987 23.4314C373.602 23.9087 373.409 24.7427 373.409 25.936V32.762H369.171V25.2754C369.171 24.3767 369.006 23.7247 368.675 23.3214C368.365 22.9 367.877 22.688 367.218 22.688C366.483 22.688 365.923 22.936 365.538 23.4314C365.153 23.9087 364.96 24.7427 364.96 25.936V32.762H360.75V19.4954H360.749ZM397.679 25.4407C397.679 26.0087 397.642 26.624 397.567 27.2847H387.771C387.808 28.1474 388.101 28.8067 388.651 29.2667C389.202 29.7247 389.947 29.9547 390.881 29.9547C392.184 29.9547 393.01 29.5594 393.358 28.7707H397.487C397.284 30.074 396.569 31.128 395.339 31.936C394.129 32.7247 392.642 33.12 390.881 33.12C388.606 33.12 386.817 32.5047 385.513 31.2754C384.229 30.0454 383.587 28.3307 383.587 26.1287C383.587 24.6974 383.88 23.4587 384.467 22.4127C385.035 21.368 385.909 20.5227 386.972 19.9907C388.055 19.4227 389.312 19.1374 390.745 19.1374C392.101 19.1374 393.303 19.4034 394.349 19.936C395.413 20.4687 396.23 21.2114 396.798 22.1654C397.386 23.1207 397.679 24.212 397.679 25.4407ZM393.521 24.67C393.503 23.7894 393.256 23.1187 392.778 22.6607C392.302 22.2027 391.613 21.9727 390.714 21.9727C389.815 21.9727 389.1 22.22 388.567 22.716C388.054 23.1934 387.788 23.844 387.769 24.67H393.521ZM399.536 19.4954H403.747V22.2754C403.967 21.32 404.417 20.5867 405.096 20.0734C405.755 19.5547 406.569 19.2734 407.408 19.2754C407.848 19.2754 408.216 19.3127 408.509 19.3854V23.294C408.089 23.2434 407.666 23.216 407.243 23.2114C406.087 23.2114 405.216 23.5867 404.628 24.3394C404.04 25.0734 403.747 26.174 403.747 27.6427V32.762H399.536V19.4954Z" fill="black"/>
<g clip-path="url(#clip1_793_8281)">
<path d="M312.889 81.3386C308.872 81.3386 307.462 84.1316 307.462 86.7385V88.3345H306.611C305.999 88.3345 305.521 88.8133 305.521 89.4251C305.521 90.0369 305.999 90.5157 306.611 90.5157H307.462V101.528C307.462 102.167 307.968 102.699 308.633 102.699C309.271 102.699 309.803 102.193 309.803 101.528V90.5157H312.383C312.995 90.5157 313.474 90.0369 313.474 89.4251C313.474 88.8133 312.995 88.3345 312.383 88.3345H309.803V86.7385C309.803 85.2754 310.335 83.5464 312.915 83.5464C313.527 83.5464 314.006 83.0676 314.006 82.4558C313.979 81.8174 313.501 81.3386 312.889 81.3386Z" fill="#4D4D4D"/>
<path d="M321.934 87.9614C320.205 87.9614 318.742 88.6796 317.917 89.85V89.2382C317.917 88.5998 317.412 88.0678 316.747 88.0678C316.108 88.0678 315.576 88.5732 315.576 89.2382V101.528C315.576 102.166 316.082 102.698 316.747 102.698C317.385 102.698 317.917 102.193 317.917 101.528V94.7445C317.917 91.8982 319.433 90.1958 321.934 90.1958C322.545 90.1958 323.051 89.6904 323.051 89.0786C323.077 88.4668 322.572 87.9614 321.934 87.9614Z" fill="#4D4D4D"/>
<path d="M336.164 93.9996C336.164 93.3346 336.058 91.6056 335.047 90.1692C334.01 88.6796 332.387 87.9082 330.179 87.9082C326.083 87.9082 323.742 90.6214 323.742 95.3562C323.742 100.251 326.083 102.857 330.472 102.857C333.425 102.857 335.047 101.394 335.34 101.102C335.526 100.916 335.739 100.676 335.739 100.277C335.739 99.6921 335.26 99.2133 334.675 99.2133C334.382 99.2133 334.196 99.2931 334.01 99.4261C333.159 100.064 332.174 100.703 330.499 100.703C327.865 100.703 326.189 98.9739 326.11 96.1543H334.755C336.164 96.1277 336.164 94.8508 336.164 93.9996ZM330.179 90.0362C332.573 90.0362 333.824 91.3928 333.877 94.0528H326.136C326.349 91.4726 327.785 90.0362 330.179 90.0362Z" fill="#4D4D4D"/>
<path d="M343.985 94.1866C342.256 93.6014 340.766 93.0694 340.766 91.7926C340.766 90.3828 342.336 90.17 343.267 90.17C344.943 90.17 345.767 90.7552 346.432 91.3936C346.645 91.6064 346.911 91.7128 347.204 91.7128C347.789 91.7128 348.268 91.234 348.268 90.6488C348.268 90.3296 348.135 90.1168 348.028 89.9572C347.044 88.6538 345.368 87.9355 343.267 87.9355C340.288 87.9355 338.452 89.4252 338.452 91.7926C338.452 94.692 341.006 95.5698 343.24 96.3146C344.943 96.8998 346.406 97.3786 346.406 98.6288C346.406 100.331 344.517 100.597 343.373 100.597C341.83 100.597 340.633 100.118 339.649 99.1608C339.357 98.8682 339.037 98.815 338.851 98.815C338.266 98.815 337.787 99.2938 337.787 99.879C337.787 100.118 337.867 100.305 338.053 100.571C338.931 101.688 340.926 102.832 343.373 102.832C346.725 102.832 348.72 101.262 348.72 98.6554C348.72 95.8358 346.219 94.958 343.985 94.1866Z" fill="#4D4D4D"/>
<path d="M357.79 87.9085C356.194 87.9085 354.758 88.5469 353.96 89.5577V81.6841C353.96 81.0457 353.455 80.5137 352.79 80.5137C352.151 80.5137 351.619 81.0191 351.619 81.6841V101.554C351.619 102.193 352.125 102.725 352.79 102.725C353.428 102.725 353.96 102.219 353.96 101.554V94.0797C353.96 91.3931 355.263 90.0365 357.79 90.0365C360.238 90.0365 361.248 91.1537 361.248 93.8669V101.554C361.248 102.193 361.754 102.725 362.419 102.725C363.057 102.725 363.589 102.219 363.589 101.554V93.4679C363.536 89.7705 361.594 87.9085 357.79 87.9085Z" fill="#4D4D4D"/>
<path d="M382.928 88.0952C382.422 88.0952 382.023 88.3878 381.837 88.8666L378.512 98.3363L375.799 88.8666C375.692 88.4942 375.293 88.0952 374.708 88.0952C374.123 88.0952 373.724 88.4942 373.618 88.8666L370.904 98.3097L367.579 88.84C367.393 88.3612 366.994 88.0952 366.489 88.0952C365.85 88.0952 365.318 88.6006 365.318 89.2656C365.318 89.4252 365.345 89.5848 365.425 89.7444L369.867 101.954C370.053 102.433 370.452 102.699 370.958 102.699C371.49 102.699 371.942 102.353 372.075 101.874L374.682 92.9098L377.288 101.874C377.421 102.353 377.9 102.699 378.406 102.699C378.911 102.699 379.31 102.406 379.496 101.927L383.938 89.7178C384.018 89.5582 384.045 89.372 384.045 89.2124C384.071 88.6006 383.566 88.0952 382.928 88.0952Z" fill="#4D4D4D"/>
<path d="M391.385 87.9082C387.156 87.9082 384.842 90.5682 384.842 95.3562C384.842 100.197 387.156 102.857 391.385 102.857C395.615 102.857 397.929 100.197 397.929 95.3562C397.929 90.5416 395.588 87.9082 391.385 87.9082ZM391.385 100.729C388.566 100.729 387.183 98.9739 387.183 95.3828C387.183 91.845 388.592 90.0628 391.385 90.0628C394.178 90.0628 395.588 91.845 395.588 95.3828C395.588 98.9739 394.205 100.729 391.385 100.729Z" fill="#4D4D4D"/>
<path d="M406.921 87.9614C405.192 87.9614 403.729 88.6796 402.904 89.85V89.2382C402.904 88.5998 402.399 88.0678 401.734 88.0678C401.095 88.0678 400.563 88.5732 400.563 89.2382V101.528C400.563 102.166 401.069 102.698 401.734 102.698C402.372 102.698 402.904 102.193 402.904 101.528V94.7445C402.904 91.8982 404.42 90.1958 406.921 90.1958C407.533 90.1958 408.038 89.6904 408.038 89.0786C408.038 88.4668 407.533 87.9614 406.921 87.9614Z" fill="#4D4D4D"/>
<path d="M415.753 94.0265L420.567 90.1695C420.966 89.8503 421.019 89.4513 421.019 89.2385C421.019 88.6001 420.514 88.0681 419.849 88.0681C419.663 88.0681 419.344 88.0947 419.051 88.3607L412.215 93.9467V81.6841C412.215 81.0457 411.709 80.5137 411.044 80.5137C410.406 80.5137 409.874 81.0191 409.874 81.6841V101.554C409.874 102.193 410.379 102.725 411.044 102.725C411.683 102.725 412.215 102.219 412.215 101.554V96.7664L413.837 95.463L419.078 102.193C419.37 102.539 419.689 102.725 420.062 102.725C420.7 102.725 421.232 102.219 421.232 101.554C421.232 101.368 421.206 101.102 420.993 100.836L415.753 94.0265Z" fill="#4D4D4D"/>
<path d="M428.867 94.1866C427.138 93.6014 425.648 93.0694 425.648 91.7926C425.648 90.3828 427.218 90.17 428.149 90.17C429.824 90.17 430.649 90.7552 431.314 91.3936C431.527 91.6064 431.793 91.7128 432.085 91.7128C432.671 91.7128 433.149 91.234 433.149 90.6488C433.149 90.303 432.963 90.0636 432.91 89.9572C431.926 88.6538 430.25 87.9355 428.149 87.9355C425.169 87.9355 423.334 89.4252 423.334 91.7926C423.334 94.692 425.888 95.5698 428.122 96.3146C429.824 96.8998 431.287 97.3786 431.287 98.6288C431.287 100.331 429.399 100.597 428.255 100.597C426.712 100.597 425.515 100.118 424.531 99.1608C424.238 98.8682 423.946 98.815 423.733 98.815C423.148 98.815 422.669 99.2938 422.669 99.879C422.669 100.118 422.749 100.305 422.935 100.571C423.813 101.688 425.808 102.832 428.255 102.832C431.607 102.832 433.602 101.262 433.602 98.6554C433.602 95.8358 431.101 94.958 428.867 94.1866Z" fill="#4D4D4D"/>
<path d="M274.159 100.889C274.611 103.842 275.995 106.502 277.99 108.497L282.645 103.842C282.645 99.1335 285.092 94.5583 289.454 92.0312L274.159 100.889Z" fill="#9B65C3"/>
<path d="M282.645 103.842C280.33 103.842 277.99 103.257 275.835 102.007C275.25 101.661 274.691 101.289 274.159 100.863C274.611 103.816 275.995 106.476 277.99 108.471L282.645 103.842Z" fill="#9B65C3"/>
<path d="M282.645 103.842L277.99 108.497C280.012 110.518 282.645 111.902 285.598 112.327L294.429 97.0322C291.929 101.395 287.353 103.842 282.645 103.842Z" fill="#BE63C5"/>
<path d="M284.481 110.678C283.23 108.523 282.645 106.182 282.645 103.868L277.99 108.523C280.012 110.545 282.645 111.928 285.598 112.353C285.199 111.821 284.826 111.263 284.481 110.678Z" fill="#BF63C6"/>
<path d="M299.989 85.9661L289.482 92.0575C285.12 94.5845 279.933 94.3983 275.863 92.0575C274.692 94.0525 274.027 96.3933 274.027 98.8671C274.027 99.5587 274.081 100.224 274.187 100.889C274.719 101.314 275.278 101.687 275.863 102.033C278.017 103.283 280.358 103.868 282.672 103.868L300.282 86.2587C300.175 86.1523 300.095 86.0459 299.989 85.9661Z" fill="#3278B1"/>
<path d="M275.835 102.033C277.99 103.284 280.331 103.869 282.645 103.869C282.645 99.1606 285.092 94.5854 289.455 92.0583L274.133 100.89C274.691 101.289 275.25 101.688 275.835 102.033Z" fill="#3278B2"/>
<path d="M275.835 92.0583C274.665 94.0534 274 96.3942 274 98.868C274 99.5596 274.053 100.225 274.16 100.89L289.481 92.0583C285.092 94.5588 279.905 94.3992 275.835 92.0583Z" fill="#45A4EC"/>
<path d="M300.281 86.2325C300.202 86.1527 300.095 86.0463 299.989 85.9665C299.856 85.8601 299.723 85.7537 299.563 85.6739C299.058 85.3813 298.473 85.2217 297.861 85.2217H287.646C282.592 85.2217 278.203 87.9615 275.836 92.0313C279.906 94.3721 285.093 94.5583 289.455 92.0313C285.093 94.5583 282.646 99.1336 282.646 103.842C287.354 103.842 291.929 101.395 294.456 97.0322L300.521 86.5251C300.441 86.4187 300.361 86.3123 300.281 86.2325Z" fill="#19BB7D"/>
<path d="M289.482 92.0576L299.989 85.9928C299.856 85.8864 299.723 85.78 299.563 85.7002L275.836 92.0576C279.906 94.3984 285.093 94.558 289.482 92.0576Z" fill="#08C7FB"/>
<path d="M297.861 85.2217H287.646C282.592 85.2217 278.203 87.9615 275.836 92.0313L299.563 85.6739C299.058 85.4079 298.499 85.2217 297.861 85.2217Z" fill="#59F2F6"/>
<path d="M294.455 97.0316L300.52 86.5245C300.44 86.4181 300.36 86.3383 300.254 86.2319L282.645 103.841C282.645 106.155 283.23 108.496 284.48 110.651C284.826 111.236 285.198 111.795 285.624 112.327C286.289 112.433 286.954 112.486 287.645 112.486C290.119 112.486 292.46 111.821 294.455 110.651C292.114 106.581 291.928 101.394 294.455 97.0316Z" fill="#DA3757"/>
<path d="M282.645 103.842C282.645 106.156 283.23 108.497 284.48 110.652C284.826 111.237 285.198 111.795 285.624 112.327L294.455 97.0322C291.928 101.395 287.353 103.842 282.645 103.842Z" fill="#D33C4E"/>
<path d="M294.456 97.0322L285.625 112.354C286.29 112.46 286.955 112.514 287.647 112.514C290.12 112.514 292.461 111.849 294.456 110.678C292.115 106.582 291.929 101.395 294.456 97.0322Z" fill="#EE5A24"/>
<path d="M300.813 86.9503C300.733 86.7907 300.627 86.6577 300.521 86.5247C300.441 86.4183 300.361 86.3385 300.255 86.2321C300.175 86.1523 300.068 86.0459 299.962 85.9661L289.482 92.0575C285.119 94.5845 282.672 99.1597 282.672 103.868C287.38 103.868 291.955 101.421 294.482 97.0583C291.955 101.421 292.142 106.608 294.482 110.678C298.552 108.31 301.292 103.921 301.292 98.8671V88.6527C301.265 88.0143 301.106 87.4291 300.813 86.9503Z" fill="#8BDF55"/>
<path d="M299.989 85.9661L289.482 92.0575C285.119 94.5845 282.672 99.1597 282.672 103.868L300.281 86.2587C300.175 86.1523 300.095 86.0459 299.989 85.9661Z" fill="#25C16F"/>
<path d="M282.645 103.841C287.353 103.841 291.928 101.394 294.455 97.0316L300.52 86.5245C300.44 86.4181 300.36 86.3383 300.254 86.2319L282.645 103.841Z" fill="#8BDF55"/>
<path d="M300.52 86.5254L294.455 97.0325C291.928 101.395 292.114 106.582 294.455 110.652L300.812 86.9244C300.733 86.7914 300.626 86.6584 300.52 86.5254Z" fill="#FFBB00"/>
<path d="M294.455 110.678C298.525 108.311 301.265 103.922 301.265 98.8676V88.6531C301.265 88.0413 301.105 87.4561 300.813 86.9507L294.455 110.678Z" fill="#FFA800"/>
</g>
<path fill-rule="evenodd" clip-rule="evenodd" d="M580.519 11.0006H556.48C555.11 11.0006 554 12.1111 554 13.4809V37.5198C554 38.8898 555.11 40 556.48 40H580.519C581.889 40 582.999 38.8895 582.999 37.5198V13.4809C582.999 12.1108 581.889 11.0006 580.519 11.0006ZM569.238 26.9777C567.07 26.9777 566.085 24.8828 566.085 22.9409C566.085 19.8832 567.741 18.7946 569.291 18.7946C571.193 18.7946 572.471 20.4486 572.471 22.9123C572.471 25.7226 570.845 26.9777 569.238 26.9777ZM576.556 22.8584C576.556 18.2757 573.942 15.1971 570.055 15.1971C567.793 15.1971 566.484 16.2228 565.853 16.9306C565.777 16.3203 565.379 15.5285 563.823 15.5285H560.444V19.0975H561.829C562.064 19.0975 562.14 19.1724 562.14 19.4094V35.7066H566.166V29.5899C566.166 29.425 566.163 29.2705 566.159 29.1325C566.787 29.7143 567.99 30.5181 569.866 30.5181C573.802 30.5181 576.556 27.369 576.556 22.8584Z" fill="#192435"/>
<path fill-rule="evenodd" clip-rule="evenodd" d="M593.64 18.8096C594.353 18.0109 595.832 16.8533 598.387 16.8533C602.777 16.8533 605.73 20.3276 605.73 25.4993C605.73 30.5898 602.619 34.1437 598.173 34.1437C596.054 34.1437 594.696 33.2366 593.986 32.58C593.991 32.7357 593.994 32.91 593.994 33.0961V39.9991H589.446V21.6071C589.446 21.3396 589.36 21.2551 589.095 21.2551H587.531V17.2273H591.347C593.105 17.2273 593.555 18.1209 593.64 18.8096ZM597.524 20.9132C595.773 20.9132 593.902 22.1418 593.902 25.5924C593.902 27.7839 595.015 30.1481 597.463 30.1481C599.279 30.1481 601.116 28.7317 601.116 25.5603C601.116 22.7798 599.672 20.9132 597.524 20.9132Z" fill="#192435"/>
<path d="M611.838 29.4226V19.6765C611.838 18.0299 611.051 17.2278 609.438 17.2278H605.373V21.2554H606.939C607.202 21.2554 607.288 21.3418 607.288 21.6075V31.3196C607.288 32.9916 608.05 33.7684 609.683 33.7684H613.753V29.7763H612.187C611.935 29.7763 611.838 29.6747 611.838 29.4226Z" fill="#192435"/>
<path fill-rule="evenodd" clip-rule="evenodd" d="M618.971 18.8096C619.688 18.0109 621.163 16.8533 623.721 16.8533C628.11 16.8533 631.061 20.3276 631.061 25.4993C631.061 30.5898 627.954 34.1437 623.506 34.1437C621.388 34.1437 620.025 33.2366 619.319 32.58C619.324 32.7357 619.329 32.91 619.329 33.0961V39.9991H614.777V21.6071C614.777 21.3396 614.692 21.2551 614.428 21.2551H612.864V17.2273H616.682C618.439 17.2273 618.888 18.1209 618.971 18.8096ZM619.233 25.5924C619.233 27.7839 620.351 30.1481 622.793 30.1481C624.614 30.1481 626.449 28.7317 626.449 25.5603C626.449 22.7798 625.005 20.9132 622.857 20.9132C621.105 20.9132 619.233 22.1418 619.233 25.5924Z" fill="#192435"/>
<path fill-rule="evenodd" clip-rule="evenodd" d="M631.293 25.5002C631.293 20.4097 634.72 16.8541 639.621 16.8541C643.992 16.8541 646.929 20.0154 646.929 24.72C646.929 25.1972 646.84 26.1737 646.831 26.2143L646.806 26.5155H636.019C636.414 28.7156 638.082 30.1184 640.361 30.1184C642.655 30.1184 644.41 28.5605 644.546 28.4402C644.55 28.4359 644.553 28.4335 644.554 28.4329L644.848 28.152L646.83 31.4673L646.647 31.65C646.539 31.7554 644.091 34.1445 640.086 34.1445C634.99 34.1445 631.293 30.5077 631.293 25.5002ZM639.621 20.5687C637.916 20.5687 636.682 21.4894 636.189 23.1123H642.231C642.045 21.6197 640.991 20.5687 639.621 20.5687Z" fill="#192435"/>
<path fill-rule="evenodd" clip-rule="evenodd" d="M663.474 13.4488V29.4225C663.474 29.6747 663.571 29.7762 663.823 29.7762H665.355V33.7684H661.414C659.713 33.7684 659.254 32.8647 659.162 32.1505C658.455 32.9696 657.009 34.144 654.5 34.144C650.109 34.144 647.158 30.6714 647.158 25.4997C647.158 20.4092 650.238 16.8537 654.652 16.8537C656.91 16.8537 658.221 17.6576 658.892 18.2685V15.3814C658.892 15.114 658.806 15.0294 658.543 15.0294H656.977V11H661.042C662.677 11 663.474 11.8022 663.474 13.4488ZM651.799 25.4997C651.799 28.3225 653.199 30.1485 655.362 30.1485C657.113 30.1485 658.986 28.9216 658.986 25.4693C658.986 23.1999 657.883 20.9136 655.424 20.9136C653.256 20.9136 651.799 22.7548 651.799 25.4997Z" fill="#192435"/>
<path d="M675.477 17.0092C673.584 17.0092 671.842 18.1109 670.808 19.8658V19.4885C670.808 17.9891 669.987 17.2275 668.376 17.2275H664.465V21.2552H666.03C666.293 21.2552 666.38 21.3399 666.38 21.6072V33.7682H670.929V27.1495C670.929 26.278 671.04 25.4387 671.254 24.6618C671.939 22.3789 673.759 21.5666 675.231 21.5666C675.752 21.5666 676.132 21.6225 676.138 21.6241L676.518 21.6817V17.1226L676.241 17.0752C676.227 17.0718 675.841 17.0092 675.477 17.0092Z" fill="#192435"/>
<path d="M682.992 29.4226V19.6766C682.992 18.0299 682.209 17.2278 680.595 17.2278H676.918V21.2555H678.093C678.359 21.2555 678.442 21.3418 678.442 21.6075V31.3196C678.442 32.9916 679.206 33.7684 680.843 33.7684H684.909V29.7763H683.341C683.09 29.7763 682.992 29.6747 682.992 29.4226Z" fill="#192435"/>
<path d="M700.165 17.2278H697.738C696.32 17.2278 695.559 17.7236 695.109 18.9404L692.144 27.292C692.041 27.6017 691.945 27.9486 691.863 28.282C691.778 27.9486 691.675 27.5966 691.563 27.2869L688.597 18.9387C688.142 17.7084 687.407 17.2278 685.971 17.2278H683.389V21.2555H684.058C684.415 21.2555 684.529 21.3774 684.613 21.6008L689.203 33.7685H694.319L698.909 21.6008C698.993 21.3774 699.111 21.2555 699.466 21.2555H700.165V17.2278Z" fill="#192435"/>
<path fill-rule="evenodd" clip-rule="evenodd" d="M699.672 25.5002C699.672 20.4097 703.099 16.8541 707.998 16.8541C712.371 16.8541 715.31 20.0154 715.31 24.72C715.31 25.1972 715.218 26.1737 715.213 26.2143L715.188 26.5155H704.397C704.792 28.7156 706.46 30.1184 708.741 30.1184C711.107 30.1184 712.915 28.4481 712.931 28.4329L713.232 28.152L715.21 31.4673L715.025 31.65C714.922 31.7515 712.472 34.1445 708.463 34.1445C703.367 34.1445 699.672 30.5077 699.672 25.5002ZM707.998 20.5687C706.294 20.5687 705.065 21.4894 704.567 23.1123H710.609C710.423 21.6197 709.371 20.5687 707.998 20.5687Z" fill="#192435"/>
<path d="M611.527 11.0011H607.472V15.308H611.527V11.0011Z" fill="#192435"/>
<path d="M682.684 11.0011H678.627V15.308H682.684V11.0011Z" fill="#192435"/>
<path d="M615.744 89.0814C614.771 88.2641 613.097 87.8554 610.723 87.8554H605.391V104.338H609.38V99.1619H611.171C613.331 99.1619 614.927 98.6754 615.939 97.7218C617.087 96.6515 617.651 95.2309 617.651 93.4405C617.651 91.6113 617.009 90.1517 615.744 89.0814ZM611.054 95.4255H609.361V91.5723H610.879C612.728 91.5723 613.642 92.2145 613.642 93.5184C613.662 94.7833 612.786 95.4255 611.054 95.4255ZM624.462 87.8359H620.317V104.319H629.288V100.583H624.462V87.8359ZM637.442 87.8359L630.904 104.319H635.38L636.236 101.925H641.918L642.697 104.319H647.231L640.751 87.8359H637.442ZM637.384 98.5976L639.097 92.954L640.79 98.5976H637.384Z" fill="#111111"/>
<path d="M649.313 104.319H653.478V87.8364H649.313V104.319ZM669.611 90.9306C669.085 90.1716 668.404 89.5294 667.626 89.0234C666.361 88.2256 664.648 87.8364 662.488 87.8364H657V104.319H663.403C665.719 104.319 667.587 103.56 668.988 102.042C670.389 100.525 671.09 98.5201 671.09 96.0097C671.109 94.0248 670.603 92.3317 669.611 90.9306ZM662.955 100.583H661.184V91.5728H662.994C664.259 91.5728 665.252 91.962 665.933 92.7598C666.614 93.5577 666.964 94.6864 666.964 96.146C666.945 99.1039 665.621 100.583 662.955 100.583ZM571.608 74L558.122 77.5223L554.405 91.0862L559.076 95.854L554.347 100.544L557.85 114.166L571.277 117.922L576.006 113.232L580.657 118L594.143 114.478L597.86 100.914L593.209 96.146L597.938 91.456L594.435 77.8337L581.007 74.0778L576.279 78.7678L571.608 74ZM563.337 80.13L570.44 78.2618L573.554 81.4533L569.02 85.9487L563.337 80.13ZM578.925 81.5117L582.078 78.3786L589.142 80.3636L583.362 86.1044C583.382 86.0849 578.925 81.5117 578.925 81.5117ZM558.667 89.977L560.632 82.835L566.315 88.6537L561.781 93.1491L558.667 89.977ZM586.048 88.8288L591.827 83.088L593.676 90.2689L590.524 93.402C590.504 93.402 586.048 88.8288 586.048 88.8288ZM571.686 88.7121L576.22 84.2167L580.677 88.7899L576.142 93.2853L571.686 88.7121ZM564.447 95.893L568.981 91.3976L573.437 95.9708L568.903 100.466L564.447 95.893ZM578.808 96.0097L583.343 91.5144L587.799 96.0876L583.265 100.583C583.265 100.602 578.808 96.0097 578.808 96.0097ZM558.589 101.731L561.742 98.598L566.198 103.171L560.438 108.912C560.418 108.912 558.589 101.731 558.589 101.731ZM571.569 103.21L576.103 98.7147L580.56 103.288L576.026 107.783L571.569 103.21ZM585.931 103.327L590.465 98.8315L593.579 102.023L591.633 109.165C591.613 109.165 585.931 103.327 585.931 103.327ZM563.084 111.636L568.845 105.896L573.301 110.469L570.149 113.602L563.084 111.636ZM578.692 110.527L583.226 106.032L588.908 111.851L581.805 113.719L578.692 110.527Z" fill="#111111"/>
<defs>
<clipPath id="clip0_793_8281">
<rect width="154" height="48" fill="white"/>
</clipPath>
<clipPath id="clip1_793_8281">
<rect width="160" height="48" fill="white" transform="translate(274 72)"/>
</clipPath>
</defs>
</svg>
